Benne-Regular-e.ufo
<glyph name="exclam" format="1">
  <advance width="270"/>
  <unicode hex="0021"/>
  <outline>
    <contour>
      <point x="152" y="205"/>
      <point x="158" y="218"/>
      <point x="161" y="244" type="curve"/>
      <point x="163" y="257"/>
      <point x="167" y="285"/>
      <point x="173" y="328" type="curve" smooth="yes"/>
      <point x="178" y="371"/>
      <point x="182" y="403"/>
      <point x="185" y="424" type="curve" smooth="yes"/>
      <point x="190" y="464"/>
      <point x="197" y="534"/>
      <point x="197" y="575" type="curve" smooth="yes"/>
      <point x="197" y="615"/>
      <point x="178" y="649"/>
      <point x="145" y="649" type="curve" smooth="yes"/>
      <point x="112" y="649"/>
      <point x="93" y="615"/>
      <point x="93" y="575" type="curve" smooth="yes"/>
      <point x="93" y="535"/>
      <point x="99" y="472"/>
      <point x="112" y="357" type="curve" smooth="yes"/>
      <point x="119" y="300"/>
      <point x="123" y="260"/>
      <point x="126" y="238" type="curve"/>
      <point x="128" y="216"/>
      <point x="134" y="205"/>
      <point x="143" y="205" type="curve" smooth="yes"/>
    </contour>
    <contour>
      <point x="178" y="-14"/>
      <point x="205" y="13"/>
      <point x="205" y="46" type="curve" smooth="yes"/>
      <point x="205" y="79"/>
      <point x="178" y="106"/>
      <point x="145" y="106" type="curve" smooth="yes"/>
      <point x="128" y="106"/>
      <point x="114" y="100"/>
      <point x="103" y="89" type="curve" smooth="yes"/>
      <point x="91" y="77"/>
      <point x="85" y="63"/>
      <point x="85" y="46" type="curve" smooth="yes"/>
      <point x="85" y="13"/>
      <point x="112" y="-14"/>
      <point x="145" y="-14" type="curve" smooth="yes"/>
    </contour>
  </outline>
</glyph>
<glyph name="parenright" format="1">
  <advance width="316"/>
  <unicode hex="0029"/>
  <outline>
    <contour>
      <point x="73" y="-213"/>
      <point x="79" y="-211"/>
      <point x="83" y="-207" type="curve" smooth="yes"/>
      <point x="162" y="-128"/>
      <point x="266" y="123"/>
      <point x="266" y="280" type="curve" smooth="yes"/>
      <point x="266" y="436"/>
      <point x="176" y="609"/>
      <point x="91" y="694" type="curve" smooth="yes"/>
      <point x="84" y="701"/>
      <point x="74" y="704"/>
      <point x="61" y="704" type="curve" smooth="yes"/>
      <point x="47" y="704"/>
      <point x="40" y="700"/>
      <point x="40" y="691" type="curve" smooth="yes"/>
      <point x="40" y="688"/>
      <point x="43" y="684"/>
      <point x="48" y="679" type="curve" smooth="yes"/>
      <point x="128" y="599"/>
      <point x="206" y="425"/>
      <point x="206" y="266" type="curve" smooth="yes"/>
      <point x="206" y="106"/>
      <point x="122" y="-105"/>
      <point x="46" y="-181" type="curve" smooth="yes"/>
      <point x="39" y="-188"/>
      <point x="36" y="-193"/>
      <point x="36" y="-196" type="curve" smooth="yes"/>
      <point x="36" y="-204"/>
      <point x="51" y="-213"/>
      <point x="66" y="-213" type="curve" smooth="yes"/>
    </contour>
  </outline>
</glyph>
<glyph name="t" format="1">
  <advance width="314"/>
  <unicode hex="0074"/>
  <outline>
    <contour>
      <point x="226" y="-14"/>
      <point x="269" y="7"/>
      <point x="290" y="27" type="curve"/>
      <point x="301" y="36"/>
      <point x="306" y="43"/>
      <point x="306" y="48" type="curve" smooth="yes"/>
      <point x="306" y="56"/>
      <point x="301" y="64"/>
      <point x="296" y="60" type="curve" smooth="yes"/>
      <point x="279" y="47"/>
      <point x="254" y="41"/>
      <point x="221" y="41" type="curve" smooth="yes"/>
      <point x="184" y="41"/>
      <point x="155" y="67"/>
      <point x="155" y="135" type="curve" smooth="yes"/>
      <point x="155" y="324" type="line" smooth="yes"/>
      <point x="155" y="351"/>
      <point x="159" y="352"/>
      <point x="195" y="352" type="curve" smooth="yes"/>
      <point x="294" y="352" type="line" smooth="yes"/>
      <point x="301" y="352"/>
      <point x="304" y="360"/>
      <point x="304" y="376" type="curve" smooth="yes"/>
      <point x="304" y="392"/>
      <point x="301" y="400"/>
      <point x="294" y="400" type="curve" smooth="yes"/>
      <point x="180" y="400" type="line" smooth="yes"/>
      <point x="164" y="400"/>
      <point x="156" y="405"/>
      <point x="156" y="414" type="curve"/>
      <point x="158" y="458" type="line"/>
      <point x="158" y="465"/>
      <point x="153" y="468"/>
      <point x="144" y="468" type="curve" smooth="yes"/>
      <point x="142" y="468"/>
      <point x="136" y="462"/>
      <point x="126" y="449" type="curve" smooth="yes"/>
      <point x="106" y="424"/>
      <point x="71" y="388"/>
      <point x="40" y="379" type="curve"/>
      <point x="37" y="377"/>
      <point x="35" y="375"/>
      <point x="35" y="372" type="curve" smooth="yes"/>
      <point x="35" y="366"/>
      <point x="43" y="352"/>
      <point x="47" y="352" type="curve" smooth="yes"/>
      <point x="62" y="352"/>
      <point x="73" y="351"/>
      <point x="78" y="349" type="curve" smooth="yes"/>
      <point x="83" y="347"/>
      <point x="85" y="343"/>
      <point x="85" y="337" type="curve" smooth="yes"/>
      <point x="85" y="105" type="line" smooth="yes"/>
      <point x="85" y="25"/>
      <point x="124" y="-14"/>
      <point x="189" y="-14" type="curve" smooth="yes"/>
    </contour>
  </outline>
</glyph>
<glyph name="oslash" format="1">
  <advance width="563"/>
  <unicode hex="00F8"/>
  <outline>
    <contour>
      <point x="461" y="514" type="line"/>
      <point x="533" y="514" type="line"/>
      <point x="133" y="-9" type="line"/>
      <point x="62" y="-9" type="line"/>
    </contour>
    <contour>
      <point x="447" y="-9"/>
      <point x="533" y="106"/>
      <point x="533" y="251" type="curve" smooth="yes"/>
      <point x="533" y="396"/>
      <point x="452" y="514"/>
      <point x="295" y="514" type="curve" smooth="yes"/>
      <point x="155" y="514"/>
      <point x="62" y="396"/>
      <point x="62" y="251" type="curve" smooth="yes"/>
      <point x="62" y="106"/>
      <point x="149" y="-9"/>
      <point x="295" y="-9" type="curve" smooth="yes"/>
    </contour>
    <contour>
      <point x="413" y="46"/>
      <point x="472" y="142"/>
      <point x="472" y="251" type="curve" smooth="yes"/>
      <point x="472" y="360"/>
      <point x="422" y="459"/>
      <point x="295" y="459" type="curve" smooth="yes"/>
      <point x="183" y="459"/>
      <point x="123" y="360"/>
      <point x="123" y="251" type="curve" smooth="yes"/>
      <point x="123" y="142"/>
      <point x="189" y="46"/>
      <point x="295" y="46" type="curve" smooth="yes"/>
    </contour>
  </outline>
</glyph>
<glyph name="Kcommaaccent" format="1">
  <advance width="549"/>
  <unicode hex="0136"/>
  <outline>
    <contour>
      <point x="519" y="0" type="line"/>
      <point x="239" y="332" type="line"/>
      <point x="160" y="332" type="line"/>
      <point x="437" y="0" type="line"/>
    </contour>
    <contour>
      <point x="213" y="-238" type="line"/>
      <point x="323" y="-51" type="line"/>
      <point x="247" y="-51" type="line"/>
      <point x="159" y="-238" type="line"/>
    </contour>
    <contour>
      <point x="142" y="0" type="line"/>
      <point x="142" y="674" type="line"/>
      <point x="80" y="674" type="line"/>
      <point x="80" y="0" type="line"/>
    </contour>
    <contour>
      <point x="239" y="332" type="line"/>
      <point x="505" y="674" type="line"/>
      <point x="427" y="674" type="line"/>
      <point x="160" y="332" type="line"/>
    </contour>
  </outline>
</glyph>
<glyph name="kcommaaccent" format="1">
  <advance width="462"/>
  <unicode hex="0137"/>
  <outline>
    <contour>
      <point x="440" y="0" type="line"/>
      <point x="226" y="266" type="line"/>
      <point x="152" y="266" type="line"/>
      <point x="364" y="0" type="line"/>
    </contour>
    <contour>
      <point x="163" y="-238" type="line"/>
      <point x="273" y="-51" type="line"/>
      <point x="197" y="-51" type="line"/>
      <point x="109" y="-238" type="line"/>
    </contour>
    <contour>
      <point x="137" y="0" type="line"/>
      <point x="137" y="707" type="line"/>
      <point x="76" y="707" type="line"/>
      <point x="76" y="0" type="line"/>
    </contour>
    <contour>
      <point x="226" y="266" type="line"/>
      <point x="433" y="507" type="line"/>
      <point x="358" y="507" type="line"/>
      <point x="152" y="266" type="line"/>
    </contour>
  </outline>
</glyph>
<glyph name="Lcaron" format="1">
  <advance width="474"/>
  <unicode hex="013D"/>
  <outline>
    <contour>
      <point x="142" y="0" type="line"/>
      <point x="142" y="674" type="line"/>
      <point x="80" y="674" type="line"/>
      <point x="80" y="0" type="line"/>
    </contour>
    <contour>
      <point x="439" y="0" type="line"/>
      <point x="439" y="57" type="line"/>
      <point x="88" y="57" type="line"/>
      <point x="88" y="0" type="line"/>
    </contour>
    <contour>
      <point x="294" y="515" type="line"/>
      <point x="404" y="702" type="line"/>
      <point x="328" y="702" type="line"/>
      <point x="240" y="515" type="line"/>
    </contour>
  </outline>
</glyph>
<glyph name="rcommaaccent" format="1">
  <advance width="314"/>
  <unicode hex="0157"/>
  <outline>
    <contour>
      <point x="34" y="-238" type="line"/>
      <point x="144" y="-51" type="line"/>
      <point x="68" y="-51" type="line"/>
      <point x="-20" y="-238" type="line"/>
    </contour>
    <component base="r"/>
  </outline>
</glyph>
<glyph name="Tcedilla" format="1">
  <advance width="465"/>
  <unicode hex="0162"/>
  <outline>
    <contour>
      <point x="263" y="0" type="line"/>
      <point x="263" y="674" type="line"/>
      <point x="201" y="674" type="line"/>
      <point x="201" y="0" type="line"/>
    </contour>
    <contour>
      <point x="450" y="617" type="line"/>
      <point x="450" y="674" type="line"/>
      <point x="15" y="674" type="line"/>
      <point x="15" y="617" type="line"/>
    </contour>
    <component base="cedilla" xOffset="10"/>
  </outline>
</glyph>
<glyph name="knAA" format="1">
  <advance width="754"/>
  <unicode hex="0C86"/>
  <outline>
    <contour>
      <point x="575" y="-14"/>
      <point x="665" y="90"/>
      <point x="665" y="188" type="curve" smooth="yes"/>
      <point x="665" y="303"/>
      <point x="554" y="333"/>
      <point x="554" y="405" type="curve" smooth="yes"/>
      <point x="554" y="432"/>
      <point x="576" y="454"/>
      <point x="616" y="454" type="curve" smooth="yes"/>
      <point x="654" y="454"/>
      <point x="678" y="431"/>
      <point x="678" y="406" type="curve" smooth="yes"/>
      <point x="678" y="373"/>
      <point x="652" y="355"/>
      <point x="601" y="355" type="curve" smooth="yes"/>
      <point x="396" y="355" type="line"/>
      <point x="396" y="283" type="line"/>
      <point x="568" y="283" type="line" smooth="yes"/>
      <point x="655" y="283"/>
      <point x="709" y="332"/>
      <point x="709" y="408" type="curve" smooth="yes"/>
      <point x="709" y="463"/>
      <point x="668" y="519"/>
      <point x="605" y="519" type="curve" smooth="yes"/>
      <point x="552" y="519"/>
      <point x="515" y="485"/>
      <point x="515" y="423" type="curve" smooth="yes"/>
      <point x="515" y="335"/>
      <point x="621" y="293"/>
      <point x="621" y="213" type="curve" smooth="yes"/>
      <point x="621" y="136"/>
      <point x="535" y="71"/>
      <point x="371" y="71" type="curve" smooth="yes"/>
      <point x="202" y="71"/>
      <point x="100" y="171"/>
      <point x="100" y="294" type="curve" smooth="yes"/>
      <point x="100" y="387"/>
      <point x="142" y="454"/>
      <point x="235" y="454" type="curve" smooth="yes"/>
      <point x="273" y="454"/>
      <point x="307" y="440"/>
      <point x="307" y="401" type="curve" smooth="yes"/>
      <point x="307" y="365"/>
      <point x="279" y="344"/>
      <point x="232" y="344" type="curve" smooth="yes"/>
      <point x="190" y="344"/>
      <point x="159" y="365"/>
      <point x="159" y="408" type="curve" smooth="yes"/>
      <point x="159" y="419"/>
      <point x="163" y="440"/>
      <point x="166" y="450" type="curve"/>
      <point x="177" y="475"/>
      <point x="172" y="501"/>
      <point x="157" y="497" type="curve"/>
      <point x="135" y="429" type="line"/>
      <point x="132" y="407"/>
      <point x="131" y="394"/>
      <point x="131" y="381" type="curve" smooth="yes"/>
      <point x="131" y="308"/>
      <point x="174" y="273"/>
      <point x="232" y="273" type="curve" smooth="yes"/>
      <point x="295" y="273"/>
      <point x="337" y="325"/>
      <point x="337" y="391" type="curve" smooth="yes"/>
      <point x="337" y="457"/>
      <point x="301" y="519"/>
      <point x="230" y="519" type="curve" smooth="yes"/>
      <point x="128" y="519"/>
      <point x="60" y="414"/>
      <point x="60" y="283" type="curve" smooth="yes"/>
      <point x="60" y="109"/>
      <point x="180" y="-14"/>
      <point x="381" y="-14" type="curve" smooth="yes"/>
    </contour>
  </outline>
</glyph>
<glyph name="knUU" format="1">
  <advance width="1414"/>
  <unicode hex="0C8A"/>
  <outline>
    <contour>
      <point x="387" y="-14"/>
      <point x="473" y="42"/>
      <point x="473" y="150" type="curve" smooth="yes"/>
      <point x="473" y="229"/>
      <point x="461" y="284"/>
      <point x="461" y="339" type="curve" smooth="yes"/>
      <point x="461" y="396"/>
      <point x="492" y="441"/>
      <point x="551" y="441" type="curve" smooth="yes"/>
      <point x="605" y="441"/>
      <point x="639" y="406"/>
      <point x="639" y="339" type="curve" smooth="yes"/>
      <point x="639" y="276"/>
      <point x="634" y="220"/>
      <point x="634" y="150" type="curve" smooth="yes"/>
      <point x="634" y="65"/>
      <point x="674" y="-14"/>
      <point x="779" y="-14" type="curve" smooth="yes"/>
      <point x="879" y="-14"/>
      <point x="922" y="73"/>
      <point x="922" y="231" type="curve" smooth="yes"/>
      <point x="922" y="371"/>
      <point x="998" y="441"/>
      <point x="1105" y="441" type="curve" smooth="yes"/>
      <point x="1220" y="441"/>
      <point x="1319" y="363"/>
      <point x="1319" y="235" type="curve" smooth="yes"/>
      <point x="1319" y="129"/>
      <point x="1257" y="68"/>
      <point x="1167" y="68" type="curve" smooth="yes"/>
      <point x="1094" y="68"/>
      <point x="1050" y="111"/>
      <point x="1049" y="169" type="curve" smooth="yes"/>
      <point x="1048" y="211"/>
      <point x="1070" y="237"/>
      <point x="1082" y="237" type="curve" smooth="yes"/>
      <point x="1087" y="237"/>
      <point x="1088" y="233"/>
      <point x="1088" y="227" type="curve"/>
      <point x="1089" y="191"/>
      <point x="1110" y="165"/>
      <point x="1143" y="165" type="curve" smooth="yes"/>
      <point x="1178" y="165"/>
      <point x="1204" y="194"/>
      <point x="1203" y="230" type="curve"/>
      <point x="1204" y="262"/>
      <point x="1179" y="299"/>
      <point x="1124" y="299" type="curve" smooth="yes"/>
      <point x="1052" y="299"/>
      <point x="1012" y="235"/>
      <point x="1011" y="157" type="curve" smooth="yes"/>
      <point x="1012" y="58"/>
      <point x="1072" y="-14"/>
      <point x="1168" y="-14" type="curve" smooth="yes"/>
      <point x="1280" y="-14"/>
      <point x="1354" y="92"/>
      <point x="1354" y="238" type="curve" smooth="yes"/>
      <point x="1354" y="402"/>
      <point x="1244" y="519"/>
      <point x="1096" y="519" type="curve" smooth="yes"/>
      <point x="974" y="519"/>
      <point x="885" y="423"/>
      <point x="885" y="248" type="curve" smooth="yes"/>
      <point x="885" y="116"/>
      <point x="849" y="71"/>
      <point x="776" y="71" type="curve" smooth="yes"/>
      <point x="706" y="71"/>
      <point x="672" y="138"/>
      <point x="672" y="206" type="curve" smooth="yes"/>
      <point x="672" y="256"/>
      <point x="681" y="312"/>
      <point x="681" y="375" type="curve" smooth="yes"/>
      <point x="681" y="453"/>
      <point x="637" y="519"/>
      <point x="556" y="519" type="curve" smooth="yes"/>
      <point x="469" y="519"/>
      <point x="419" y="453"/>
      <point x="419" y="368" type="curve" smooth="yes"/>
      <point x="419" y="312"/>
      <point x="436" y="256"/>
      <point x="436" y="189" type="curve" smooth="yes"/>
      <point x="436" y="118"/>
      <point x="379" y="71"/>
      <point x="321" y="71" type="curve" smooth="yes"/>
      <point x="190" y="71"/>
      <point x="100" y="171"/>
      <point x="100" y="294" type="curve" smooth="yes"/>
      <point x="100" y="387"/>
      <point x="142" y="454"/>
      <point x="235" y="454" type="curve" smooth="yes"/>
      <point x="273" y="454"/>
      <point x="307" y="440"/>
      <point x="307" y="401" type="curve" smooth="yes"/>
      <point x="307" y="365"/>
      <point x="279" y="344"/>
      <point x="232" y="344" type="curve" smooth="yes"/>
      <point x="190" y="344"/>
      <point x="159" y="365"/>
      <point x="159" y="408" type="curve" smooth="yes"/>
      <point x="159" y="419"/>
      <point x="163" y="440"/>
      <point x="166" y="450" type="curve"/>
      <point x="177" y="475"/>
      <point x="172" y="501"/>
      <point x="157" y="497" type="curve"/>
      <point x="135" y="429" type="line"/>
      <point x="132" y="407"/>
      <point x="131" y="394"/>
      <point x="131" y="381" type="curve" smooth="yes"/>
      <point x="131" y="308"/>
      <point x="174" y="273"/>
      <point x="232" y="273" type="curve" smooth="yes"/>
      <point x="295" y="273"/>
      <point x="337" y="325"/>
      <point x="337" y="391" type="curve" smooth="yes"/>
      <point x="337" y="457"/>
      <point x="301" y="519"/>
      <point x="230" y="519" type="curve" smooth="yes"/>
      <point x="128" y="519"/>
      <point x="60" y="414"/>
      <point x="60" y="283" type="curve" smooth="yes"/>
      <point x="60" y="104"/>
      <point x="168" y="-14"/>
      <point x="319" y="-14" type="curve" smooth="yes"/>
    </contour>
  </outline>
</glyph>
<glyph name="knE" format="1">
  <advance width="725"/>
  <unicode hex="0C8E"/>
  <outline>
    <contour>
      <point x="243" y="-14"/>
      <point x="311" y="43"/>
      <point x="334" y="126" type="curve"/>
      <point x="336" y="126" type="line"/>
      <point x="359" y="43"/>
      <point x="427" y="-14"/>
      <point x="497" y="-14" type="curve" smooth="yes"/>
      <point x="608" y="-14"/>
      <point x="670" y="88"/>
      <point x="670" y="211" type="curve" smooth="yes"/>
      <point x="670" y="426"/>
      <point x="476" y="519"/>
      <point x="343" y="519" type="curve" smooth="yes"/>
      <point x="308" y="519"/>
      <point x="288" y="500"/>
      <point x="288" y="477" type="curve" smooth="yes"/>
      <point x="288" y="460"/>
      <point x="297" y="444"/>
      <point x="312" y="438" type="curve" smooth="yes"/>
      <point x="334" y="430"/>
      <point x="354" y="439"/>
      <point x="383" y="439" type="curve" smooth="yes"/>
      <point x="522" y="439"/>
      <point x="635" y="352"/>
      <point x="635" y="227" type="curve" smooth="yes"/>
      <point x="635" y="138"/>
      <point x="579" y="71"/>
      <point x="491" y="71" type="curve" smooth="yes"/>
      <point x="418" y="71"/>
      <point x="352" y="146"/>
      <point x="339" y="221" type="curve"/>
      <point x="330" y="221" type="line"/>
      <point x="316" y="145"/>
      <point x="251" y="71"/>
      <point x="178" y="71" type="curve" smooth="yes"/>
      <point x="127" y="71"/>
      <point x="92" y="104"/>
      <point x="90" y="156" type="curve"/>
      <point x="92" y="201"/>
      <point x="121" y="227"/>
      <point x="156" y="227" type="curve" smooth="yes"/>
      <point x="188" y="227"/>
      <point x="213" y="217"/>
      <point x="222" y="193" type="curve"/>
      <point x="238" y="208" type="line"/>
      <point x="227" y="250"/>
      <point x="203" y="287"/>
      <point x="153" y="287" type="curve" smooth="yes"/>
      <point x="95" y="287"/>
      <point x="52" y="232"/>
      <point x="50" y="143" type="curve"/>
      <point x="52" y="56"/>
      <point x="101" y="-14"/>
      <point x="173" y="-14" type="curve" smooth="yes"/>
    </contour>
  </outline>
</glyph>
<glyph name="knAI" format="1">
  <advance width="745"/>
  <unicode hex="0C90"/>
  <outline>
    <contour>
      <point x="263" y="-14"/>
      <point x="331" y="43"/>
      <point x="354" y="126" type="curve"/>
      <point x="356" y="126" type="line"/>
      <point x="379" y="43"/>
      <point x="447" y="-14"/>
      <point x="517" y="-14" type="curve" smooth="yes"/>
      <point x="628" y="-14"/>
      <point x="690" y="88"/>
      <point x="690" y="241" type="curve" smooth="yes"/>
      <point x="690" y="388"/>
      <point x="628" y="519"/>
      <point x="514" y="519" type="curve" smooth="yes"/>
      <point x="445" y="519"/>
      <point x="378" y="461"/>
      <point x="355" y="377" type="curve"/>
      <point x="353" y="377" type="line"/>
      <point x="330" y="461"/>
      <point x="260" y="519"/>
      <point x="191" y="519" type="curve" smooth="yes"/>
      <point x="103" y="519"/>
      <point x="50" y="428"/>
      <point x="50" y="343" type="curve"/>
      <point x="73" y="332" type="line"/>
      <point x="88" y="399"/>
      <point x="125" y="444"/>
      <point x="195" y="444" type="curve" smooth="yes"/>
      <point x="280" y="444"/>
      <point x="336" y="358"/>
      <point x="350" y="283" type="curve"/>
      <point x="359" y="283" type="line"/>
      <point x="371" y="357"/>
      <point x="427" y="444"/>
      <point x="510" y="444" type="curve" smooth="yes"/>
      <point x="600" y="444"/>
      <point x="655" y="363"/>
      <point x="655" y="247" type="curve" smooth="yes"/>
      <point x="655" y="138"/>
      <point x="599" y="71"/>
      <point x="511" y="71" type="curve" smooth="yes"/>
      <point x="438" y="71"/>
      <point x="372" y="146"/>
      <point x="359" y="221" type="curve"/>
      <point x="350" y="221" type="line"/>
      <point x="336" y="145"/>
      <point x="271" y="71"/>
      <point x="198" y="71" type="curve" smooth="yes"/>
      <point x="147" y="71"/>
      <point x="112" y="104"/>
      <point x="110" y="156" type="curve"/>
      <point x="112" y="201"/>
      <point x="141" y="227"/>
      <point x="176" y="227" type="curve" smooth="yes"/>
      <point x="208" y="227"/>
      <point x="233" y="217"/>
      <point x="242" y="193" type="curve"/>
      <point x="258" y="208" type="line"/>
      <point x="247" y="250"/>
      <point x="223" y="287"/>
      <point x="173" y="287" type="curve" smooth="yes"/>
      <point x="115" y="287"/>
      <point x="72" y="232"/>
      <point x="70" y="143" type="curve"/>
      <point x="72" y="56"/>
      <point x="121" y="-14"/>
      <point x="193" y="-14" type="curve" smooth="yes"/>
    </contour>
  </outline>
</glyph>
<glyph name="knAU" format="1">
  <advance width="700"/>
  <unicode hex="0C94"/>
  <outline>
    <contour>
      <point x="281" y="-14"/>
      <point x="349" y="43"/>
      <point x="372" y="126" type="curve"/>
      <point x="374" y="126" type="line"/>
      <point x="397" y="43"/>
      <point x="465" y="-14"/>
      <point x="533" y="-14" type="curve" smooth="yes"/>
      <point x="599" y="-14"/>
      <point x="660" y="38"/>
      <point x="660" y="125" type="curve" smooth="yes"/>
      <point x="660" y="172"/>
      <point x="631" y="222"/>
      <point x="597" y="251" type="curve"/>
      <point x="576" y="236" type="line"/>
      <point x="600" y="212"/>
      <point x="612" y="183"/>
      <point x="612" y="154" type="curve" smooth="yes"/>
      <point x="612" y="116"/>
      <point x="587" y="71"/>
      <point x="529" y="71" type="curve" smooth="yes"/>
      <point x="456" y="71"/>
      <point x="390" y="146"/>
      <point x="377" y="221" type="curve"/>
      <point x="368" y="221" type="line"/>
      <point x="354" y="145"/>
      <point x="289" y="71"/>
      <point x="216" y="71" type="curve" smooth="yes"/>
      <point x="163" y="71"/>
      <point x="136" y="114"/>
      <point x="136" y="156" type="curve" smooth="yes"/>
      <point x="136" y="187"/>
      <point x="160" y="223"/>
      <point x="194" y="257" type="curve" smooth="yes"/>
      <point x="235" y="298"/>
      <point x="283" y="349"/>
      <point x="283" y="399" type="curve" smooth="yes"/>
      <point x="283" y="465"/>
      <point x="235" y="519"/>
      <point x="159" y="519" type="curve" smooth="yes"/>
      <point x="84" y="519"/>
      <point x="45" y="465"/>
      <point x="45" y="413" type="curve" smooth="yes"/>
      <point x="45" y="381"/>
      <point x="53" y="352"/>
      <point x="74" y="330" type="curve"/>
      <point x="94" y="345" type="line"/>
      <point x="87" y="360"/>
      <point x="84" y="372"/>
      <point x="84" y="383" type="curve" smooth="yes"/>
      <point x="84" y="421"/>
      <point x="107" y="452"/>
      <point x="159" y="452" type="curve" smooth="yes"/>
      <point x="196" y="452"/>
      <point x="230" y="427"/>
      <point x="230" y="385" type="curve" smooth="yes"/>
      <point x="230" y="344"/>
      <point x="199" y="311"/>
      <point x="167" y="278" type="curve" smooth="yes"/>
      <point x="128" y="238"/>
      <point x="85" y="193"/>
      <point x="85" y="125" type="curve" smooth="yes"/>
      <point x="85" y="38"/>
      <point x="146" y="-14"/>
      <point x="213" y="-14" type="curve" smooth="yes"/>
    </contour>
    <contour>
      <point x="585" y="287"/>
      <point x="647" y="364"/>
      <point x="647" y="467" type="curve" smooth="yes"/>
      <point x="647" y="602"/>
      <point x="555" y="698"/>
      <point x="406" y="698" type="curve" smooth="yes"/>
      <point x="56" y="698" type="line"/>
      <point x="56" y="626" type="line"/>
      <point x="283" y="626" type="line"/>
      <point x="284" y="623"/>
      <point x="285" y="618"/>
      <point x="285" y="614" type="curve" smooth="yes"/>
      <point x="285" y="599"/>
      <point x="277" y="578"/>
      <point x="249" y="578" type="curve" smooth="yes"/>
      <point x="56" y="578" type="line"/>
      <point x="56" y="508" type="line"/>
      <point x="210" y="508" type="line"/>
      <point x="231" y="508" type="line" smooth="yes"/>
      <point x="285" y="508"/>
      <point x="325" y="541"/>
      <point x="325" y="586" type="curve" smooth="yes"/>
      <point x="325" y="599"/>
      <point x="322" y="613"/>
      <point x="315" y="626" type="curve"/>
      <point x="406" y="626" type="line" smooth="yes"/>
      <point x="533" y="626"/>
      <point x="613" y="561"/>
      <point x="613" y="467" type="curve" smooth="yes"/>
      <point x="613" y="399"/>
      <point x="565" y="351"/>
      <point x="499" y="351" type="curve" smooth="yes"/>
      <point x="442" y="351"/>
      <point x="405" y="386"/>
      <point x="405" y="433" type="curve" smooth="yes"/>
      <point x="405" y="470"/>
      <point x="425" y="490"/>
      <point x="443" y="490" type="curve" smooth="yes"/>
      <point x="447" y="490"/>
      <point x="448" y="489"/>
      <point x="448" y="483" type="curve" smooth="yes"/>
      <point x="448" y="453"/>
      <point x="466" y="432"/>
      <point x="493" y="432" type="curve" smooth="yes"/>
      <point x="521" y="432"/>
      <point x="542" y="455"/>
      <point x="542" y="484" type="curve" smooth="yes"/>
      <point x="542" y="511"/>
      <point x="517" y="541"/>
      <point x="474" y="541" type="curve" smooth="yes"/>
      <point x="416" y="541"/>
      <point x="369" y="495"/>
      <point x="369" y="418" type="curve" smooth="yes"/>
      <point x="369" y="348"/>
      <point x="423" y="287"/>
      <point x="499" y="287" type="curve" smooth="yes"/>
    </contour>
  </outline>
</glyph>
<glyph name="knKA" format="1">
  <advance width="535"/>
  <unicode hex="0C95"/>
  <outline>
    <contour>
      <point x="363" y="-14"/>
      <point x="436" y="64"/>
      <point x="436" y="159" type="curve" smooth="yes"/>
      <point x="436" y="249"/>
      <point x="363" y="327"/>
      <point x="269" y="327" type="curve" smooth="yes"/>
      <point x="172" y="327"/>
      <point x="99" y="249"/>
      <point x="99" y="159" type="curve" smooth="yes"/>
      <point x="99" y="64"/>
      <point x="172" y="-14"/>
      <point x="269" y="-14" type="curve" smooth="yes"/>
    </contour>
    <contour>
      <point x="197" y="71"/>
      <point x="147" y="117"/>
      <point x="147" y="186" type="curve" smooth="yes"/>
      <point x="147" y="252"/>
      <point x="206" y="297"/>
      <point x="269" y="297" type="curve" smooth="yes"/>
      <point x="331" y="297"/>
      <point x="389" y="252"/>
      <point x="389" y="186" type="curve" smooth="yes"/>
      <point x="389" y="117"/>
      <point x="340" y="71"/>
      <point x="269" y="71" type="curve" smooth="yes"/>
    </contour>
    <contour>
      <point x="213" y="294" type="line"/>
      <point x="269" y="306" type="line"/>
      <point x="328" y="294" type="line"/>
      <point x="480" y="294" type="line"/>
      <point x="480" y="360" type="line"/>
      <point x="55" y="360" type="line"/>
      <point x="55" y="294" type="line"/>
    </contour>
    <contour>
      <point x="279" y="331"/>
      <point x="296" y="364"/>
      <point x="296" y="401" type="curve" smooth="yes"/>
      <point x="296" y="438"/>
      <point x="279" y="471"/>
      <point x="239" y="488" type="curve"/>
      <point x="226" y="465" type="line"/>
      <point x="250" y="453"/>
      <point x="262" y="430"/>
      <point x="262" y="401" type="curve" smooth="yes"/>
      <point x="262" y="372"/>
      <point x="246" y="350"/>
      <point x="222" y="337" type="curve"/>
      <point x="239" y="314" type="line"/>
    </contour>
    <contour>
      <point x="345" y="434" type="line" smooth="yes"/>
      <point x="427" y="434"/>
      <point x="480" y="480"/>
      <point x="480" y="552" type="curve" smooth="yes"/>
      <point x="480" y="607"/>
      <point x="449" y="648"/>
      <point x="406" y="664" type="curve"/>
      <point x="391" y="644" type="line"/>
      <point x="415" y="635"/>
      <point x="437" y="610"/>
      <point x="437" y="576" type="curve" smooth="yes"/>
      <point x="437" y="537"/>
      <point x="406" y="509"/>
      <point x="345" y="509" type="curve" smooth="yes"/>
      <point x="55" y="509" type="line"/>
      <point x="55" y="434" type="line"/>
    </contour>
  </outline>
</glyph>
<glyph name="knGA" format="1">
  <advance width="584"/>
  <unicode hex="0C97"/>
  <outline>
    <contour>
      <point x="133" y="0" type="line"/>
      <point x="133" y="78" type="line" smooth="yes"/>
      <point x="133" y="247"/>
      <point x="187" y="438"/>
      <point x="292" y="438" type="curve" smooth="yes"/>
      <point x="397" y="438"/>
      <point x="451" y="247"/>
      <point x="451" y="78" type="curve" smooth="yes"/>
      <point x="451" y="0" type="line"/>
      <point x="529" y="0" type="line"/>
      <point x="529" y="51" type="line" smooth="yes"/>
      <point x="529" y="186"/>
      <point x="466" y="388"/>
      <point x="363" y="449" type="curve"/>
      <point x="292" y="465" type="line"/>
      <point x="221" y="449" type="line"/>
      <point x="118" y="388"/>
      <point x="55" y="186"/>
      <point x="55" y="51" type="curve" smooth="yes"/>
      <point x="55" y="0" type="line"/>
    </contour>
    <contour>
      <point x="227" y="434" type="line"/>
      <point x="292" y="444" type="line"/>
      <point x="358" y="434" type="line"/>
      <point x="388" y="434" type="line" smooth="yes"/>
      <point x="469" y="434"/>
      <point x="523" y="480"/>
      <point x="523" y="552" type="curve" smooth="yes"/>
      <point x="523" y="607"/>
      <point x="492" y="648"/>
      <point x="449" y="664" type="curve"/>
      <point x="434" y="644" type="line"/>
      <point x="458" y="635"/>
      <point x="480" y="610"/>
      <point x="480" y="576" type="curve" smooth="yes"/>
      <point x="480" y="536"/>
      <point x="449" y="509"/>
      <point x="388" y="509" type="curve" smooth="yes"/>
      <point x="67" y="509" type="line"/>
      <point x="67" y="434" type="line"/>
    </contour>
  </outline>
</glyph>
<glyph name="knGHA" format="1">
  <advance width="841"/>
  <unicode hex="0C98"/>
  <outline>
    <contour>
      <point x="251" y="-14"/>
      <point x="321" y="43"/>
      <point x="344" y="126" type="curve"/>
      <point x="346" y="126" type="line"/>
      <point x="369" y="43"/>
      <point x="438" y="-14"/>
      <point x="506" y="-14" type="curve" smooth="yes"/>
      <point x="598" y="-14"/>
      <point x="635" y="84"/>
      <point x="635" y="174" type="curve" smooth="yes"/>
      <point x="635" y="251"/>
      <point x="618" y="335"/>
      <point x="585" y="390" type="curve"/>
      <point x="562" y="372" type="line"/>
      <point x="582" y="330"/>
      <point x="599" y="270"/>
      <point x="599" y="202" type="curve" smooth="yes"/>
      <point x="599" y="141"/>
      <point x="569" y="71"/>
      <point x="493" y="71" type="curve" smooth="yes"/>
      <point x="428" y="71"/>
      <point x="363" y="145"/>
      <point x="349" y="221" type="curve"/>
      <point x="340" y="221" type="line"/>
      <point x="326" y="145"/>
      <point x="261" y="71"/>
      <point x="186" y="71" type="curve" smooth="yes"/>
      <point x="135" y="71"/>
      <point x="100" y="104"/>
      <point x="100" y="156" type="curve" smooth="yes"/>
      <point x="100" y="201"/>
      <point x="129" y="227"/>
      <point x="166" y="227" type="curve" smooth="yes"/>
      <point x="196" y="227"/>
      <point x="221" y="217"/>
      <point x="232" y="193" type="curve"/>
      <point x="248" y="208" type="line"/>
      <point x="235" y="250"/>
      <point x="211" y="287"/>
      <point x="163" y="287" type="curve" smooth="yes"/>
      <point x="103" y="287"/>
      <point x="60" y="232"/>
      <point x="60" y="143" type="curve" smooth="yes"/>
      <point x="60" y="56"/>
      <point x="109" y="-14"/>
      <point x="183" y="-14" type="curve" smooth="yes"/>
    </contour>
    <contour>
      <point x="370" y="-220"/>
      <point x="395" y="-201"/>
      <point x="395" y="-161" type="curve" smooth="yes"/>
      <point x="395" y="-117"/>
      <point x="366" y="-104"/>
      <point x="352" y="16" type="curve"/>
      <point x="336" y="16" type="line"/>
      <point x="323" y="-104"/>
      <point x="292" y="-117"/>
      <point x="292" y="-161" type="curve" smooth="yes"/>
      <point x="292" y="-197"/>
      <point x="317" y="-220"/>
      <point x="344" y="-220" type="curve" smooth="yes"/>
    </contour>
    <contour>
      <point x="376" y="271"/>
      <point x="403" y="298"/>
      <point x="403" y="331" type="curve" smooth="yes"/>
      <point x="403" y="363"/>
      <point x="376" y="390"/>
      <point x="343" y="390" type="curve" smooth="yes"/>
      <point x="309" y="390"/>
      <point x="284" y="363"/>
      <point x="284" y="331" type="curve" smooth="yes"/>
      <point x="284" y="298"/>
      <point x="309" y="271"/>
      <point x="343" y="271" type="curve" smooth="yes"/>
    </contour>
    <contour>
      <point x="551" y="434" type="line" smooth="yes"/>
      <point x="632" y="434"/>
      <point x="686" y="480"/>
      <point x="686" y="552" type="curve" smooth="yes"/>
      <point x="686" y="607"/>
      <point x="655" y="648"/>
      <point x="612" y="664" type="curve"/>
      <point x="597" y="644" type="line"/>
      <point x="621" y="635"/>
      <point x="643" y="610"/>
      <point x="643" y="576" type="curve" smooth="yes"/>
      <point x="643" y="536"/>
      <point x="612" y="509"/>
      <point x="551" y="509" type="curve" smooth="yes"/>
      <point x="60" y="509" type="line"/>
      <point x="60" y="434" type="line"/>
    </contour>
    <contour>
      <point x="766" y="201"/>
      <point x="806" y="248"/>
      <point x="806" y="308" type="curve" smooth="yes"/>
      <point x="806" y="362"/>
      <point x="777" y="411"/>
      <point x="715" y="449" type="curve"/>
      <point x="696" y="429" type="line"/>
      <point x="739" y="399"/>
      <point x="757" y="367"/>
      <point x="757" y="337" type="curve" smooth="yes"/>
      <point x="757" y="301"/>
      <point x="736" y="275"/>
      <point x="703" y="275" type="curve" smooth="yes"/>
      <point x="662" y="275"/>
      <point x="629" y="298"/>
      <point x="585" y="390" type="curve"/>
      <point x="579" y="372" type="line"/>
      <point x="619" y="228"/>
      <point x="660" y="201"/>
      <point x="716" y="201" type="curve" smooth="yes"/>
    </contour>
  </outline>
</glyph>
<glyph name="knCA" format="1">
  <advance width="722"/>
  <unicode hex="0C9A"/>
  <outline>
    <contour>
      <point x="276" y="-14"/>
      <point x="344" y="43"/>
      <point x="367" y="126" type="curve"/>
      <point x="369" y="126" type="line"/>
      <point x="392" y="43"/>
      <point x="460" y="-14"/>
      <point x="528" y="-14" type="curve" smooth="yes"/>
      <point x="594" y="-14"/>
      <point x="655" y="38"/>
      <point x="655" y="125" type="curve" smooth="yes"/>
      <point x="655" y="195"/>
      <point x="609" y="311"/>
      <point x="525" y="327" type="curve"/>
      <point x="506" y="310" type="line"/>
      <point x="566" y="287"/>
      <point x="607" y="221"/>
      <point x="607" y="154" type="curve" smooth="yes"/>
      <point x="607" y="116"/>
      <point x="582" y="71"/>
      <point x="524" y="71" type="curve" smooth="yes"/>
      <point x="451" y="71"/>
      <point x="385" y="146"/>
      <point x="372" y="221" type="curve"/>
      <point x="363" y="221" type="line"/>
      <point x="349" y="145"/>
      <point x="284" y="71"/>
      <point x="211" y="71" type="curve" smooth="yes"/>
      <point x="158" y="71"/>
      <point x="131" y="114"/>
      <point x="131" y="156" type="curve" smooth="yes"/>
      <point x="131" y="187"/>
      <point x="156" y="223"/>
      <point x="189" y="257" type="curve" smooth="yes"/>
      <point x="229" y="298"/>
      <point x="278" y="349"/>
      <point x="278" y="399" type="curve" smooth="yes"/>
      <point x="278" y="465"/>
      <point x="230" y="519"/>
      <point x="154" y="519" type="curve" smooth="yes"/>
      <point x="79" y="519"/>
      <point x="40" y="465"/>
      <point x="40" y="413" type="curve" smooth="yes"/>
      <point x="40" y="381"/>
      <point x="48" y="352"/>
      <point x="69" y="330" type="curve"/>
      <point x="89" y="345" type="line"/>
      <point x="82" y="360"/>
      <point x="79" y="372"/>
      <point x="79" y="383" type="curve" smooth="yes"/>
      <point x="79" y="421"/>
      <point x="102" y="452"/>
      <point x="154" y="452" type="curve" smooth="yes"/>
      <point x="191" y="452"/>
      <point x="225" y="427"/>
      <point x="225" y="385" type="curve" smooth="yes"/>
      <point x="225" y="344"/>
      <point x="194" y="311"/>
      <point x="162" y="278" type="curve" smooth="yes"/>
      <point x="123" y="238"/>
      <point x="80" y="193"/>
      <point x="80" y="125" type="curve" smooth="yes"/>
      <point x="80" y="38"/>
      <point x="141" y="-14"/>
      <point x="208" y="-14" type="curve" smooth="yes"/>
    </contour>
    <contour>
      <point x="666" y="294" type="line"/>
      <point x="666" y="365" type="line"/>
      <point x="390" y="365" type="line"/>
      <point x="390" y="294" type="line"/>
    </contour>
    <contour>
      <point x="566" y="331"/>
      <point x="584" y="363"/>
      <point x="584" y="396" type="curve" smooth="yes"/>
      <point x="584" y="429"/>
      <point x="557" y="462"/>
      <point x="525" y="479" type="curve"/>
      <point x="510" y="448" type="line"/>
      <point x="537" y="437"/>
      <point x="550" y="416"/>
      <point x="550" y="395" type="curve" smooth="yes"/>
      <point x="550" y="374"/>
      <point x="537" y="354"/>
      <point x="510" y="342" type="curve"/>
      <point x="525" y="313" type="line"/>
    </contour>
    <contour>
      <point x="542" y="434" type="line" smooth="yes"/>
      <point x="623" y="434"/>
      <point x="677" y="480"/>
      <point x="677" y="552" type="curve" smooth="yes"/>
      <point x="677" y="607"/>
      <point x="646" y="648"/>
      <point x="603" y="664" type="curve"/>
      <point x="588" y="644" type="line"/>
      <point x="612" y="635"/>
      <point x="634" y="610"/>
      <point x="634" y="576" type="curve" smooth="yes"/>
      <point x="634" y="536"/>
      <point x="603" y="509"/>
      <point x="542" y="509" type="curve" smooth="yes"/>
      <point x="390" y="509" type="line"/>
      <point x="390" y="434" type="line"/>
    </contour>
  </outline>
</glyph>
<glyph name="knCHA" format="1">
  <advance width="801"/>
  <unicode hex="0C9B"/>
  <outline>
    <contour>
      <point x="318" y="-14"/>
      <point x="386" y="43"/>
      <point x="409" y="126" type="curve"/>
      <point x="411" y="126" type="line"/>
      <point x="434" y="43"/>
      <point x="502" y="-14"/>
      <point x="572" y="-14" type="curve" smooth="yes"/>
      <point x="683" y="-14"/>
      <point x="745" y="78"/>
      <point x="745" y="224" type="curve" smooth="yes"/>
      <point x="745" y="416"/>
      <point x="591" y="509"/>
      <point x="458" y="509" type="curve"/>
      <point x="498" y="434" type="line"/>
      <point x="627" y="434"/>
      <point x="706" y="372"/>
      <point x="706" y="237" type="curve" smooth="yes"/>
      <point x="706" y="158"/>
      <point x="664" y="71"/>
      <point x="566" y="71" type="curve" smooth="yes"/>
      <point x="493" y="71"/>
      <point x="427" y="146"/>
      <point x="414" y="221" type="curve"/>
      <point x="405" y="221" type="line"/>
      <point x="391" y="145"/>
      <point x="323" y="71"/>
      <point x="248" y="71" type="curve" smooth="yes"/>
      <point x="157" y="71"/>
      <point x="100" y="149"/>
      <point x="100" y="272" type="curve" smooth="yes"/>
      <point x="100" y="365"/>
      <point x="142" y="454"/>
      <point x="235" y="454" type="curve" smooth="yes"/>
      <point x="273" y="454"/>
      <point x="307" y="440"/>
      <point x="307" y="401" type="curve" smooth="yes"/>
      <point x="307" y="365"/>
      <point x="279" y="344"/>
      <point x="232" y="344" type="curve" smooth="yes"/>
      <point x="190" y="344"/>
      <point x="159" y="365"/>
      <point x="159" y="408" type="curve" smooth="yes"/>
      <point x="159" y="419"/>
      <point x="163" y="440"/>
      <point x="166" y="450" type="curve"/>
      <point x="177" y="475"/>
      <point x="172" y="501"/>
      <point x="157" y="497" type="curve"/>
      <point x="135" y="429" type="line"/>
      <point x="132" y="407"/>
      <point x="131" y="394"/>
      <point x="131" y="381" type="curve" smooth="yes"/>
      <point x="131" y="308"/>
      <point x="174" y="273"/>
      <point x="232" y="273" type="curve" smooth="yes"/>
      <point x="295" y="273"/>
      <point x="337" y="325"/>
      <point x="337" y="391" type="curve" smooth="yes"/>
      <point x="337" y="457"/>
      <point x="301" y="519"/>
      <point x="230" y="519" type="curve" smooth="yes"/>
      <point x="128" y="519"/>
      <point x="60" y="392"/>
      <point x="60" y="261" type="curve" smooth="yes"/>
      <point x="60" y="82"/>
      <point x="137" y="-14"/>
      <point x="248" y="-14" type="curve" smooth="yes"/>
    </contour>
    <contour>
      <point x="437" y="-220"/>
      <point x="462" y="-201"/>
      <point x="462" y="-161" type="curve" smooth="yes"/>
      <point x="462" y="-117"/>
      <point x="433" y="-104"/>
      <point x="419" y="16" type="curve"/>
      <point x="403" y="16" type="line"/>
      <point x="390" y="-104"/>
      <point x="359" y="-117"/>
      <point x="359" y="-161" type="curve" smooth="yes"/>
      <point x="359" y="-197"/>
      <point x="384" y="-220"/>
      <point x="411" y="-220" type="curve" smooth="yes"/>
    </contour>
    <contour>
      <point x="611" y="434" type="line" smooth="yes"/>
      <point x="692" y="434"/>
      <point x="746" y="480"/>
      <point x="746" y="552" type="curve" smooth="yes"/>
      <point x="746" y="607"/>
      <point x="715" y="648"/>
      <point x="672" y="664" type="curve"/>
      <point x="657" y="644" type="line"/>
      <point x="681" y="635"/>
      <point x="703" y="610"/>
      <point x="703" y="576" type="curve" smooth="yes"/>
      <point x="703" y="536"/>
      <point x="672" y="509"/>
      <point x="611" y="509" type="curve" smooth="yes"/>
      <point x="450" y="509" type="line"/>
      <point x="450" y="434" type="line"/>
    </contour>
  </outline>
</glyph>
<glyph name="knJA" format="1">
  <advance width="695"/>
  <unicode hex="0C9C"/>
  <outline>
    <contour>
      <point x="276" y="-14"/>
      <point x="344" y="43"/>
      <point x="367" y="126" type="curve"/>
      <point x="369" y="126" type="line"/>
      <point x="392" y="43"/>
      <point x="460" y="-14"/>
      <point x="528" y="-14" type="curve" smooth="yes"/>
      <point x="594" y="-14"/>
      <point x="655" y="38"/>
      <point x="655" y="125" type="curve" smooth="yes"/>
      <point x="655" y="172"/>
      <point x="626" y="222"/>
      <point x="592" y="251" type="curve"/>
      <point x="571" y="236" type="line"/>
      <point x="595" y="212"/>
      <point x="607" y="183"/>
      <point x="607" y="154" type="curve" smooth="yes"/>
      <point x="607" y="116"/>
      <point x="582" y="71"/>
      <point x="524" y="71" type="curve" smooth="yes"/>
      <point x="451" y="71"/>
      <point x="385" y="146"/>
      <point x="372" y="221" type="curve"/>
      <point x="363" y="221" type="line"/>
      <point x="349" y="145"/>
      <point x="284" y="71"/>
      <point x="211" y="71" type="curve" smooth="yes"/>
      <point x="158" y="71"/>
      <point x="131" y="114"/>
      <point x="131" y="156" type="curve" smooth="yes"/>
      <point x="131" y="187"/>
      <point x="155" y="223"/>
      <point x="189" y="257" type="curve" smooth="yes"/>
      <point x="230" y="298"/>
      <point x="278" y="349"/>
      <point x="278" y="399" type="curve" smooth="yes"/>
      <point x="278" y="465"/>
      <point x="230" y="519"/>
      <point x="154" y="519" type="curve" smooth="yes"/>
      <point x="79" y="519"/>
      <point x="40" y="465"/>
      <point x="40" y="413" type="curve" smooth="yes"/>
      <point x="40" y="381"/>
      <point x="48" y="352"/>
      <point x="69" y="330" type="curve"/>
      <point x="89" y="345" type="line"/>
      <point x="82" y="360"/>
      <point x="79" y="372"/>
      <point x="79" y="383" type="curve" smooth="yes"/>
      <point x="79" y="421"/>
      <point x="102" y="452"/>
      <point x="154" y="452" type="curve" smooth="yes"/>
      <point x="191" y="452"/>
      <point x="225" y="427"/>
      <point x="225" y="385" type="curve" smooth="yes"/>
      <point x="225" y="344"/>
      <point x="194" y="311"/>
      <point x="162" y="278" type="curve" smooth="yes"/>
      <point x="123" y="238"/>
      <point x="80" y="193"/>
      <point x="80" y="125" type="curve" smooth="yes"/>
      <point x="80" y="38"/>
      <point x="141" y="-14"/>
      <point x="208" y="-14" type="curve" smooth="yes"/>
    </contour>
    <contour>
      <point x="544" y="287"/>
      <point x="597" y="339"/>
      <point x="597" y="414" type="curve" smooth="yes"/>
      <point x="597" y="458"/>
      <point x="575" y="503"/>
      <point x="538" y="536" type="curve"/>
      <point x="519" y="519" type="line"/>
      <point x="544" y="494"/>
      <point x="555" y="469"/>
      <point x="555" y="443" type="curve" smooth="yes"/>
      <point x="555" y="387"/>
      <point x="515" y="360"/>
      <point x="461" y="360" type="curve" smooth="yes"/>
      <point x="395" y="360"/>
      <point x="325" y="393"/>
      <point x="246" y="480" type="curve"/>
      <point x="214" y="477" type="line"/>
      <point x="301" y="356"/>
      <point x="387" y="287"/>
      <point x="469" y="287" type="curve" smooth="yes"/>
    </contour>
  </outline>
</glyph>
<glyph name="knTTA" format="1">
  <advance width="805"/>
  <unicode hex="0C9F"/>
  <outline>
    <contour>
      <point x="318" y="-14"/>
      <point x="386" y="43"/>
      <point x="409" y="126" type="curve"/>
      <point x="411" y="126" type="line"/>
      <point x="434" y="43"/>
      <point x="502" y="-14"/>
      <point x="572" y="-14" type="curve" smooth="yes"/>
      <point x="683" y="-14"/>
      <point x="745" y="78"/>
      <point x="745" y="214" type="curve" smooth="yes"/>
      <point x="745" y="329"/>
      <point x="683" y="409"/>
      <point x="575" y="425" type="curve"/>
      <point x="545" y="425" type="line"/>
      <point x="561" y="386" type="line"/>
      <point x="659" y="378"/>
      <point x="706" y="302"/>
      <point x="706" y="227" type="curve" smooth="yes"/>
      <point x="706" y="138"/>
      <point x="654" y="71"/>
      <point x="566" y="71" type="curve" smooth="yes"/>
      <point x="493" y="71"/>
      <point x="427" y="146"/>
      <point x="414" y="221" type="curve"/>
      <point x="405" y="221" type="line"/>
      <point x="391" y="145"/>
      <point x="323" y="71"/>
      <point x="248" y="71" type="curve" smooth="yes"/>
      <point x="157" y="71"/>
      <point x="100" y="149"/>
      <point x="100" y="252" type="curve" smooth="yes"/>
      <point x="100" y="345"/>
      <point x="142" y="414"/>
      <point x="235" y="414" type="curve" smooth="yes"/>
      <point x="273" y="414"/>
      <point x="307" y="400"/>
      <point x="307" y="361" type="curve" smooth="yes"/>
      <point x="307" y="325"/>
      <point x="279" y="304"/>
      <point x="232" y="304" type="curve" smooth="yes"/>
      <point x="190" y="304"/>
      <point x="159" y="325"/>
      <point x="159" y="368" type="curve" smooth="yes"/>
      <point x="159" y="379"/>
      <point x="163" y="400"/>
      <point x="166" y="410" type="curve"/>
      <point x="135" y="389" type="line"/>
      <point x="132" y="367"/>
      <point x="131" y="354"/>
      <point x="131" y="341" type="curve" smooth="yes"/>
      <point x="131" y="268"/>
      <point x="174" y="233"/>
      <point x="232" y="233" type="curve" smooth="yes"/>
      <point x="295" y="233"/>
      <point x="337" y="285"/>
      <point x="337" y="351" type="curve" smooth="yes"/>
      <point x="337" y="417"/>
      <point x="301" y="479"/>
      <point x="230" y="479" type="curve" smooth="yes"/>
      <point x="128" y="479"/>
      <point x="60" y="372"/>
      <point x="60" y="241" type="curve" smooth="yes"/>
      <point x="60" y="82"/>
      <point x="137" y="-14"/>
      <point x="248" y="-14" type="curve" smooth="yes"/>
    </contour>
    <contour>
      <point x="234" y="468" type="line"/>
      <point x="192" y="497"/>
      <point x="174" y="524"/>
      <point x="174" y="561" type="curve" smooth="yes"/>
      <point x="174" y="606"/>
      <point x="197" y="637"/>
      <point x="249" y="649" type="curve"/>
      <point x="240" y="671" type="line"/>
      <point x="156" y="666"/>
      <point x="110" y="620"/>
      <point x="110" y="566" type="curve" smooth="yes"/>
      <point x="110" y="511"/>
      <point x="159" y="471"/>
      <point x="213" y="452" type="curve"/>
    </contour>
    <contour>
      <point x="643" y="441"/>
      <point x="703" y="488"/>
      <point x="703" y="554" type="curve" smooth="yes"/>
      <point x="703" y="613"/>
      <point x="658" y="663"/>
      <point x="572" y="671" type="curve"/>
      <point x="560" y="651" type="line"/>
      <point x="613" y="636"/>
      <point x="642" y="602"/>
      <point x="642" y="557" type="curve" smooth="yes"/>
      <point x="642" y="509"/>
      <point x="611" y="464"/>
      <point x="545" y="425" type="curve"/>
      <point x="577" y="407" type="line"/>
    </contour>
  </outline>
</glyph>
<glyph name="knNNA" format="1">
  <advance width="800"/>
  <unicode hex="0CA3"/>
  <outline>
    <contour>
      <point x="259" y="-14"/>
      <point x="297" y="78"/>
      <point x="300" y="139" type="curve"/>
      <point x="277" y="151" type="line"/>
      <point x="256" y="88"/>
      <point x="223" y="66"/>
      <point x="178" y="66" type="curve" smooth="yes"/>
      <point x="135" y="66"/>
      <point x="112" y="90"/>
      <point x="112" y="124" type="curve" smooth="yes"/>
      <point x="112" y="172"/>
      <point x="156" y="217"/>
      <point x="243" y="231" type="curve"/>
      <point x="243" y="240" type="line"/>
      <point x="162" y="255"/>
      <point x="111" y="302"/>
      <point x="111" y="357" type="curve" smooth="yes"/>
      <point x="111" y="407"/>
      <point x="146" y="441"/>
      <point x="206" y="441" type="curve" smooth="yes"/>
      <point x="283" y="441"/>
      <point x="342" y="366"/>
      <point x="356" y="283" type="curve"/>
      <point x="365" y="283" type="line"/>
      <point x="378" y="365"/>
      <point x="443" y="441"/>
      <point x="527" y="441" type="curve" smooth="yes"/>
      <point x="640" y="441"/>
      <point x="705" y="357"/>
      <point x="705" y="249" type="curve" smooth="yes"/>
      <point x="705" y="128"/>
      <point x="633" y="71"/>
      <point x="560" y="71" type="curve" smooth="yes"/>
      <point x="498" y="71"/>
      <point x="459" y="104"/>
      <point x="459" y="156" type="curve" smooth="yes"/>
      <point x="459" y="201"/>
      <point x="488" y="227"/>
      <point x="525" y="227" type="curve" smooth="yes"/>
      <point x="555" y="227"/>
      <point x="580" y="217"/>
      <point x="591" y="193" type="curve"/>
      <point x="607" y="208" type="line"/>
      <point x="594" y="250"/>
      <point x="570" y="287"/>
      <point x="522" y="287" type="curve" smooth="yes"/>
      <point x="462" y="287"/>
      <point x="419" y="237"/>
      <point x="419" y="148" type="curve" smooth="yes"/>
      <point x="419" y="51"/>
      <point x="481" y="-14"/>
      <point x="562" y="-14" type="curve" smooth="yes"/>
      <point x="666" y="-14"/>
      <point x="740" y="97"/>
      <point x="740" y="235" type="curve" smooth="yes"/>
      <point x="740" y="392"/>
      <point x="661" y="519"/>
      <point x="539" y="519" type="curve" smooth="yes"/>
      <point x="453" y="519"/>
      <point x="385" y="461"/>
      <point x="362" y="377" type="curve"/>
      <point x="359" y="377" type="line"/>
      <point x="336" y="461"/>
      <point x="274" y="519"/>
      <point x="198" y="519" type="curve" smooth="yes"/>
      <point x="123" y="519"/>
      <point x="65" y="464"/>
      <point x="65" y="385" type="curve" smooth="yes"/>
      <point x="65" y="312"/>
      <point x="124" y="246"/>
      <point x="171" y="238" type="curve"/>
      <point x="109" y="217"/>
      <point x="65" y="164"/>
      <point x="65" y="102" type="curve" smooth="yes"/>
      <point x="65" y="36"/>
      <point x="108" y="-14"/>
      <point x="178" y="-14" type="curve" smooth="yes"/>
    </contour>
  </outline>
</glyph>
<glyph name="knTHA" format="1">
  <advance width="690"/>
  <unicode hex="0CA5"/>
  <outline>
    <contour>
      <point x="253" y="-14"/>
      <point x="321" y="43"/>
      <point x="344" y="126" type="curve"/>
      <point x="346" y="126" type="line"/>
      <point x="369" y="43"/>
      <point x="437" y="-14"/>
      <point x="505" y="-14" type="curve" smooth="yes"/>
      <point x="572" y="-14"/>
      <point x="635" y="33"/>
      <point x="635" y="160" type="curve" smooth="yes"/>
      <point x="635" y="339"/>
      <point x="482" y="467"/>
      <point x="345" y="467" type="curve" smooth="yes"/>
      <point x="208" y="467"/>
      <point x="55" y="339"/>
      <point x="55" y="160" type="curve" smooth="yes"/>
      <point x="55" y="33"/>
      <point x="117" y="-14"/>
      <point x="185" y="-14" type="curve" smooth="yes"/>
    </contour>
    <contour>
      <point x="370" y="-220"/>
      <point x="395" y="-201"/>
      <point x="395" y="-161" type="curve" smooth="yes"/>
      <point x="395" y="-117"/>
      <point x="366" y="-104"/>
      <point x="352" y="16" type="curve"/>
      <point x="336" y="16" type="line"/>
      <point x="323" y="-104"/>
      <point x="292" y="-117"/>
      <point x="292" y="-161" type="curve" smooth="yes"/>
      <point x="292" y="-197"/>
      <point x="317" y="-220"/>
      <point x="344" y="-220" type="curve" smooth="yes"/>
    </contour>
    <contour>
      <point x="138" y="71"/>
      <point x="104" y="114"/>
      <point x="104" y="192" type="curve" smooth="yes"/>
      <point x="104" y="300"/>
      <point x="213" y="441"/>
      <point x="345" y="441" type="curve" smooth="yes"/>
      <point x="477" y="441"/>
      <point x="586" y="300"/>
      <point x="586" y="192" type="curve" smooth="yes"/>
      <point x="586" y="114"/>
      <point x="552" y="71"/>
      <point x="495" y="71" type="curve" smooth="yes"/>
      <point x="429" y="71"/>
      <point x="364" y="145"/>
      <point x="350" y="221" type="curve"/>
      <point x="341" y="221" type="line"/>
      <point x="327" y="145"/>
      <point x="261" y="71"/>
      <point x="196" y="71" type="curve" smooth="yes"/>
    </contour>
    <contour>
      <point x="379" y="256"/>
      <point x="405" y="282"/>
      <point x="405" y="315" type="curve" smooth="yes"/>
      <point x="405" y="348"/>
      <point x="379" y="375"/>
      <point x="345" y="375" type="curve" smooth="yes"/>
      <point x="313" y="375"/>
      <point x="287" y="348"/>
      <point x="287" y="315" type="curve" smooth="yes"/>
      <point x="287" y="282"/>
      <point x="313" y="256"/>
      <point x="345" y="256" type="curve" smooth="yes"/>
    </contour>
    <contour>
      <point x="241" y="434" type="line"/>
      <point x="345" y="444" type="line"/>
      <point x="448" y="434" type="line"/>
      <point x="499" y="434" type="line" smooth="yes"/>
      <point x="580" y="434"/>
      <point x="634" y="480"/>
      <point x="634" y="552" type="curve" smooth="yes"/>
      <point x="634" y="607"/>
      <point x="603" y="648"/>
      <point x="560" y="664" type="curve"/>
      <point x="545" y="644" type="line"/>
      <point x="569" y="635"/>
      <point x="591" y="610"/>
      <point x="591" y="576" type="curve" smooth="yes"/>
      <point x="591" y="536"/>
      <point x="560" y="509"/>
      <point x="499" y="509" type="curve" smooth="yes"/>
      <point x="55" y="509" type="line"/>
      <point x="55" y="434" type="line"/>
    </contour>
  </outline>
</glyph>
<glyph name="knBA" format="1">
  <advance width="724"/>
  <unicode hex="0CAC"/>
  <outline>
    <contour>
      <point x="276" y="-12"/>
      <point x="344" y="45"/>
      <point x="367" y="128" type="curve"/>
      <point x="369" y="128" type="line"/>
      <point x="392" y="45"/>
      <point x="460" y="-12"/>
      <point x="531" y="-12" type="curve" smooth="yes"/>
      <point x="634" y="-12"/>
      <point x="684" y="97"/>
      <point x="684" y="224" type="curve" smooth="yes"/>
      <point x="684" y="397"/>
      <point x="589" y="513"/>
      <point x="518" y="513" type="curve" smooth="yes"/>
      <point x="487" y="513"/>
      <point x="470" y="493"/>
      <point x="470" y="470" type="curve" smooth="yes"/>
      <point x="470" y="451"/>
      <point x="482" y="435"/>
      <point x="498" y="430" type="curve" smooth="yes"/>
      <point x="521" y="423"/>
      <point x="542" y="428"/>
      <point x="566" y="420" type="curve" smooth="yes"/>
      <point x="603" y="407"/>
      <point x="649" y="326"/>
      <point x="649" y="237" type="curve" smooth="yes"/>
      <point x="649" y="131"/>
      <point x="596" y="73"/>
      <point x="524" y="73" type="curve" smooth="yes"/>
      <point x="451" y="73"/>
      <point x="385" y="148"/>
      <point x="372" y="223" type="curve"/>
      <point x="363" y="223" type="line"/>
      <point x="349" y="147"/>
      <point x="284" y="73"/>
      <point x="211" y="73" type="curve" smooth="yes"/>
      <point x="158" y="73"/>
      <point x="131" y="116"/>
      <point x="131" y="158" type="curve" smooth="yes"/>
      <point x="131" y="189"/>
      <point x="156" y="225"/>
      <point x="189" y="259" type="curve" smooth="yes"/>
      <point x="229" y="300"/>
      <point x="278" y="351"/>
      <point x="278" y="401" type="curve" smooth="yes"/>
      <point x="278" y="467"/>
      <point x="230" y="521"/>
      <point x="154" y="521" type="curve" smooth="yes"/>
      <point x="79" y="521"/>
      <point x="40" y="467"/>
      <point x="40" y="415" type="curve" smooth="yes"/>
      <point x="40" y="383"/>
      <point x="48" y="354"/>
      <point x="69" y="332" type="curve"/>
      <point x="89" y="347" type="line"/>
      <point x="82" y="362"/>
      <point x="79" y="374"/>
      <point x="79" y="385" type="curve" smooth="yes"/>
      <point x="79" y="423"/>
      <point x="102" y="454"/>
      <point x="154" y="454" type="curve" smooth="yes"/>
      <point x="191" y="454"/>
      <point x="225" y="429"/>
      <point x="225" y="387" type="curve" smooth="yes"/>
      <point x="225" y="346"/>
      <point x="194" y="313"/>
      <point x="162" y="280" type="curve" smooth="yes"/>
      <point x="123" y="240"/>
      <point x="80" y="195"/>
      <point x="80" y="127" type="curve" smooth="yes"/>
      <point x="80" y="40"/>
      <point x="141" y="-12"/>
      <point x="208" y="-12" type="curve" smooth="yes"/>
    </contour>
  </outline>
</glyph>
<glyph name="knLLA" format="1">
  <advance width="680"/>
  <unicode hex="0CB3"/>
  <outline>
    <contour>
      <point x="403" y="-14"/>
      <point x="447" y="34"/>
      <point x="447" y="97" type="curve" smooth="yes"/>
      <point x="447" y="301"/>
      <point x="85" y="191"/>
      <point x="85" y="363" type="curve" smooth="yes"/>
      <point x="85" y="422"/>
      <point x="151" y="454"/>
      <point x="219" y="454" type="curve" smooth="yes"/>
      <point x="270" y="454"/>
      <point x="285" y="430"/>
      <point x="285" y="413" type="curve" smooth="yes"/>
      <point x="285" y="390"/>
      <point x="265" y="373"/>
      <point x="226" y="373" type="curve" smooth="yes"/>
      <point x="183" y="373"/>
      <point x="163" y="394"/>
      <point x="163" y="427" type="curve" smooth="yes"/>
      <point x="163" y="450"/>
      <point x="168" y="471"/>
      <point x="175" y="477" type="curve"/>
      <point x="151" y="482" type="line"/>
      <point x="139" y="460"/>
      <point x="133" y="436"/>
      <point x="133" y="410" type="curve" smooth="yes"/>
      <point x="133" y="350"/>
      <point x="169" y="310"/>
      <point x="225" y="310" type="curve" smooth="yes"/>
      <point x="291" y="310"/>
      <point x="315" y="363"/>
      <point x="315" y="414" type="curve" smooth="yes"/>
      <point x="315" y="467"/>
      <point x="282" y="519"/>
      <point x="212" y="519" type="curve" smooth="yes"/>
      <point x="115" y="519"/>
      <point x="50" y="460"/>
      <point x="50" y="363" type="curve" smooth="yes"/>
      <point x="50" y="107"/>
      <point x="411" y="207"/>
      <point x="411" y="109" type="curve" smooth="yes"/>
      <point x="411" y="83"/>
      <point x="378" y="71"/>
      <point x="341" y="71" type="curve" smooth="yes"/>
      <point x="298" y="71"/>
      <point x="266" y="85"/>
      <point x="266" y="112" type="curve" smooth="yes"/>
      <point x="266" y="203"/>
      <point x="587" y="186"/>
      <point x="587" y="354" type="curve" smooth="yes"/>
      <point x="587" y="434"/>
      <point x="514" y="471"/>
      <point x="453" y="471" type="curve"/>
      <point x="444" y="434" type="line"/>
      <point x="514" y="434"/>
      <point x="552" y="400"/>
      <point x="552" y="355" type="curve" smooth="yes"/>
      <point x="552" y="211"/>
      <point x="220" y="246"/>
      <point x="220" y="86" type="curve" smooth="yes"/>
      <point x="220" y="28"/>
      <point x="265" y="-14"/>
      <point x="336" y="-14" type="curve" smooth="yes"/>
    </contour>
    <contour>
      <point x="490" y="434" type="line" smooth="yes"/>
      <point x="571" y="434"/>
      <point x="625" y="480"/>
      <point x="625" y="552" type="curve" smooth="yes"/>
      <point x="625" y="607"/>
      <point x="594" y="648"/>
      <point x="551" y="664" type="curve"/>
      <point x="536" y="644" type="line"/>
      <point x="560" y="635"/>
      <point x="582" y="610"/>
      <point x="582" y="576" type="curve" smooth="yes"/>
      <point x="582" y="536"/>
      <point x="551" y="509"/>
      <point x="490" y="509" type="curve" smooth="yes"/>
      <point x="409" y="509" type="line"/>
      <point x="409" y="434" type="line"/>
    </contour>
  </outline>
</glyph>
<glyph name="knSA" format="1">
  <advance width="679"/>
  <unicode hex="0CB8"/>
  <outline>
    <contour>
      <point x="110" y="120"/>
      <point x="162" y="170"/>
      <point x="228" y="170" type="curve" smooth="yes"/>
      <point x="375" y="170"/>
      <point x="397" y="-14"/>
      <point x="510" y="-14" type="curve" smooth="yes"/>
      <point x="587" y="-14"/>
      <point x="620" y="62"/>
      <point x="620" y="150" type="curve" smooth="yes"/>
      <point x="620" y="237"/>
      <point x="591" y="319"/>
      <point x="531" y="377" type="curve"/>
      <point x="508" y="360" type="line"/>
      <point x="550" y="310"/>
      <point x="576" y="249"/>
      <point x="576" y="188" type="curve" smooth="yes"/>
      <point x="576" y="114"/>
      <point x="546" y="71"/>
      <point x="497" y="71" type="curve" smooth="yes"/>
      <point x="379" y="71"/>
      <point x="362" y="247"/>
      <point x="229" y="247" type="curve" smooth="yes"/>
      <point x="134" y="247"/>
      <point x="74" y="144"/>
      <point x="74" y="-6" type="curve"/>
      <point x="103" y="-14" type="line"/>
    </contour>
    <contour>
      <point x="355" y="288"/>
      <point x="377" y="314"/>
      <point x="377" y="347" type="curve" smooth="yes"/>
      <point x="377" y="380"/>
      <point x="355" y="404"/>
      <point x="319" y="404" type="curve" smooth="yes"/>
      <point x="283" y="404"/>
      <point x="261" y="380"/>
      <point x="261" y="347" type="curve" smooth="yes"/>
      <point x="261" y="314"/>
      <point x="283" y="288"/>
      <point x="319" y="288" type="curve" smooth="yes"/>
    </contour>
    <contour>
      <point x="489" y="434" type="line" smooth="yes"/>
      <point x="570" y="434"/>
      <point x="624" y="480"/>
      <point x="624" y="552" type="curve" smooth="yes"/>
      <point x="624" y="607"/>
      <point x="593" y="648"/>
      <point x="550" y="664" type="curve"/>
      <point x="535" y="644" type="line"/>
      <point x="559" y="635"/>
      <point x="581" y="610"/>
      <point x="581" y="576" type="curve" smooth="yes"/>
      <point x="581" y="536"/>
      <point x="550" y="509"/>
      <point x="489" y="509" type="curve" smooth="yes"/>
      <point x="45" y="509" type="line"/>
      <point x="45" y="434" type="line"/>
    </contour>
  </outline>
</glyph>
<glyph name="knHA" format="1">
  <advance width="724"/>
  <unicode hex="0CB9"/>
  <outline>
    <contour>
      <point x="533" y="434" type="line" smooth="yes"/>
      <point x="614" y="434"/>
      <point x="668" y="480"/>
      <point x="668" y="552" type="curve" smooth="yes"/>
      <point x="668" y="607"/>
      <point x="637" y="648"/>
      <point x="594" y="664" type="curve"/>
      <point x="579" y="644" type="line"/>
      <point x="603" y="635"/>
      <point x="625" y="610"/>
      <point x="625" y="576" type="curve" smooth="yes"/>
      <point x="625" y="536"/>
      <point x="594" y="509"/>
      <point x="533" y="509" type="curve" smooth="yes"/>
      <point x="55" y="509" type="line"/>
      <point x="55" y="434" type="line"/>
    </contour>
    <contour>
      <point x="292" y="-14"/>
      <point x="342" y="32"/>
      <point x="368" y="106" type="curve"/>
      <point x="365" y="247" type="line"/>
      <point x="338" y="302"/>
      <point x="296" y="340"/>
      <point x="221" y="340" type="curve" smooth="yes"/>
      <point x="126" y="340"/>
      <point x="55" y="266"/>
      <point x="55" y="162" type="curve" smooth="yes"/>
      <point x="55" y="64"/>
      <point x="126" y="-14"/>
      <point x="221" y="-14" type="curve" smooth="yes"/>
    </contour>
    <contour>
      <point x="159" y="71"/>
      <point x="105" y="113"/>
      <point x="105" y="187" type="curve" smooth="yes"/>
      <point x="105" y="256"/>
      <point x="159" y="302"/>
      <point x="221" y="302" type="curve" smooth="yes"/>
      <point x="289" y="302"/>
      <point x="341" y="259"/>
      <point x="341" y="187" type="curve" smooth="yes"/>
      <point x="341" y="113"/>
      <point x="288" y="71"/>
      <point x="221" y="71" type="curve" smooth="yes"/>
    </contour>
    <contour>
      <point x="380" y="381"/>
      <point x="345" y="448"/>
      <point x="229" y="470" type="curve"/>
      <point x="229" y="435" type="line"/>
      <point x="311" y="427"/>
      <point x="340" y="363"/>
      <point x="340" y="269" type="curve"/>
      <point x="380" y="234" type="line"/>
    </contour>
    <contour>
      <point x="598" y="-14"/>
      <point x="669" y="64"/>
      <point x="669" y="162" type="curve" smooth="yes"/>
      <point x="669" y="266"/>
      <point x="598" y="340"/>
      <point x="503" y="340" type="curve" smooth="yes"/>
      <point x="428" y="340"/>
      <point x="386" y="302"/>
      <point x="359" y="247" type="curve"/>
      <point x="356" y="106" type="line"/>
      <point x="382" y="32"/>
      <point x="431" y="-14"/>
      <point x="503" y="-14" type="curve" smooth="yes"/>
    </contour>
    <contour>
      <point x="435" y="71"/>
      <point x="383" y="113"/>
      <point x="383" y="187" type="curve" smooth="yes"/>
      <point x="383" y="259"/>
      <point x="435" y="302"/>
      <point x="497" y="302" type="curve" smooth="yes"/>
      <point x="565" y="302"/>
      <point x="619" y="256"/>
      <point x="619" y="187" type="curve" smooth="yes"/>
      <point x="619" y="113"/>
      <point x="564" y="71"/>
      <point x="497" y="71" type="curve" smooth="yes"/>
    </contour>
  </outline>
</glyph>
<glyph name="knAvagraha" format="1">
  <advance width="406"/>
  <unicode hex="0CBD"/>
  <outline>
    <contour>
      <point x="289" y="-14"/>
      <point x="361" y="40"/>
      <point x="361" y="127" type="curve" smooth="yes"/>
      <point x="361" y="284"/>
      <point x="90" y="288"/>
      <point x="90" y="383" type="curve" smooth="yes"/>
      <point x="90" y="411"/>
      <point x="112" y="437"/>
      <point x="164" y="437" type="curve" smooth="yes"/>
      <point x="356" y="437" type="line"/>
      <point x="356" y="519" type="line"/>
      <point x="161" y="519" type="line" smooth="yes"/>
      <point x="83" y="519"/>
      <point x="38" y="467"/>
      <point x="38" y="413" type="curve" smooth="yes"/>
      <point x="38" y="380"/>
      <point x="44" y="354"/>
      <point x="63" y="331" type="curve" smooth="yes"/>
      <point x="126" y="258"/>
      <point x="311" y="229"/>
      <point x="311" y="150" type="curve" smooth="yes"/>
      <point x="311" y="116"/>
      <point x="278" y="93"/>
      <point x="220" y="93" type="curve" smooth="yes"/>
      <point x="138" y="93"/>
      <point x="85" y="126"/>
      <point x="59" y="178" type="curve"/>
      <point x="35" y="154" type="line"/>
      <point x="47" y="45"/>
      <point x="115" y="-14"/>
      <point x="206" y="-14" type="curve" smooth="yes"/>
    </contour>
  </outline>
</glyph>
<glyph name="knmU" format="1">
  <advance width="347"/>
  <unicode hex="0CC1"/>
  <outline>
    <contour>
      <point x="207" y="-14"/>
      <point x="287" y="95"/>
      <point x="287" y="242" type="curve" smooth="yes"/>
      <point x="287" y="415"/>
      <point x="191" y="513"/>
      <point x="120" y="513" type="curve" smooth="yes"/>
      <point x="89" y="513"/>
      <point x="72" y="493"/>
      <point x="72" y="470" type="curve" smooth="yes"/>
      <point x="72" y="451"/>
      <point x="84" y="435"/>
      <point x="100" y="430" type="curve" smooth="yes"/>
      <point x="123" y="423"/>
      <point x="144" y="428"/>
      <point x="168" y="420" type="curve" smooth="yes"/>
      <point x="205" y="407"/>
      <point x="252" y="344"/>
      <point x="252" y="255" type="curve" smooth="yes"/>
      <point x="252" y="137"/>
      <point x="182" y="71"/>
      <point x="94" y="71" type="curve" smooth="yes"/>
      <point x="15" y="71"/>
      <point x="-50" y="132"/>
      <point x="-85" y="235" type="curve"/>
      <point x="-105" y="216" type="line"/>
      <point x="-87" y="89"/>
      <point x="-2" y="-14"/>
      <point x="94" y="-14" type="curve" smooth="yes"/>
    </contour>
  </outline>
</glyph>
<glyph name="knmUU" format="1">
  <advance width="715"/>
  <unicode hex="0CC2"/>
  <outline>
    <contour>
      <point x="208" y="-14"/>
      <point x="238" y="103"/>
      <point x="238" y="274" type="curve" smooth="yes"/>
      <point x="238" y="416"/>
      <point x="327" y="437"/>
      <point x="405" y="437" type="curve" smooth="yes"/>
      <point x="499" y="437"/>
      <point x="621" y="357"/>
      <point x="621" y="235" type="curve" smooth="yes"/>
      <point x="621" y="140"/>
      <point x="571" y="71"/>
      <point x="479" y="71" type="curve" smooth="yes"/>
      <point x="408" y="71"/>
      <point x="366" y="112"/>
      <point x="366" y="169" type="curve" smooth="yes"/>
      <point x="366" y="211"/>
      <point x="375" y="237"/>
      <point x="387" y="237" type="curve" smooth="yes"/>
      <point x="392" y="237"/>
      <point x="393" y="232"/>
      <point x="393" y="227" type="curve" smooth="yes"/>
      <point x="393" y="191"/>
      <point x="415" y="165"/>
      <point x="448" y="165" type="curve" smooth="yes"/>
      <point x="483" y="165"/>
      <point x="508" y="194"/>
      <point x="508" y="230" type="curve" smooth="yes"/>
      <point x="508" y="262"/>
      <point x="483" y="299"/>
      <point x="430" y="299" type="curve" smooth="yes"/>
      <point x="351" y="299"/>
      <point x="314" y="233"/>
      <point x="314" y="155" type="curve" smooth="yes"/>
      <point x="314" y="56"/>
      <point x="377" y="-14"/>
      <point x="463" y="-14" type="curve" smooth="yes"/>
      <point x="574" y="-14"/>
      <point x="660" y="82"/>
      <point x="660" y="238" type="curve" smooth="yes"/>
      <point x="660" y="424"/>
      <point x="522" y="519"/>
      <point x="405" y="519" type="curve" smooth="yes"/>
      <point x="312" y="519"/>
      <point x="191" y="456"/>
      <point x="191" y="273" type="curve" smooth="yes"/>
      <point x="191" y="177"/>
      <point x="175" y="71"/>
      <point x="82" y="71" type="curve" smooth="yes"/>
      <point x="1" y="71"/>
      <point x="-49" y="145"/>
      <point x="-78" y="222" type="curve"/>
      <point x="-100" y="182" type="line"/>
      <point x="-91" y="84"/>
      <point x="-4" y="-14"/>
      <point x="85" y="-14" type="curve" smooth="yes"/>
    </contour>
  </outline>
</glyph>
<glyph name="knmvR" format="1">
  <advance width="107"/>
  <unicode hex="0CC3"/>
  <outline>
    <contour>
      <point x="107" y="-308"/>
      <point x="157" y="-239"/>
      <point x="157" y="-157" type="curve" smooth="yes"/>
      <point x="157" y="-73"/>
      <point x="115" y="12"/>
      <point x="74" y="68" type="curve" smooth="yes"/>
      <point x="62" y="85"/>
      <point x="54" y="89"/>
      <point x="44" y="89" type="curve" smooth="yes"/>
      <point x="34" y="89"/>
      <point x="26" y="83"/>
      <point x="26" y="71" type="curve" smooth="yes"/>
      <point x="26" y="55"/>
      <point x="39" y="37"/>
      <point x="70" y="6" type="curve" smooth="yes"/>
      <point x="105" y="-31"/>
      <point x="134" y="-84"/>
      <point x="134" y="-155" type="curve" smooth="yes"/>
      <point x="134" y="-215"/>
      <point x="92" y="-269"/>
      <point x="24" y="-269" type="curve" smooth="yes"/>
      <point x="-36" y="-269"/>
      <point x="-85" y="-229"/>
      <point x="-85" y="-175" type="curve" smooth="yes"/>
      <point x="-85" y="-115"/>
      <point x="-49" y="-91"/>
      <point x="-23" y="-91" type="curve" smooth="yes"/>
      <point x="-4" y="-91"/>
      <point x="11" y="-105"/>
      <point x="11" y="-124" type="curve" smooth="yes"/>
      <point x="11" y="-144"/>
      <point x="0" y="-160"/>
      <point x="-19" y="-160" type="curve" smooth="yes"/>
      <point x="-37" y="-160"/>
      <point x="-50" y="-145"/>
      <point x="-50" y="-123" type="curve" smooth="yes"/>
      <point x="-50" y="-108"/>
      <point x="-44" y="-89"/>
      <point x="-30" y="-76" type="curve"/>
      <point x="-53" y="-77" type="line"/>
      <point x="-63" y="-93"/>
      <point x="-66" y="-108"/>
      <point x="-66" y="-134" type="curve" smooth="yes"/>
      <point x="-66" y="-162"/>
      <point x="-46" y="-188"/>
      <point x="-19" y="-188" type="curve" smooth="yes"/>
      <point x="13" y="-188"/>
      <point x="26" y="-161"/>
      <point x="26" y="-127" type="curve" smooth="yes"/>
      <point x="26" y="-78"/>
      <point x="-2" y="-62"/>
      <point x="-28" y="-62" type="curve" smooth="yes"/>
      <point x="-61" y="-62"/>
      <point x="-105" y="-95"/>
      <point x="-105" y="-175" type="curve" smooth="yes"/>
      <point x="-105" y="-259"/>
      <point x="-41" y="-308"/>
      <point x="21" y="-308" type="curve" smooth="yes"/>
    </contour>
  </outline>
</glyph>
<glyph name="knmAI" format="1">
  <advance width="98"/>
  <unicode hex="0CC8"/>
  <outline>
    <contour>
      <point x="63" y="-308"/>
      <point x="113" y="-245"/>
      <point x="113" y="-177" type="curve"/>
      <point x="113" y="-106"/>
      <point x="54" y="-69"/>
      <point x="18" y="-64" type="curve"/>
      <point x="16" y="-75" type="line"/>
      <point x="52" y="-91"/>
      <point x="90" y="-121"/>
      <point x="90" y="-173" type="curve"/>
      <point x="90" y="-221"/>
      <point x="48" y="-269"/>
      <point x="-20" y="-269" type="curve" smooth="yes"/>
      <point x="-80" y="-269"/>
      <point x="-129" y="-229"/>
      <point x="-129" y="-175" type="curve" smooth="yes"/>
      <point x="-129" y="-115"/>
      <point x="-93" y="-91"/>
      <point x="-67" y="-91" type="curve" smooth="yes"/>
      <point x="-48" y="-91"/>
      <point x="-33" y="-105"/>
      <point x="-33" y="-124" type="curve" smooth="yes"/>
      <point x="-33" y="-144"/>
      <point x="-44" y="-160"/>
      <point x="-63" y="-160" type="curve" smooth="yes"/>
      <point x="-81" y="-160"/>
      <point x="-94" y="-145"/>
      <point x="-94" y="-123" type="curve" smooth="yes"/>
      <point x="-94" y="-108"/>
      <point x="-88" y="-89"/>
      <point x="-74" y="-76" type="curve"/>
      <point x="-97" y="-77" type="line"/>
      <point x="-107" y="-93"/>
      <point x="-110" y="-108"/>
      <point x="-110" y="-134" type="curve" smooth="yes"/>
      <point x="-110" y="-162"/>
      <point x="-90" y="-188"/>
      <point x="-63" y="-188" type="curve" smooth="yes"/>
      <point x="-31" y="-188"/>
      <point x="-18" y="-161"/>
      <point x="-18" y="-127" type="curve" smooth="yes"/>
      <point x="-18" y="-78"/>
      <point x="-46" y="-62"/>
      <point x="-72" y="-62" type="curve" smooth="yes"/>
      <point x="-105" y="-62"/>
      <point x="-149" y="-95"/>
      <point x="-149" y="-175" type="curve" smooth="yes"/>
      <point x="-149" y="-259"/>
      <point x="-85" y="-308"/>
      <point x="-23" y="-308" type="curve" smooth="yes"/>
    </contour>
    <contour>
      <point x="68" y="-61"/>
      <point x="102" y="-36"/>
      <point x="102" y="6" type="curve" smooth="yes"/>
      <point x="102" y="45"/>
      <point x="64" y="71"/>
      <point x="28" y="85" type="curve"/>
      <point x="20" y="73" type="line"/>
      <point x="47" y="61"/>
      <point x="68" y="35"/>
      <point x="68" y="7" type="curve" smooth="yes"/>
      <point x="68" y="-26"/>
      <point x="41" y="-54"/>
      <point x="18" y="-64" type="curve"/>
      <point x="32" y="-76" type="line"/>
    </contour>
    <contour>
      <point x="-121" y="434"/>
      <point x="-67" y="480"/>
      <point x="-67" y="553" type="curve" smooth="yes"/>
      <point x="-67" y="651"/>
      <point x="-145" y="685"/>
      <point x="-202" y="685" type="curve" smooth="yes"/>
      <point x="-257" y="685"/>
      <point x="-285" y="657"/>
      <point x="-285" y="625" type="curve" smooth="yes"/>
      <point x="-285" y="592"/>
      <point x="-262" y="571"/>
      <point x="-228" y="571" type="curve" smooth="yes"/>
      <point x="-194" y="571"/>
      <point x="-173" y="597"/>
      <point x="-173" y="633" type="curve" smooth="yes"/>
      <point x="-173" y="639"/>
      <point x="-171" y="643"/>
      <point x="-167" y="643" type="curve" smooth="yes"/>
      <point x="-154" y="643"/>
      <point x="-110" y="629"/>
      <point x="-110" y="577" type="curve"/>
      <point x="-110" y="530"/>
      <point x="-150" y="509"/>
      <point x="-201" y="509" type="curve"/>
      <point x="-202" y="434" type="line"/>
    </contour>
  </outline>
</glyph>
<glyph name="knmOO" format="1">
  <advance width="1060"/>
  <unicode hex="0CCB"/>
  <outline>
    <contour>
      <point x="209" y="-14"/>
      <point x="239" y="103"/>
      <point x="239" y="274" type="curve"/>
      <point x="239" y="416"/>
      <point x="328" y="437"/>
      <point x="406" y="437" type="curve" smooth="yes"/>
      <point x="500" y="437"/>
      <point x="622" y="357"/>
      <point x="622" y="235" type="curve"/>
      <point x="622" y="140"/>
      <point x="572" y="71"/>
      <point x="480" y="71" type="curve" smooth="yes"/>
      <point x="409" y="71"/>
      <point x="367" y="112"/>
      <point x="367" y="169" type="curve"/>
      <point x="367" y="211"/>
      <point x="376" y="237"/>
      <point x="388" y="237" type="curve" smooth="yes"/>
      <point x="393" y="237"/>
      <point x="394" y="232"/>
      <point x="394" y="227" type="curve" smooth="yes"/>
      <point x="394" y="191"/>
      <point x="416" y="165"/>
      <point x="449" y="165" type="curve" smooth="yes"/>
      <point x="484" y="165"/>
      <point x="509" y="194"/>
      <point x="509" y="230" type="curve" smooth="yes"/>
      <point x="509" y="262"/>
      <point x="484" y="299"/>
      <point x="431" y="299" type="curve" smooth="yes"/>
      <point x="352" y="299"/>
      <point x="315" y="233"/>
      <point x="315" y="155" type="curve"/>
      <point x="315" y="56"/>
      <point x="378" y="-14"/>
      <point x="464" y="-14" type="curve" smooth="yes"/>
      <point x="575" y="-14"/>
      <point x="661" y="82"/>
      <point x="661" y="238" type="curve"/>
      <point x="661" y="424"/>
      <point x="523" y="519"/>
      <point x="406" y="519" type="curve"/>
      <point x="313" y="519"/>
      <point x="192" y="456"/>
      <point x="192" y="273" type="curve"/>
      <point x="192" y="177"/>
      <point x="176" y="71"/>
      <point x="83" y="71" type="curve"/>
      <point x="2" y="71"/>
      <point x="-48" y="145"/>
      <point x="-77" y="222" type="curve"/>
      <point x="-99" y="182" type="line"/>
      <point x="-90" y="84"/>
      <point x="-3" y="-14"/>
      <point x="86" y="-14" type="curve"/>
    </contour>
    <contour>
      <point x="-121" y="434"/>
      <point x="-67" y="480"/>
      <point x="-67" y="553" type="curve" smooth="yes"/>
      <point x="-67" y="651"/>
      <point x="-145" y="685"/>
      <point x="-202" y="685" type="curve" smooth="yes"/>
      <point x="-257" y="685"/>
      <point x="-285" y="657"/>
      <point x="-285" y="625" type="curve" smooth="yes"/>
      <point x="-285" y="592"/>
      <point x="-262" y="571"/>
      <point x="-228" y="571" type="curve" smooth="yes"/>
      <point x="-194" y="571"/>
      <point x="-173" y="597"/>
      <point x="-173" y="633" type="curve" smooth="yes"/>
      <point x="-173" y="639"/>
      <point x="-171" y="643"/>
      <point x="-167" y="643" type="curve" smooth="yes"/>
      <point x="-154" y="643"/>
      <point x="-110" y="629"/>
      <point x="-110" y="577" type="curve"/>
      <point x="-110" y="530"/>
      <point x="-150" y="509"/>
      <point x="-201" y="509" type="curve"/>
      <point x="-202" y="434" type="line"/>
    </contour>
    <contour>
      <point x="927" y="-15" type="line"/>
      <point x="926" y="14" type="line"/>
      <point x="847" y="91"/>
      <point x="803" y="170"/>
      <point x="803" y="240" type="curve"/>
      <point x="803" y="346"/>
      <point x="845" y="408"/>
      <point x="915" y="408" type="curve" smooth="yes"/>
      <point x="953" y="408"/>
      <point x="982" y="386"/>
      <point x="982" y="347" type="curve" smooth="yes"/>
      <point x="982" y="317"/>
      <point x="957" y="287"/>
      <point x="918" y="287" type="curve" smooth="yes"/>
      <point x="883" y="287"/>
      <point x="865" y="314"/>
      <point x="865" y="347" type="curve" smooth="yes"/>
      <point x="865" y="381"/>
      <point x="878" y="408"/>
      <point x="905" y="438" type="curve"/>
      <point x="861" y="420" type="line"/>
      <point x="851" y="392"/>
      <point x="841" y="361"/>
      <point x="841" y="325" type="curve" smooth="yes"/>
      <point x="841" y="267"/>
      <point x="868" y="229"/>
      <point x="916" y="229" type="curve" smooth="yes"/>
      <point x="953" y="229"/>
      <point x="1010" y="269"/>
      <point x="1010" y="345" type="curve" smooth="yes"/>
      <point x="1010" y="421"/>
      <point x="973" y="476"/>
      <point x="908" y="476" type="curve" smooth="yes"/>
      <point x="818" y="476"/>
      <point x="767" y="363"/>
      <point x="767" y="248" type="curve" smooth="yes"/>
      <point x="767" y="151"/>
      <point x="805" y="59"/>
      <point x="874" y="-15" type="curve"/>
    </contour>
  </outline>
</glyph>
<glyph name="knLengthmark" format="1">
  <advance width="345"/>
  <unicode hex="0CD5"/>
  <outline>
    <contour>
      <point x="248" y="-13" type="line"/>
      <point x="144" y="72"/>
      <point x="85" y="164"/>
      <point x="85" y="243" type="curve" smooth="yes"/>
      <point x="85" y="349"/>
      <point x="129" y="411"/>
      <point x="199" y="411" type="curve" smooth="yes"/>
      <point x="248" y="411"/>
      <point x="270" y="389"/>
      <point x="270" y="353" type="curve" smooth="yes"/>
      <point x="270" y="320"/>
      <point x="247" y="296"/>
      <point x="206" y="296" type="curve" smooth="yes"/>
      <point x="173" y="296"/>
      <point x="146" y="319"/>
      <point x="146" y="360" type="curve" smooth="yes"/>
      <point x="146" y="394"/>
      <point x="149" y="411"/>
      <point x="165" y="441" type="curve"/>
      <point x="124" y="419" type="line"/>
      <point x="118" y="391"/>
      <point x="116" y="374"/>
      <point x="116" y="338" type="curve" smooth="yes"/>
      <point x="116" y="280"/>
      <point x="152" y="234"/>
      <point x="206" y="234" type="curve" smooth="yes"/>
      <point x="257" y="234"/>
      <point x="300" y="279"/>
      <point x="300" y="352" type="curve" smooth="yes"/>
      <point x="300" y="425"/>
      <point x="265" y="484"/>
      <point x="195" y="484" type="curve" smooth="yes"/>
      <point x="104" y="484"/>
      <point x="50" y="373"/>
      <point x="50" y="247" type="curve" smooth="yes"/>
      <point x="50" y="150"/>
      <point x="83" y="61"/>
      <point x="145" y="-13" type="curve"/>
    </contour>
  </outline>
</glyph>
<glyph name="knAIlengthmark" format="1">
  <advance width="106"/>
  <unicode hex="0CD6"/>
  <outline>
    <contour>
      <point x="79" y="-308"/>
      <point x="126" y="-242"/>
      <point x="126" y="-169" type="curve" smooth="yes"/>
      <point x="126" y="-118"/>
      <point x="103" y="-71"/>
      <point x="47" y="-36" type="curve"/>
      <point x="16" y="-28" type="line"/>
      <point x="31" y="-52" type="line"/>
      <point x="81" y="-81"/>
      <point x="99" y="-125"/>
      <point x="99" y="-164" type="curve" smooth="yes"/>
      <point x="99" y="-215"/>
      <point x="62" y="-250"/>
      <point x="-13" y="-250" type="curve" smooth="yes"/>
      <point x="-93" y="-250"/>
      <point x="-130" y="-211"/>
      <point x="-130" y="-165" type="curve" smooth="yes"/>
      <point x="-130" y="-115"/>
      <point x="-95" y="-90"/>
      <point x="-64" y="-90" type="curve" smooth="yes"/>
      <point x="-42" y="-90"/>
      <point x="-29" y="-103"/>
      <point x="-29" y="-120" type="curve" smooth="yes"/>
      <point x="-29" y="-136"/>
      <point x="-45" y="-149"/>
      <point x="-68" y="-149" type="curve" smooth="yes"/>
      <point x="-92" y="-149"/>
      <point x="-113" y="-132"/>
      <point x="-113" y="-111" type="curve" smooth="yes"/>
      <point x="-113" y="-96"/>
      <point x="-112" y="-89"/>
      <point x="-109" y="-76" type="curve"/>
      <point x="-122" y="-87" type="line"/>
      <point x="-127" y="-93"/>
      <point x="-129" y="-103"/>
      <point x="-129" y="-122" type="curve" smooth="yes"/>
      <point x="-129" y="-159"/>
      <point x="-101" y="-187"/>
      <point x="-67" y="-187" type="curve" smooth="yes"/>
      <point x="-30" y="-187"/>
      <point x="-6" y="-160"/>
      <point x="-6" y="-123" type="curve" smooth="yes"/>
      <point x="-6" y="-81"/>
      <point x="-27" y="-52"/>
      <point x="-66" y="-52" type="curve" smooth="yes"/>
      <point x="-112" y="-52"/>
      <point x="-155" y="-105"/>
      <point x="-155" y="-165" type="curve" smooth="yes"/>
      <point x="-155" y="-249"/>
      <point x="-99" y="-308"/>
      <point x="-14" y="-308" type="curve" smooth="yes"/>
    </contour>
    <contour>
      <point x="81" y="-35"/>
      <point x="124" y="-4"/>
      <point x="124" y="34" type="curve" smooth="yes"/>
      <point x="124" y="78"/>
      <point x="86" y="112"/>
      <point x="33" y="119" type="curve"/>
      <point x="23" y="102" type="line"/>
      <point x="59" y="96"/>
      <point x="80" y="69"/>
      <point x="80" y="37" type="curve" smooth="yes"/>
      <point x="80" y="6"/>
      <point x="50" y="-14"/>
      <point x="16" y="-28" type="curve"/>
      <point x="38" y="-45" type="line"/>
    </contour>
  </outline>
</glyph>
<glyph name="knLLLA" format="1">
  <advance width="813"/>
  <unicode hex="0CDE"/>
  <outline>
    <contour>
      <point x="318" y="-14"/>
      <point x="382" y="43"/>
      <point x="405" y="126" type="curve"/>
      <point x="407" y="126" type="line"/>
      <point x="430" y="43"/>
      <point x="500" y="-14"/>
      <point x="570" y="-14" type="curve" smooth="yes"/>
      <point x="676" y="-14"/>
      <point x="753" y="82"/>
      <point x="753" y="261" type="curve" smooth="yes"/>
      <point x="753" y="392"/>
      <point x="685" y="519"/>
      <point x="583" y="519" type="curve" smooth="yes"/>
      <point x="512" y="519"/>
      <point x="476" y="457"/>
      <point x="476" y="391" type="curve" smooth="yes"/>
      <point x="476" y="325"/>
      <point x="518" y="273"/>
      <point x="581" y="273" type="curve" smooth="yes"/>
      <point x="639" y="273"/>
      <point x="682" y="308"/>
      <point x="682" y="381" type="curve" smooth="yes"/>
      <point x="682" y="394"/>
      <point x="681" y="407"/>
      <point x="678" y="429" type="curve"/>
      <point x="656" y="497" type="line"/>
      <point x="641" y="501"/>
      <point x="636" y="475"/>
      <point x="647" y="450" type="curve"/>
      <point x="650" y="440"/>
      <point x="654" y="419"/>
      <point x="654" y="408" type="curve" smooth="yes"/>
      <point x="654" y="365"/>
      <point x="623" y="344"/>
      <point x="581" y="344" type="curve" smooth="yes"/>
      <point x="534" y="344"/>
      <point x="506" y="365"/>
      <point x="506" y="401" type="curve" smooth="yes"/>
      <point x="506" y="440"/>
      <point x="540" y="454"/>
      <point x="578" y="454" type="curve" smooth="yes"/>
      <point x="671" y="454"/>
      <point x="713" y="365"/>
      <point x="713" y="272" type="curve" smooth="yes"/>
      <point x="713" y="149"/>
      <point x="656" y="71"/>
      <point x="565" y="71" type="curve" smooth="yes"/>
      <point x="490" y="71"/>
      <point x="423" y="146"/>
      <point x="410" y="221" type="curve"/>
      <point x="401" y="221" type="line"/>
      <point x="387" y="145"/>
      <point x="323" y="71"/>
      <point x="248" y="71" type="curve" smooth="yes"/>
      <point x="157" y="71"/>
      <point x="100" y="149"/>
      <point x="100" y="272" type="curve" smooth="yes"/>
      <point x="100" y="365"/>
      <point x="142" y="454"/>
      <point x="235" y="454" type="curve" smooth="yes"/>
      <point x="273" y="454"/>
      <point x="307" y="440"/>
      <point x="307" y="401" type="curve" smooth="yes"/>
      <point x="307" y="365"/>
      <point x="279" y="344"/>
      <point x="232" y="344" type="curve" smooth="yes"/>
      <point x="190" y="344"/>
      <point x="159" y="365"/>
      <point x="159" y="408" type="curve" smooth="yes"/>
      <point x="159" y="419"/>
      <point x="163" y="440"/>
      <point x="166" y="450" type="curve"/>
      <point x="177" y="475"/>
      <point x="172" y="501"/>
      <point x="157" y="497" type="curve"/>
      <point x="135" y="429" type="line"/>
      <point x="132" y="407"/>
      <point x="131" y="394"/>
      <point x="131" y="381" type="curve" smooth="yes"/>
      <point x="131" y="308"/>
      <point x="174" y="273"/>
      <point x="232" y="273" type="curve" smooth="yes"/>
      <point x="295" y="273"/>
      <point x="337" y="325"/>
      <point x="337" y="391" type="curve" smooth="yes"/>
      <point x="337" y="457"/>
      <point x="301" y="519"/>
      <point x="230" y="519" type="curve" smooth="yes"/>
      <point x="128" y="519"/>
      <point x="60" y="392"/>
      <point x="60" y="261" type="curve" smooth="yes"/>
      <point x="60" y="82"/>
      <point x="137" y="-14"/>
      <point x="248" y="-14" type="curve" smooth="yes"/>
    </contour>
  </outline>
</glyph>
<glyph name="knvLL" format="1">
  <advance width="1380"/>
  <unicode hex="0CE1"/>
  <outline>
    <contour>
      <point x="813" y="-14"/>
      <point x="906" y="105"/>
      <point x="906" y="233" type="curve" smooth="yes"/>
      <point x="906" y="325"/>
      <point x="866" y="399"/>
      <point x="804" y="444" type="curve"/>
      <point x="743" y="435" type="line"/>
      <point x="800" y="418"/>
      <point x="871" y="344"/>
      <point x="871" y="244" type="curve" smooth="yes"/>
      <point x="871" y="129"/>
      <point x="776" y="71"/>
      <point x="644" y="71" type="curve" smooth="yes"/>
      <point x="529" y="71"/>
      <point x="474" y="100"/>
      <point x="474" y="155" type="curve" smooth="yes"/>
      <point x="474" y="236"/>
      <point x="617" y="275"/>
      <point x="617" y="387" type="curve" smooth="yes"/>
      <point x="617" y="464"/>
      <point x="570" y="519"/>
      <point x="494" y="519" type="curve" smooth="yes"/>
      <point x="423" y="519"/>
      <point x="351" y="461"/>
      <point x="328" y="377" type="curve"/>
      <point x="326" y="377" type="line"/>
      <point x="303" y="461"/>
      <point x="238" y="519"/>
      <point x="163" y="519" type="curve" smooth="yes"/>
      <point x="89" y="519"/>
      <point x="40" y="467"/>
      <point x="40" y="391" type="curve" smooth="yes"/>
      <point x="40" y="346"/>
      <point x="59" y="308"/>
      <point x="97" y="269" type="curve"/>
      <point x="119" y="286" type="line"/>
      <point x="96" y="312"/>
      <point x="87" y="329"/>
      <point x="87" y="359" type="curve" smooth="yes"/>
      <point x="87" y="402"/>
      <point x="118" y="442"/>
      <point x="174" y="442" type="curve" smooth="yes"/>
      <point x="259" y="442"/>
      <point x="308" y="358"/>
      <point x="322" y="283" type="curve"/>
      <point x="331" y="283" type="line"/>
      <point x="344" y="358"/>
      <point x="406" y="442"/>
      <point x="489" y="442" type="curve" smooth="yes"/>
      <point x="543" y="442"/>
      <point x="571" y="415"/>
      <point x="571" y="371" type="curve" smooth="yes"/>
      <point x="571" y="278"/>
      <point x="427" y="245"/>
      <point x="427" y="141" type="curve" smooth="yes"/>
      <point x="427" y="56"/>
      <point x="475" y="-14"/>
      <point x="642" y="-14" type="curve" smooth="yes"/>
    </contour>
    <contour>
      <point x="1251" y="-13"/>
      <point x="1325" y="93"/>
      <point x="1325" y="239" type="curve" smooth="yes"/>
      <point x="1325" y="390"/>
      <point x="1255" y="509"/>
      <point x="1017" y="509" type="curve" smooth="yes"/>
      <point x="740" y="509" type="line"/>
      <point x="740" y="434" type="line"/>
      <point x="1026" y="434" type="line" smooth="yes"/>
      <point x="1220" y="434"/>
      <point x="1290" y="346"/>
      <point x="1290" y="236" type="curve" smooth="yes"/>
      <point x="1290" y="130"/>
      <point x="1228" y="69"/>
      <point x="1138" y="69" type="curve" smooth="yes"/>
      <point x="1065" y="69"/>
      <point x="1021" y="112"/>
      <point x="1020" y="170" type="curve" smooth="yes"/>
      <point x="1019" y="212"/>
      <point x="1041" y="238"/>
      <point x="1053" y="238" type="curve" smooth="yes"/>
      <point x="1058" y="238"/>
      <point x="1060" y="234"/>
      <point x="1059" y="228" type="curve"/>
      <point x="1060" y="192"/>
      <point x="1081" y="166"/>
      <point x="1114" y="166" type="curve" smooth="yes"/>
      <point x="1149" y="166"/>
      <point x="1175" y="195"/>
      <point x="1174" y="231" type="curve"/>
      <point x="1175" y="263"/>
      <point x="1150" y="300"/>
      <point x="1095" y="300" type="curve" smooth="yes"/>
      <point x="1023" y="300"/>
      <point x="983" y="236"/>
      <point x="982" y="158" type="curve" smooth="yes"/>
      <point x="983" y="59"/>
      <point x="1043" y="-13"/>
      <point x="1139" y="-13" type="curve" smooth="yes"/>
    </contour>
  </outline>
</glyph>
<glyph name="knmvL" format="1">
  <advance width="68"/>
  <unicode hex="0CE2"/>
  <outline>
    <contour>
      <point x="269" y="-361"/>
      <point x="323" y="-282"/>
      <point x="323" y="-211" type="curve" smooth="yes"/>
      <point x="323" y="-108"/>
      <point x="266" y="-54"/>
      <point x="218" y="-54" type="curve" smooth="yes"/>
      <point x="198" y="-54"/>
      <point x="186" y="-63"/>
      <point x="186" y="-76" type="curve" smooth="yes"/>
      <point x="186" y="-86"/>
      <point x="192" y="-93"/>
      <point x="200" y="-97" type="curve" smooth="yes"/>
      <point x="208" y="-101"/>
      <point x="222" y="-98"/>
      <point x="242" y="-103" type="curve" smooth="yes"/>
      <point x="270" y="-111"/>
      <point x="303" y="-145"/>
      <point x="303" y="-199" type="curve" smooth="yes"/>
      <point x="303" y="-272"/>
      <point x="242" y="-311"/>
      <point x="159" y="-311" type="curve" smooth="yes"/>
      <point x="92" y="-311"/>
      <point x="59" y="-295"/>
      <point x="59" y="-261" type="curve" smooth="yes"/>
      <point x="59" y="-214"/>
      <point x="142" y="-191"/>
      <point x="142" y="-126" type="curve" smooth="yes"/>
      <point x="142" y="-81"/>
      <point x="115" y="-49"/>
      <point x="71" y="-49" type="curve" smooth="yes"/>
      <point x="29" y="-49"/>
      <point x="-13" y="-83"/>
      <point x="-26" y="-132" type="curve"/>
      <point x="-27" y="-132" type="line"/>
      <point x="-42" y="-83"/>
      <point x="-78" y="-49"/>
      <point x="-124" y="-49" type="curve" smooth="yes"/>
      <point x="-166" y="-49"/>
      <point x="-195" y="-79"/>
      <point x="-195" y="-123" type="curve" smooth="yes"/>
      <point x="-195" y="-150"/>
      <point x="-183" y="-172"/>
      <point x="-161" y="-195" type="curve"/>
      <point x="-148" y="-185" type="line"/>
      <point x="-161" y="-170"/>
      <point x="-167" y="-160"/>
      <point x="-167" y="-142" type="curve" smooth="yes"/>
      <point x="-167" y="-117"/>
      <point x="-149" y="-95"/>
      <point x="-116" y="-95" type="curve" smooth="yes"/>
      <point x="-67" y="-95"/>
      <point x="-38" y="-143"/>
      <point x="-30" y="-186" type="curve"/>
      <point x="-24" y="-186" type="line"/>
      <point x="-17" y="-143"/>
      <point x="19" y="-95"/>
      <point x="68" y="-95" type="curve" smooth="yes"/>
      <point x="99" y="-95"/>
      <point x="117" y="-111"/>
      <point x="117" y="-135" type="curve" smooth="yes"/>
      <point x="117" y="-190"/>
      <point x="31" y="-209"/>
      <point x="31" y="-270" type="curve" smooth="yes"/>
      <point x="31" y="-320"/>
      <point x="59" y="-361"/>
      <point x="157" y="-361" type="curve" smooth="yes"/>
    </contour>
    <contour>
      <point x="-10" y="0" type="move" name="_bottom"/>
    </contour>
  </outline>
</glyph>
<glyph name="knTwo" format="1">
  <advance width="498"/>
  <unicode hex="0CE8"/>
  <outline>
    <contour>
      <point x="190" y="415"/>
      <point x="221" y="439"/>
      <point x="267" y="439" type="curve" smooth="yes"/>
      <point x="332" y="439"/>
      <point x="403" y="380"/>
      <point x="403" y="265" type="curve" smooth="yes"/>
      <point x="403" y="147"/>
      <point x="334" y="62"/>
      <point x="190" y="62" type="curve" smooth="yes"/>
      <point x="25" y="62" type="line"/>
      <point x="25" y="-14" type="line"/>
      <point x="167" y="-14" type="line" smooth="yes"/>
      <point x="356" y="-14"/>
      <point x="443" y="105"/>
      <point x="443" y="265" type="curve" smooth="yes"/>
      <point x="443" y="423"/>
      <point x="369" y="519"/>
      <point x="275" y="519" type="curve" smooth="yes"/>
      <point x="194" y="519"/>
      <point x="151" y="450"/>
      <point x="151" y="377" type="curve"/>
      <point x="151" y="301"/>
      <point x="189" y="243"/>
      <point x="247" y="243" type="curve" smooth="yes"/>
      <point x="296" y="243"/>
      <point x="331" y="284"/>
      <point x="338" y="326" type="curve"/>
      <point x="322" y="346" type="line"/>
      <point x="309" y="331"/>
      <point x="286" y="323"/>
      <point x="254" y="323" type="curve" smooth="yes"/>
      <point x="216" y="323"/>
      <point x="190" y="345"/>
      <point x="190" y="377" type="curve"/>
    </contour>
  </outline>
</glyph>
<glyph name="knFive" format="1">
  <advance width="660"/>
  <unicode hex="0CEB"/>
  <outline>
    <contour>
      <point x="244" y="439"/>
      <point x="298" y="380"/>
      <point x="298" y="249" type="curve" smooth="yes"/>
      <point x="298" y="134"/>
      <point x="237" y="69"/>
      <point x="172" y="69" type="curve" smooth="yes"/>
      <point x="131" y="69"/>
      <point x="108" y="85"/>
      <point x="108" y="116" type="curve" smooth="yes"/>
      <point x="108" y="168"/>
      <point x="168" y="197"/>
      <point x="325" y="231" type="curve" smooth="yes"/>
      <point x="512" y="271"/>
      <point x="579" y="325"/>
      <point x="579" y="416" type="curve" smooth="yes"/>
      <point x="579" y="477"/>
      <point x="548" y="518"/>
      <point x="495" y="518" type="curve" smooth="yes"/>
      <point x="443" y="518"/>
      <point x="406" y="471"/>
      <point x="406" y="402" type="curve" smooth="yes"/>
      <point x="406" y="291"/>
      <point x="492" y="212"/>
      <point x="492" y="145" type="curve" smooth="yes"/>
      <point x="492" y="106"/>
      <point x="461" y="79"/>
      <point x="416" y="67" type="curve"/>
      <point x="454" y="-7" type="line"/>
      <point x="502" y="19"/>
      <point x="531" y="67"/>
      <point x="531" y="118" type="curve" smooth="yes"/>
      <point x="531" y="217"/>
      <point x="437" y="293"/>
      <point x="437" y="383" type="curve" smooth="yes"/>
      <point x="437" y="421"/>
      <point x="465" y="439"/>
      <point x="493" y="439" type="curve" smooth="yes"/>
      <point x="523" y="439"/>
      <point x="547" y="424"/>
      <point x="547" y="396" type="curve" smooth="yes"/>
      <point x="547" y="340"/>
      <point x="488" y="299"/>
      <point x="316" y="262" type="curve" smooth="yes"/>
      <point x="141" y="224"/>
      <point x="66" y="184"/>
      <point x="66" y="92" type="curve" smooth="yes"/>
      <point x="66" y="35"/>
      <point x="106" y="-14"/>
      <point x="173" y="-14" type="curve" smooth="yes"/>
      <point x="297" y="-14"/>
      <point x="330" y="124"/>
      <point x="330" y="260" type="curve" smooth="yes"/>
      <point x="330" y="423"/>
      <point x="270" y="519"/>
      <point x="176" y="519" type="curve"/>
      <point x="97" y="519"/>
      <point x="61" y="462"/>
      <point x="61" y="396" type="curve" smooth="yes"/>
      <point x="61" y="319"/>
      <point x="98" y="274"/>
      <point x="155" y="274" type="curve" smooth="yes"/>
      <point x="199" y="274"/>
      <point x="239" y="315"/>
      <point x="245" y="358" type="curve"/>
      <point x="229" y="377" type="line"/>
      <point x="217" y="362"/>
      <point x="193" y="354"/>
      <point x="160" y="354" type="curve" smooth="yes"/>
      <point x="123" y="354"/>
      <point x="98" y="369"/>
      <point x="98" y="396" type="curve" smooth="yes"/>
      <point x="98" y="423"/>
      <point x="120" y="439"/>
      <point x="168" y="439" type="curve"/>
    </contour>
  </outline>
</glyph>
<glyph name="knEight" format="1">
  <advance width="628"/>
  <unicode hex="0CEE"/>
  <outline>
    <contour>
      <point x="361" y="70" type="curve" smooth="yes"/>
      <point x="210" y="70"/>
      <point x="100" y="171"/>
      <point x="100" y="294" type="curve" smooth="yes"/>
      <point x="100" y="387"/>
      <point x="142" y="454"/>
      <point x="235" y="454" type="curve" smooth="yes"/>
      <point x="273" y="454"/>
      <point x="307" y="440"/>
      <point x="307" y="401" type="curve" smooth="yes"/>
      <point x="307" y="365"/>
      <point x="279" y="344"/>
      <point x="232" y="344" type="curve" smooth="yes"/>
      <point x="190" y="344"/>
      <point x="159" y="365"/>
      <point x="159" y="408" type="curve" smooth="yes"/>
      <point x="159" y="419"/>
      <point x="163" y="440"/>
      <point x="166" y="450" type="curve"/>
      <point x="177" y="475"/>
      <point x="172" y="501"/>
      <point x="157" y="497" type="curve"/>
      <point x="135" y="429" type="line"/>
      <point x="132" y="407"/>
      <point x="131" y="394"/>
      <point x="131" y="381" type="curve" smooth="yes"/>
      <point x="131" y="308"/>
      <point x="174" y="273"/>
      <point x="229" y="273" type="curve" smooth="yes"/>
      <point x="295" y="273"/>
      <point x="337" y="325"/>
      <point x="337" y="391" type="curve" smooth="yes"/>
      <point x="337" y="457"/>
      <point x="301" y="519"/>
      <point x="226" y="519" type="curve" smooth="yes"/>
      <point x="128" y="519"/>
      <point x="60" y="414"/>
      <point x="60" y="283" type="curve" smooth="yes"/>
      <point x="60" y="104"/>
      <point x="180" y="-14"/>
      <point x="357" y="-14" type="curve" smooth="yes"/>
      <point x="475" y="-14"/>
      <point x="556" y="51"/>
      <point x="556" y="149" type="curve" smooth="yes"/>
      <point x="556" y="256"/>
      <point x="461" y="306"/>
      <point x="461" y="375" type="curve" smooth="yes"/>
      <point x="461" y="410"/>
      <point x="488" y="434"/>
      <point x="542" y="434" type="curve" smooth="yes"/>
      <point x="583" y="434" type="line"/>
      <point x="583" y="508" type="line"/>
      <point x="536" y="508" type="line" smooth="yes"/>
      <point x="466" y="508"/>
      <point x="420" y="465"/>
      <point x="420" y="395" type="curve" smooth="yes"/>
      <point x="420" y="299"/>
      <point x="508" y="258"/>
      <point x="508" y="176" type="curve" smooth="yes"/>
      <point x="508" y="117"/>
      <point x="460" y="70"/>
    </contour>
  </outline>
</glyph>
<glyph name="zerowidthnonjoiner" format="1">
  <advance width="0"/>
  <unicode hex="200C"/>
  <outline>
    <contour>
      <point x="24" y="-230" type="line"/>
      <point x="24" y="811" type="line"/>
      <point x="-23" y="811" type="line"/>
      <point x="-23" y="-230" type="line"/>
    </contour>
  </outline>
</glyph>
<glyph name="uni2120" format="1">
  <advance width="850"/>
  <unicode hex="2120"/>
  <outline>
    <contour>
      <point x="672" y="584" type="line" smooth="yes"/>
      <point x="675" y="590"/>
      <point x="677" y="593"/>
      <point x="679" y="593" type="curve" smooth="yes"/>
      <point x="681" y="593"/>
      <point x="682" y="590"/>
      <point x="682" y="584" type="curve" smooth="yes"/>
      <point x="682" y="338" type="line" smooth="yes"/>
      <point x="682" y="311"/>
      <point x="676" y="305"/>
      <point x="648" y="302" type="curve"/>
      <point x="634" y="300"/>
      <point x="627" y="295"/>
      <point x="627" y="288" type="curve" smooth="yes"/>
      <point x="627" y="283"/>
      <point x="633" y="280"/>
      <point x="646" y="280" type="curve" smooth="yes"/>
      <point x="797" y="280" type="line" smooth="yes"/>
      <point x="810" y="280"/>
      <point x="816" y="283"/>
      <point x="816" y="288" type="curve" smooth="yes"/>
      <point x="816" y="295"/>
      <point x="808" y="300"/>
      <point x="792" y="303" type="curve"/>
      <point x="760" y="307"/>
      <point x="746" y="314"/>
      <point x="746" y="337" type="curve" smooth="yes"/>
      <point x="746" y="621" type="line" smooth="yes"/>
      <point x="746" y="626"/>
      <point x="748" y="631"/>
      <point x="751" y="634" type="curve"/>
      <point x="753" y="635"/>
      <point x="755" y="637"/>
      <point x="757" y="638" type="curve" smooth="yes"/>
      <point x="759" y="639"/>
      <point x="762" y="641"/>
      <point x="765" y="642" type="curve" smooth="yes"/>
      <point x="768" y="643"/>
      <point x="771" y="643"/>
      <point x="773" y="644" type="curve" smooth="yes"/>
      <point x="775" y="645"/>
      <point x="778" y="646"/>
      <point x="783" y="647" type="curve"/>
      <point x="787" y="648"/>
      <point x="790" y="648"/>
      <point x="793" y="649" type="curve"/>
      <point x="797" y="650"/>
      <point x="809" y="657"/>
      <point x="809" y="664" type="curve" smooth="yes"/>
      <point x="809" y="670"/>
      <point x="804" y="673"/>
      <point x="793" y="673" type="curve" smooth="yes"/>
      <point x="697" y="673" type="line" smooth="yes"/>
      <point x="694" y="673"/>
      <point x="692" y="671"/>
      <point x="689" y="668" type="curve"/>
      <point x="685" y="665"/>
      <point x="684" y="663"/>
      <point x="681" y="658" type="curve"/>
      <point x="679" y="655"/>
      <point x="677" y="653"/>
      <point x="676" y="651" type="curve" smooth="yes"/>
      <point x="675" y="649"/>
      <point x="673" y="646"/>
      <point x="672" y="643" type="curve"/>
      <point x="670" y="640"/>
      <point x="668" y="637"/>
      <point x="667" y="635" type="curve" smooth="yes"/>
      <point x="549" y="399" type="line"/>
      <point x="544" y="390"/>
      <point x="539" y="390"/>
      <point x="534" y="401" type="curve" smooth="yes"/>
      <point x="431" y="612" type="line" smooth="yes"/>
      <point x="412" y="653"/>
      <point x="400" y="673"/>
      <point x="394" y="673" type="curve" smooth="yes"/>
      <point x="292" y="673" type="line" smooth="yes"/>
      <point x="282" y="673"/>
      <point x="277" y="670"/>
      <point x="277" y="664" type="curve" smooth="yes"/>
      <point x="277" y="656"/>
      <point x="280" y="651"/>
      <point x="286" y="650" type="curve"/>
      <point x="326" y="639"/>
      <point x="338" y="626"/>
      <point x="338" y="598" type="curve" smooth="yes"/>
      <point x="338" y="341" type="line" smooth="yes"/>
      <point x="338" y="328"/>
      <point x="326" y="306"/>
      <point x="298" y="302" type="curve" smooth="yes"/>
      <point x="283" y="300"/>
      <point x="276" y="295"/>
      <point x="276" y="288" type="curve" smooth="yes"/>
      <point x="276" y="283"/>
      <point x="282" y="280"/>
      <point x="295" y="280" type="curve" smooth="yes"/>
      <point x="415" y="280" type="line" smooth="yes"/>
      <point x="428" y="280"/>
      <point x="434" y="283"/>
      <point x="434" y="288" type="curve" smooth="yes"/>
      <point x="434" y="295"/>
      <point x="427" y="300"/>
      <point x="413" y="302" type="curve" smooth="yes"/>
      <point x="385" y="307"/>
      <point x="371" y="320"/>
      <point x="371" y="342" type="curve" smooth="yes"/>
      <point x="371" y="573" type="line"/>
      <point x="372" y="581"/>
      <point x="374" y="583"/>
      <point x="378" y="578" type="curve"/>
      <point x="405" y="524"/>
      <point x="445" y="441"/>
      <point x="496" y="328" type="curve" smooth="yes"/>
      <point x="512" y="293"/>
      <point x="521" y="273"/>
      <point x="523" y="269" type="curve"/>
    </contour>
    <contour>
      <point x="229" y="269"/>
      <point x="276" y="325"/>
      <point x="276" y="385" type="curve" smooth="yes"/>
      <point x="276" y="415"/>
      <point x="261" y="441"/>
      <point x="230" y="464" type="curve" smooth="yes"/>
      <point x="212" y="478" type="line" smooth="yes"/>
      <point x="208" y="481"/>
      <point x="202" y="485"/>
      <point x="194" y="490" type="curve"/>
      <point x="185" y="495"/>
      <point x="180" y="499"/>
      <point x="179" y="500" type="curve"/>
      <point x="177" y="501"/>
      <point x="170" y="506"/>
      <point x="158" y="514" type="curve"/>
      <point x="145" y="521"/>
      <point x="136" y="527"/>
      <point x="131" y="531" type="curve"/>
      <point x="120" y="538"/>
      <point x="86" y="559"/>
      <point x="86" y="590" type="curve" smooth="yes"/>
      <point x="86" y="629"/>
      <point x="119" y="656"/>
      <point x="155" y="656" type="curve" smooth="yes"/>
      <point x="190" y="656"/>
      <point x="224" y="638"/>
      <point x="239" y="589" type="curve"/>
      <point x="240" y="581"/>
      <point x="252" y="574"/>
      <point x="256" y="574" type="curve" smooth="yes"/>
      <point x="261" y="574"/>
      <point x="263" y="583"/>
      <point x="263" y="602" type="curve" smooth="yes"/>
      <point x="263" y="613"/>
      <point x="261" y="631"/>
      <point x="256" y="654" type="curve"/>
      <point x="255" y="663"/>
      <point x="251" y="667"/>
      <point x="244" y="668" type="curve" smooth="yes"/>
      <point x="209" y="673"/>
      <point x="183" y="676"/>
      <point x="164" y="676" type="curve" smooth="yes"/>
      <point x="81" y="676"/>
      <point x="37" y="630"/>
      <point x="37" y="582" type="curve" smooth="yes"/>
      <point x="37" y="534"/>
      <point x="72" y="503"/>
      <point x="122" y="471" type="curve" smooth="yes"/>
      <point x="147" y="455"/>
      <point x="164" y="443"/>
      <point x="175" y="436" type="curve"/>
      <point x="195" y="420"/>
      <point x="217" y="394"/>
      <point x="217" y="369" type="curve" smooth="yes"/>
      <point x="217" y="312"/>
      <point x="192" y="290"/>
      <point x="146" y="290" type="curve" smooth="yes"/>
      <point x="100" y="290"/>
      <point x="59" y="343"/>
      <point x="47" y="374" type="curve"/>
      <point x="44" y="381"/>
      <point x="40" y="384"/>
      <point x="33" y="384" type="curve" smooth="yes"/>
      <point x="26" y="384"/>
      <point x="23" y="381"/>
      <point x="23" y="376" type="curve" smooth="yes"/>
      <point x="23" y="365"/>
      <point x="25" y="350"/>
      <point x="28" y="332" type="curve" smooth="yes"/>
      <point x="35" y="296"/>
      <point x="35" y="293"/>
      <point x="52" y="285" type="curve" smooth="yes"/>
      <point x="75" y="274"/>
      <point x="107" y="269"/>
      <point x="148" y="269" type="curve" smooth="yes"/>
    </contour>
  </outline>
</glyph>
<glyph name="uni2127" format="1">
  <advance width="830"/>
  <unicode hex="2127"/>
  <outline>
    <contour>
      <point x="587" y="-14"/>
      <point x="730" y="121"/>
      <point x="730" y="285" type="curve" smooth="yes"/>
      <point x="730" y="405"/>
      <point x="659" y="512"/>
      <point x="555" y="565" type="curve"/>
      <point x="545" y="572"/>
      <point x="542" y="575"/>
      <point x="547" y="576" type="curve" smooth="yes"/>
      <point x="562" y="579"/>
      <point x="586" y="580"/>
      <point x="618" y="580" type="curve" smooth="yes"/>
      <point x="643" y="580" type="line" smooth="yes"/>
      <point x="699" y="580"/>
      <point x="735" y="566"/>
      <point x="751" y="537" type="curve" smooth="yes"/>
      <point x="762" y="517"/>
      <point x="773" y="507"/>
      <point x="782" y="507" type="curve" smooth="yes"/>
      <point x="788" y="507"/>
      <point x="791" y="510"/>
      <point x="791" y="516" type="curve"/>
      <point x="790" y="518" type="line"/>
      <point x="790" y="520" type="line"/>
      <point x="786" y="531"/>
      <point x="781" y="546"/>
      <point x="774" y="565" type="curve" smooth="yes"/>
      <point x="760" y="602"/>
      <point x="752" y="622"/>
      <point x="748" y="641" type="curve" smooth="yes"/>
      <point x="746" y="650"/>
      <point x="742" y="655"/>
      <point x="735" y="655" type="curve"/>
      <point x="655" y="650" type="line"/>
      <point x="579" y="649" type="line"/>
      <point x="480" y="650" type="line" smooth="yes"/>
      <point x="473" y="650"/>
      <point x="471" y="646"/>
      <point x="472" y="639" type="curve" smooth="yes"/>
      <point x="476" y="608"/>
      <point x="486" y="586"/>
      <point x="503" y="573" type="curve" smooth="yes"/>
      <point x="571" y="522"/>
      <point x="630" y="417"/>
      <point x="630" y="321" type="curve" smooth="yes"/>
      <point x="630" y="272"/>
      <point x="621" y="225"/>
      <point x="604" y="180" type="curve" smooth="yes"/>
      <point x="569" y="89"/>
      <point x="495" y="19"/>
      <point x="408" y="19" type="curve" smooth="yes"/>
      <point x="287" y="19"/>
      <point x="200" y="144"/>
      <point x="200" y="273" type="curve" smooth="yes"/>
      <point x="200" y="401"/>
      <point x="248" y="516"/>
      <point x="333" y="579" type="curve" smooth="yes"/>
      <point x="346" y="588"/>
      <point x="358" y="626"/>
      <point x="358" y="640" type="curve" smooth="yes"/>
      <point x="358" y="647"/>
      <point x="355" y="650"/>
      <point x="350" y="650" type="curve" smooth="yes"/>
      <point x="250" y="649" type="line"/>
      <point x="175" y="650" type="line"/>
      <point x="95" y="655" type="line"/>
      <point x="88" y="655"/>
      <point x="84" y="650"/>
      <point x="82" y="639" type="curve"/>
      <point x="79" y="628"/>
      <point x="71" y="604"/>
      <point x="56" y="565" type="curve" smooth="yes"/>
      <point x="49" y="546"/>
      <point x="44" y="531"/>
      <point x="40" y="520" type="curve"/>
      <point x="40" y="518" type="line"/>
      <point x="39" y="516" type="line"/>
      <point x="39" y="510"/>
      <point x="42" y="507"/>
      <point x="48" y="507" type="curve" smooth="yes"/>
      <point x="57" y="507"/>
      <point x="67" y="516"/>
      <point x="78" y="535" type="curve" smooth="yes"/>
      <point x="99" y="572"/>
      <point x="131" y="580"/>
      <point x="187" y="580" type="curve" smooth="yes"/>
      <point x="208" y="580" type="line" smooth="yes"/>
      <point x="242" y="580"/>
      <point x="264" y="579"/>
      <point x="273" y="576" type="curve"/>
      <point x="279" y="573"/>
      <point x="280" y="570"/>
      <point x="277" y="569" type="curve"/>
      <point x="172" y="521"/>
      <point x="100" y="421"/>
      <point x="100" y="305" type="curve" smooth="yes"/>
      <point x="100" y="128"/>
      <point x="245" y="-14"/>
      <point x="416" y="-14" type="curve" smooth="yes"/>
    </contour>
  </outline>
</glyph>
<glyph name="arrowleft" format="1">
  <advance width="1000"/>
  <unicode hex="2190"/>
  <outline>
    <contour>
      <point x="286" y="112"/>
      <point x="290" y="114"/>
      <point x="290" y="119" type="curve" smooth="yes"/>
      <point x="290" y="120"/>
      <point x="290" y="122"/>
      <point x="289" y="123" type="curve"/>
      <point x="268" y="176"/>
      <point x="237" y="225"/>
      <point x="194" y="269" type="curve"/>
      <point x="919" y="269" type="line" smooth="yes"/>
      <point x="932" y="269"/>
      <point x="942" y="280"/>
      <point x="950" y="301" type="curve"/>
      <point x="950" y="302"/>
      <point x="950" y="302"/>
      <point x="950" y="303" type="curve"/>
      <point x="951" y="304" type="line"/>
      <point x="951" y="309"/>
      <point x="944" y="315"/>
      <point x="937" y="315" type="curve" smooth="yes"/>
      <point x="194" y="315" type="line"/>
      <point x="239" y="362"/>
      <point x="271" y="411"/>
      <point x="290" y="461" type="curve"/>
      <point x="291" y="462"/>
      <point x="291" y="464"/>
      <point x="291" y="465" type="curve" smooth="yes"/>
      <point x="291" y="470"/>
      <point x="287" y="472"/>
      <point x="278" y="472" type="curve" smooth="yes"/>
      <point x="269" y="472"/>
      <point x="261" y="468"/>
      <point x="254" y="461" type="curve" smooth="yes"/>
      <point x="181" y="385"/>
      <point x="117" y="333"/>
      <point x="63" y="305" type="curve"/>
      <point x="54" y="301"/>
      <point x="50" y="297"/>
      <point x="50" y="293" type="curve" smooth="yes"/>
      <point x="50" y="288"/>
      <point x="54" y="284"/>
      <point x="62" y="279" type="curve"/>
      <point x="116" y="251"/>
      <point x="180" y="199"/>
      <point x="253" y="123" type="curve" smooth="yes"/>
      <point x="260" y="116"/>
      <point x="268" y="112"/>
      <point x="277" y="112" type="curve" smooth="yes"/>
    </contour>
  </outline>
</glyph>
<glyph name="uni226A" format="1">
  <advance width="836"/>
  <unicode hex="226A"/>
  <outline>
    <contour>
      <point x="792" y="-6" type="line" smooth="yes"/>
      <point x="797" y="-6"/>
      <point x="803" y="1"/>
      <point x="803" y="11" type="curve" smooth="yes"/>
      <point x="803" y="21"/>
      <point x="795" y="47"/>
      <point x="779" y="55" type="curve" smooth="yes"/>
      <point x="399" y="229" type="line"/>
      <point x="396" y="231"/>
      <point x="396" y="233"/>
      <point x="398" y="234" type="curve" smooth="yes"/>
      <point x="771" y="408" type="line" smooth="yes"/>
      <point x="784" y="414"/>
      <point x="795" y="429"/>
      <point x="802" y="454" type="curve"/>
      <point x="805" y="459"/>
      <point x="797" y="469"/>
      <point x="792" y="469" type="curve"/>
      <point x="790" y="468" type="line"/>
      <point x="789" y="468" type="line"/>
      <point x="352" y="268" type="line" smooth="yes"/>
      <point x="335" y="260"/>
      <point x="319" y="234"/>
      <point x="319" y="223" type="curve" smooth="yes"/>
      <point x="319" y="217"/>
      <point x="333" y="208"/>
      <point x="360" y="195" type="curve" smooth="yes"/>
      <point x="789" y="-5" type="line"/>
      <point x="790" y="-6"/>
      <point x="790" y="-6"/>
      <point x="791" y="-6" type="curve" smooth="yes"/>
    </contour>
    <contour>
      <point x="496" y="-6" type="line" smooth="yes"/>
      <point x="501" y="-6"/>
      <point x="507" y="1"/>
      <point x="507" y="11" type="curve" smooth="yes"/>
      <point x="507" y="21"/>
      <point x="499" y="47"/>
      <point x="483" y="55" type="curve" smooth="yes"/>
      <point x="103" y="229" type="line"/>
      <point x="100" y="231"/>
      <point x="100" y="233"/>
      <point x="102" y="234" type="curve" smooth="yes"/>
      <point x="475" y="408" type="line" smooth="yes"/>
      <point x="488" y="414"/>
      <point x="499" y="429"/>
      <point x="506" y="454" type="curve"/>
      <point x="509" y="459"/>
      <point x="501" y="469"/>
      <point x="496" y="469" type="curve"/>
      <point x="494" y="468" type="line"/>
      <point x="493" y="468" type="line"/>
      <point x="56" y="268" type="line" smooth="yes"/>
      <point x="39" y="260"/>
      <point x="23" y="234"/>
      <point x="23" y="223" type="curve" smooth="yes"/>
      <point x="23" y="217"/>
      <point x="37" y="208"/>
      <point x="64" y="195" type="curve" smooth="yes"/>
      <point x="493" y="-5" type="line"/>
      <point x="494" y="-6"/>
      <point x="494" y="-6"/>
      <point x="495" y="-6" type="curve" smooth="yes"/>
    </contour>
  </outline>
</glyph>
<glyph name="uni2A75" format="1">
  <advance width="1200"/>
  <unicode hex="2A75"/>
  <outline>
    <contour>
      <point x="1109" y="314" type="line" smooth="yes"/>
      <point x="1120" y="314"/>
      <point x="1128" y="320"/>
      <point x="1134" y="332" type="curve"/>
      <point x="1135" y="336"/>
      <point x="1137" y="340"/>
      <point x="1139" y="345" type="curve"/>
      <point x="1140" y="350"/>
      <point x="1141" y="353"/>
      <point x="1141" y="355" type="curve" smooth="yes"/>
      <point x="1141" y="358"/>
      <point x="1134" y="364"/>
      <point x="1127" y="364" type="curve" smooth="yes"/>
      <point x="674" y="364" type="line" smooth="yes"/>
      <point x="658" y="364"/>
      <point x="650" y="340"/>
      <point x="650" y="330" type="curve" smooth="yes"/>
      <point x="650" y="320"/>
      <point x="657" y="314"/>
      <point x="664" y="314" type="curve" smooth="yes"/>
    </contour>
    <contour>
      <point x="509" y="143" type="line" smooth="yes"/>
      <point x="522" y="143"/>
      <point x="532" y="155"/>
      <point x="540" y="179" type="curve"/>
      <point x="540" y="180"/>
      <point x="540" y="180"/>
      <point x="540" y="181" type="curve"/>
      <point x="541" y="182" type="line"/>
      <point x="541" y="187"/>
      <point x="534" y="193"/>
      <point x="527" y="193" type="curve" smooth="yes"/>
      <point x="74" y="193" type="line" smooth="yes"/>
      <point x="58" y="193"/>
      <point x="50" y="169"/>
      <point x="50" y="158" type="curve" smooth="yes"/>
      <point x="50" y="147"/>
      <point x="57" y="143"/>
      <point x="64" y="143" type="curve" smooth="yes"/>
    </contour>
    <contour>
      <point x="509" y="314" type="line" smooth="yes"/>
      <point x="520" y="314"/>
      <point x="528" y="320"/>
      <point x="534" y="332" type="curve"/>
      <point x="535" y="336"/>
      <point x="537" y="340"/>
      <point x="539" y="345" type="curve"/>
      <point x="540" y="350"/>
      <point x="541" y="353"/>
      <point x="541" y="355" type="curve" smooth="yes"/>
      <point x="541" y="358"/>
      <point x="534" y="364"/>
      <point x="527" y="364" type="curve" smooth="yes"/>
      <point x="74" y="364" type="line" smooth="yes"/>
      <point x="58" y="364"/>
      <point x="50" y="340"/>
      <point x="50" y="330" type="curve" smooth="yes"/>
      <point x="50" y="320"/>
      <point x="57" y="314"/>
      <point x="64" y="314" type="curve" smooth="yes"/>
    </contour>
    <contour>
      <point x="1109" y="143" type="line" smooth="yes"/>
      <point x="1122" y="143"/>
      <point x="1132" y="155"/>
      <point x="1140" y="179" type="curve"/>
      <point x="1140" y="180"/>
      <point x="1140" y="180"/>
      <point x="1140" y="181" type="curve"/>
      <point x="1141" y="182" type="line"/>
      <point x="1141" y="187"/>
      <point x="1134" y="193"/>
      <point x="1127" y="193" type="curve" smooth="yes"/>
      <point x="674" y="193" type="line" smooth="yes"/>
      <point x="658" y="193"/>
      <point x="650" y="169"/>
      <point x="650" y="158" type="curve" smooth="yes"/>
      <point x="650" y="147"/>
      <point x="657" y="143"/>
      <point x="664" y="143" type="curve" smooth="yes"/>
    </contour>
  </outline>
</glyph>
<glyph name="bar.subs" format="1">
  <advance width="169"/>
  <outline>
    <contour>
      <point x="94" y="-108"/>
      <point x="104" y="-103"/>
      <point x="104" y="-94" type="curve" smooth="yes"/>
      <point x="104" y="391" type="line" smooth="yes"/>
      <point x="104" y="396"/>
      <point x="101" y="399"/>
      <point x="95" y="399" type="curve" smooth="yes"/>
      <point x="87" y="399"/>
      <point x="65" y="391"/>
      <point x="65" y="380" type="curve" smooth="yes"/>
      <point x="65" y="-100" type="line" smooth="yes"/>
      <point x="65" y="-105"/>
      <point x="68" y="-108"/>
      <point x="73" y="-108" type="curve" smooth="yes"/>
    </contour>
  </outline>
</glyph>
<glyph name="daggerdbl.subs" format="1">
  <advance width="440"/>
  <outline>
    <contour>
      <point x="237" y="-118"/>
      <point x="255" y="-105"/>
      <point x="255" y="-88" type="curve" smooth="yes"/>
      <point x="255" y="-67"/>
      <point x="252" y="-46"/>
      <point x="245" y="-25" type="curve" smooth="yes"/>
      <point x="238" y="-4"/>
      <point x="235" y="17"/>
      <point x="235" y="39" type="curve" smooth="yes"/>
      <point x="235" y="46"/>
      <point x="242" y="49"/>
      <point x="255" y="49" type="curve" smooth="yes"/>
      <point x="268" y="49"/>
      <point x="288" y="46"/>
      <point x="313" y="39" type="curve" smooth="yes"/>
      <point x="338" y="32"/>
      <point x="357" y="29"/>
      <point x="368" y="29" type="curve" smooth="yes"/>
      <point x="390" y="29"/>
      <point x="400" y="45"/>
      <point x="400" y="64" type="curve" smooth="yes"/>
      <point x="400" y="87"/>
      <point x="388" y="99"/>
      <point x="365" y="99" type="curve" smooth="yes"/>
      <point x="352" y="99"/>
      <point x="333" y="96"/>
      <point x="308" y="89" type="curve" smooth="yes"/>
      <point x="283" y="82"/>
      <point x="262" y="79"/>
      <point x="246" y="79" type="curve" smooth="yes"/>
      <point x="244" y="79"/>
      <point x="242" y="81"/>
      <point x="239" y="86" type="curve" smooth="yes"/>
      <point x="236" y="91"/>
      <point x="235" y="96"/>
      <point x="235" y="103" type="curve" smooth="yes"/>
      <point x="235" y="110"/>
      <point x="240" y="120"/>
      <point x="251" y="135" type="curve"/>
      <point x="261" y="150"/>
      <point x="266" y="158"/>
      <point x="266" y="161" type="curve" smooth="yes"/>
      <point x="266" y="163"/>
      <point x="262" y="172"/>
      <point x="253" y="189" type="curve" smooth="yes"/>
      <point x="244" y="206"/>
      <point x="239" y="220"/>
      <point x="239" y="232" type="curve" smooth="yes"/>
      <point x="239" y="285" type="line" smooth="yes"/>
      <point x="239" y="299"/>
      <point x="244" y="313"/>
      <point x="253" y="327" type="curve" smooth="yes"/>
      <point x="262" y="341"/>
      <point x="266" y="349"/>
      <point x="266" y="352" type="curve" smooth="yes"/>
      <point x="266" y="355"/>
      <point x="261" y="364"/>
      <point x="251" y="379" type="curve"/>
      <point x="240" y="394"/>
      <point x="235" y="406"/>
      <point x="235" y="413" type="curve" smooth="yes"/>
      <point x="235" y="427"/>
      <point x="239" y="435"/>
      <point x="256" y="435" type="curve" smooth="yes"/>
      <point x="265" y="435"/>
      <point x="282" y="432"/>
      <point x="309" y="425" type="curve" smooth="yes"/>
      <point x="336" y="418"/>
      <point x="358" y="415"/>
      <point x="375" y="415" type="curve" smooth="yes"/>
      <point x="392" y="415"/>
      <point x="400" y="427"/>
      <point x="400" y="450" type="curve" smooth="yes"/>
      <point x="400" y="474"/>
      <point x="395" y="485"/>
      <point x="367" y="485" type="curve" smooth="yes"/>
      <point x="353" y="485"/>
      <point x="333" y="482"/>
      <point x="306" y="475" type="curve" smooth="yes"/>
      <point x="279" y="468"/>
      <point x="261" y="465"/>
      <point x="251" y="465" type="curve" smooth="yes"/>
      <point x="240" y="465"/>
      <point x="235" y="468"/>
      <point x="235" y="475" type="curve" smooth="yes"/>
      <point x="235" y="492"/>
      <point x="238" y="513"/>
      <point x="245" y="538" type="curve" smooth="yes"/>
      <point x="252" y="563"/>
      <point x="255" y="584"/>
      <point x="255" y="601" type="curve" smooth="yes"/>
      <point x="255" y="620"/>
      <point x="243" y="630"/>
      <point x="220" y="630" type="curve" smooth="yes"/>
      <point x="201" y="630"/>
      <point x="185" y="618"/>
      <point x="185" y="601" type="curve" smooth="yes"/>
      <point x="185" y="579"/>
      <point x="188" y="558"/>
      <point x="195" y="538" type="curve" smooth="yes"/>
      <point x="202" y="518"/>
      <point x="205" y="497"/>
      <point x="205" y="475" type="curve" smooth="yes"/>
      <point x="205" y="468"/>
      <point x="198" y="465"/>
      <point x="185" y="465" type="curve" smooth="yes"/>
      <point x="172" y="465"/>
      <point x="152" y="468"/>
      <point x="127" y="475" type="curve" smooth="yes"/>
      <point x="102" y="482"/>
      <point x="84" y="485"/>
      <point x="73" y="485" type="curve" smooth="yes"/>
      <point x="51" y="485"/>
      <point x="40" y="469"/>
      <point x="40" y="450" type="curve" smooth="yes"/>
      <point x="40" y="427"/>
      <point x="51" y="415"/>
      <point x="74" y="415" type="curve" smooth="yes"/>
      <point x="87" y="415"/>
      <point x="106" y="418"/>
      <point x="132" y="425" type="curve" smooth="yes"/>
      <point x="157" y="432"/>
      <point x="178" y="435"/>
      <point x="194" y="435" type="curve" smooth="yes"/>
      <point x="196" y="435"/>
      <point x="198" y="433"/>
      <point x="201" y="428" type="curve" smooth="yes"/>
      <point x="204" y="423"/>
      <point x="205" y="418"/>
      <point x="205" y="411" type="curve" smooth="yes"/>
      <point x="205" y="404"/>
      <point x="200" y="394"/>
      <point x="190" y="379" type="curve"/>
      <point x="179" y="364"/>
      <point x="174" y="355"/>
      <point x="174" y="353" type="curve" smooth="yes"/>
      <point x="174" y="350"/>
      <point x="179" y="341"/>
      <point x="188" y="326" type="curve" smooth="yes"/>
      <point x="197" y="311"/>
      <point x="201" y="297"/>
      <point x="201" y="285" type="curve" smooth="yes"/>
      <point x="201" y="232" type="line" smooth="yes"/>
      <point x="201" y="218"/>
      <point x="197" y="203"/>
      <point x="188" y="188" type="curve" smooth="yes"/>
      <point x="179" y="173"/>
      <point x="174" y="164"/>
      <point x="174" y="161" type="curve" smooth="yes"/>
      <point x="174" y="158"/>
      <point x="179" y="150"/>
      <point x="190" y="135" type="curve"/>
      <point x="200" y="120"/>
      <point x="205" y="109"/>
      <point x="205" y="102" type="curve" smooth="yes"/>
      <point x="205" y="88"/>
      <point x="201" y="79"/>
      <point x="184" y="79" type="curve" smooth="yes"/>
      <point x="175" y="79"/>
      <point x="158" y="82"/>
      <point x="133" y="89" type="curve" smooth="yes"/>
      <point x="108" y="96"/>
      <point x="89" y="99"/>
      <point x="76" y="99" type="curve" smooth="yes"/>
      <point x="50" y="99"/>
      <point x="40" y="84"/>
      <point x="40" y="64" type="curve" smooth="yes"/>
      <point x="40" y="41"/>
      <point x="52" y="29"/>
      <point x="75" y="29" type="curve" smooth="yes"/>
      <point x="91" y="29"/>
      <point x="112" y="32"/>
      <point x="137" y="39" type="curve" smooth="yes"/>
      <point x="162" y="46"/>
      <point x="179" y="49"/>
      <point x="190" y="49" type="curve" smooth="yes"/>
      <point x="200" y="49"/>
      <point x="205" y="46"/>
      <point x="205" y="39" type="curve" smooth="yes"/>
      <point x="205" y="22"/>
      <point x="202" y="1"/>
      <point x="195" y="-24" type="curve" smooth="yes"/>
      <point x="188" y="-50"/>
      <point x="185" y="-71"/>
      <point x="185" y="-88" type="curve" smooth="yes"/>
      <point x="185" y="-108"/>
      <point x="197" y="-118"/>
      <point x="220" y="-118" type="curve" smooth="yes"/>
    </contour>
  </outline>
</glyph>
<glyph name="divide.sc" format="1">
  <advance width="590"/>
  <outline>
    <contour>
      <point x="509" y="232" type="line" smooth="yes"/>
      <point x="520" y="232"/>
      <point x="528" y="238"/>
      <point x="534" y="250" type="curve"/>
      <point x="535" y="254"/>
      <point x="537" y="258"/>
      <point x="539" y="263" type="curve"/>
      <point x="540" y="268"/>
      <point x="541" y="271"/>
      <point x="541" y="273" type="curve" smooth="yes"/>
      <point x="541" y="276"/>
      <point x="534" y="282"/>
      <point x="527" y="282" type="curve" smooth="yes"/>
      <point x="74" y="282" type="line" smooth="yes"/>
      <point x="58" y="282"/>
      <point x="50" y="258"/>
      <point x="50" y="248" type="curve" smooth="yes"/>
      <point x="50" y="238"/>
      <point x="57" y="232"/>
      <point x="64" y="232" type="curve" smooth="yes"/>
    </contour>
    <contour>
      <point x="320" y="69"/>
      <point x="341" y="90"/>
      <point x="341" y="115" type="curve" smooth="yes"/>
      <point x="341" y="140"/>
      <point x="320" y="161"/>
      <point x="295" y="161" type="curve" smooth="yes"/>
      <point x="282" y="161"/>
      <point x="272" y="157"/>
      <point x="263" y="148" type="curve" smooth="yes"/>
      <point x="254" y="139"/>
      <point x="249" y="128"/>
      <point x="249" y="115" type="curve" smooth="yes"/>
      <point x="249" y="90"/>
      <point x="270" y="69"/>
      <point x="295" y="69" type="curve" smooth="yes"/>
    </contour>
    <contour>
      <point x="319" y="353"/>
      <point x="340" y="374"/>
      <point x="340" y="399" type="curve" smooth="yes"/>
      <point x="340" y="424"/>
      <point x="321" y="445"/>
      <point x="295" y="445" type="curve" smooth="yes"/>
      <point x="269" y="445"/>
      <point x="248" y="424"/>
      <point x="248" y="399" type="curve" smooth="yes"/>
      <point x="248" y="374"/>
      <point x="269" y="353"/>
      <point x="294" y="353" type="curve" smooth="yes"/>
    </contour>
  </outline>
</glyph>
<glyph name="greater.ordn" format="1">
  <advance width="354"/>
  <outline>
    <contour>
      <point x="32" y="277" type="line"/>
      <point x="316" y="397" type="line"/>
      <point x="328" y="401"/>
      <point x="337" y="419"/>
      <point x="337" y="425" type="curve" smooth="yes"/>
      <point x="337" y="428"/>
      <point x="328" y="433"/>
      <point x="311" y="441" type="curve" smooth="yes"/>
      <point x="32" y="561" type="line"/>
      <point x="30" y="561" type="line" smooth="yes"/>
      <point x="25" y="561"/>
      <point x="23" y="559"/>
      <point x="23" y="554" type="curve" smooth="yes"/>
      <point x="23" y="539"/>
      <point x="28" y="529"/>
      <point x="38" y="525" type="curve" smooth="yes"/>
      <point x="285" y="420" type="line"/>
      <point x="287" y="419"/>
      <point x="287" y="418"/>
      <point x="286" y="417" type="curve"/>
      <point x="44" y="313" type="line"/>
      <point x="30" y="308"/>
      <point x="23" y="298"/>
      <point x="23" y="284" type="curve" smooth="yes"/>
      <point x="23" y="279"/>
      <point x="25" y="277"/>
      <point x="30" y="277" type="curve" smooth="yes"/>
    </contour>
  </outline>
</glyph>
<glyph name="knBAA" format="1">
  <advance width="1154"/>
  <outline>
    <contour>
      <point x="1020" y="-13"/>
      <point x="1094" y="93"/>
      <point x="1094" y="239" type="curve" smooth="yes"/>
      <point x="1094" y="390"/>
      <point x="1024" y="509"/>
      <point x="786" y="509" type="curve" smooth="yes"/>
      <point x="509" y="509" type="line"/>
      <point x="509" y="434" type="line"/>
      <point x="795" y="434" type="line" smooth="yes"/>
      <point x="989" y="434"/>
      <point x="1059" y="346"/>
      <point x="1059" y="236" type="curve" smooth="yes"/>
      <point x="1059" y="130"/>
      <point x="997" y="69"/>
      <point x="907" y="69" type="curve" smooth="yes"/>
      <point x="834" y="69"/>
      <point x="790" y="112"/>
      <point x="789" y="170" type="curve" smooth="yes"/>
      <point x="788" y="212"/>
      <point x="810" y="238"/>
      <point x="822" y="238" type="curve" smooth="yes"/>
      <point x="827" y="238"/>
      <point x="829" y="234"/>
      <point x="828" y="228" type="curve"/>
      <point x="829" y="192"/>
      <point x="850" y="166"/>
      <point x="883" y="166" type="curve" smooth="yes"/>
      <point x="918" y="166"/>
      <point x="944" y="195"/>
      <point x="943" y="231" type="curve"/>
      <point x="944" y="263"/>
      <point x="919" y="300"/>
      <point x="864" y="300" type="curve" smooth="yes"/>
      <point x="792" y="300"/>
      <point x="752" y="236"/>
      <point x="751" y="158" type="curve" smooth="yes"/>
      <point x="752" y="59"/>
      <point x="812" y="-13"/>
      <point x="908" y="-13" type="curve" smooth="yes"/>
    </contour>
    <component base="knBA.base"/>
  </outline>
</glyph>
<glyph name="knBAU" format="1">
  <advance width="1189"/>
  <outline>
    <contour>
      <point x="276" y="-14"/>
      <point x="344" y="43"/>
      <point x="367" y="126" type="curve"/>
      <point x="369" y="126" type="line"/>
      <point x="392" y="43"/>
      <point x="460" y="-14"/>
      <point x="531" y="-14" type="curve" smooth="yes"/>
      <point x="633" y="-14"/>
      <point x="687" y="84"/>
      <point x="687" y="171" type="curve" smooth="yes"/>
      <point x="687" y="360"/>
      <point x="544" y="470"/>
      <point x="408" y="470" type="curve"/>
      <point x="398" y="434" type="line"/>
      <point x="550" y="424"/>
      <point x="649" y="301"/>
      <point x="649" y="203" type="curve" smooth="yes"/>
      <point x="649" y="121"/>
      <point x="600" y="71"/>
      <point x="524" y="71" type="curve" smooth="yes"/>
      <point x="451" y="71"/>
      <point x="385" y="146"/>
      <point x="372" y="221" type="curve"/>
      <point x="363" y="221" type="line"/>
      <point x="349" y="145"/>
      <point x="284" y="71"/>
      <point x="211" y="71" type="curve" smooth="yes"/>
      <point x="158" y="71"/>
      <point x="131" y="114"/>
      <point x="131" y="156" type="curve" smooth="yes"/>
      <point x="131" y="187"/>
      <point x="156" y="223"/>
      <point x="189" y="257" type="curve" smooth="yes"/>
      <point x="229" y="298"/>
      <point x="278" y="349"/>
      <point x="278" y="399" type="curve" smooth="yes"/>
      <point x="278" y="465"/>
      <point x="230" y="519"/>
      <point x="154" y="519" type="curve" smooth="yes"/>
      <point x="79" y="519"/>
      <point x="40" y="465"/>
      <point x="40" y="413" type="curve" smooth="yes"/>
      <point x="40" y="381"/>
      <point x="48" y="352"/>
      <point x="69" y="330" type="curve"/>
      <point x="89" y="345" type="line"/>
      <point x="82" y="360"/>
      <point x="79" y="372"/>
      <point x="79" y="383" type="curve" smooth="yes"/>
      <point x="79" y="421"/>
      <point x="102" y="452"/>
      <point x="154" y="452" type="curve" smooth="yes"/>
      <point x="191" y="452"/>
      <point x="225" y="427"/>
      <point x="225" y="385" type="curve" smooth="yes"/>
      <point x="225" y="344"/>
      <point x="194" y="311"/>
      <point x="162" y="278" type="curve" smooth="yes"/>
      <point x="123" y="238"/>
      <point x="80" y="193"/>
      <point x="80" y="125" type="curve" smooth="yes"/>
      <point x="80" y="38"/>
      <point x="141" y="-14"/>
      <point x="208" y="-14" type="curve" smooth="yes"/>
    </contour>
    <contour>
      <point x="552" y="434" type="line"/>
      <point x="552" y="509" type="line"/>
      <point x="361" y="509" type="line"/>
      <point x="361" y="434" type="line"/>
    </contour>
    <component base="knmAU" xOffset="760"/>
  </outline>
</glyph>
<glyph name="knBAc2" format="1">
  <advance width="59"/>
  <outline>
    <contour>
      <point x="-65" y="-263" type="line"/>
      <point x="-73" y="-312"/>
      <point x="-110" y="-359"/>
      <point x="-160" y="-359" type="curve" smooth="yes"/>
      <point x="-188" y="-359"/>
      <point x="-206" y="-340"/>
      <point x="-206" y="-317" type="curve" smooth="yes"/>
      <point x="-206" y="-263"/>
      <point x="-113" y="-218"/>
      <point x="-113" y="-151" type="curve" smooth="yes"/>
      <point x="-113" y="-109"/>
      <point x="-135" y="-75"/>
      <point x="-191" y="-75" type="curve" smooth="yes"/>
      <point x="-240" y="-75"/>
      <point x="-265" y="-109"/>
      <point x="-265" y="-144" type="curve" smooth="yes"/>
      <point x="-265" y="-163"/>
      <point x="-259" y="-182"/>
      <point x="-246" y="-195" type="curve"/>
      <point x="-233" y="-186" type="line"/>
      <point x="-238" y="-177"/>
      <point x="-240" y="-169"/>
      <point x="-240" y="-162" type="curve" smooth="yes"/>
      <point x="-240" y="-135"/>
      <point x="-224" y="-118"/>
      <point x="-195" y="-118" type="curve" smooth="yes"/>
      <point x="-160" y="-118"/>
      <point x="-147" y="-135"/>
      <point x="-147" y="-160" type="curve" smooth="yes"/>
      <point x="-147" y="-210"/>
      <point x="-239" y="-247"/>
      <point x="-239" y="-324" type="curve" smooth="yes"/>
      <point x="-239" y="-379"/>
      <point x="-209" y="-412"/>
      <point x="-163" y="-412" type="curve" smooth="yes"/>
      <point x="-118" y="-412"/>
      <point x="-74" y="-379"/>
      <point x="-59" y="-323" type="curve"/>
      <point x="-55" y="-323" type="line"/>
      <point x="-41" y="-379"/>
      <point x="6" y="-412"/>
      <point x="50" y="-412" type="curve" smooth="yes"/>
      <point x="118" y="-412"/>
      <point x="143" y="-343"/>
      <point x="143" y="-263" type="curve" smooth="yes"/>
      <point x="143" y="-60"/>
      <point x="55" y="52"/>
      <point x="20" y="52" type="curve" smooth="yes"/>
      <point x="4" y="52"/>
      <point x="-3" y="46"/>
      <point x="-3" y="31" type="curve" smooth="yes"/>
      <point x="-3" y="18"/>
      <point x="3" y="13"/>
      <point x="14" y="3" type="curve" smooth="yes"/>
      <point x="31" y="-10"/>
      <point x="118" y="-103"/>
      <point x="118" y="-243" type="curve" smooth="yes"/>
      <point x="118" y="-303"/>
      <point x="102" y="-359"/>
      <point x="45" y="-359" type="curve" smooth="yes"/>
      <point x="-1" y="-359"/>
      <point x="-41" y="-312"/>
      <point x="-50" y="-263" type="curve"/>
    </contour>
  </outline>
</glyph>
<glyph name="knBE" format="1">
  <advance width="727"/>
  <outline>
    <contour>
      <point x="633" y="434"/>
      <point x="687" y="480"/>
      <point x="687" y="553" type="curve" smooth="yes"/>
      <point x="687" y="651"/>
      <point x="609" y="685"/>
      <point x="552" y="685" type="curve" smooth="yes"/>
      <point x="497" y="685"/>
      <point x="469" y="657"/>
      <point x="469" y="625" type="curve" smooth="yes"/>
      <point x="469" y="592"/>
      <point x="492" y="571"/>
      <point x="526" y="571" type="curve" smooth="yes"/>
      <point x="560" y="571"/>
      <point x="581" y="597"/>
      <point x="581" y="633" type="curve" smooth="yes"/>
      <point x="581" y="639"/>
      <point x="583" y="643"/>
      <point x="587" y="643" type="curve" smooth="yes"/>
      <point x="600" y="643"/>
      <point x="644" y="629"/>
      <point x="644" y="577" type="curve"/>
      <point x="644" y="530"/>
      <point x="604" y="509"/>
      <point x="553" y="509" type="curve"/>
      <point x="552" y="434" type="line"/>
    </contour>
    <contour>
      <point x="276" y="-14"/>
      <point x="344" y="43"/>
      <point x="367" y="126" type="curve"/>
      <point x="369" y="126" type="line"/>
      <point x="392" y="43"/>
      <point x="460" y="-14"/>
      <point x="531" y="-14" type="curve" smooth="yes"/>
      <point x="633" y="-14"/>
      <point x="687" y="84"/>
      <point x="687" y="171" type="curve" smooth="yes"/>
      <point x="687" y="360"/>
      <point x="544" y="470"/>
      <point x="408" y="470" type="curve"/>
      <point x="398" y="434" type="line"/>
      <point x="550" y="424"/>
      <point x="649" y="301"/>
      <point x="649" y="203" type="curve" smooth="yes"/>
      <point x="649" y="121"/>
      <point x="600" y="71"/>
      <point x="524" y="71" type="curve" smooth="yes"/>
      <point x="451" y="71"/>
      <point x="385" y="146"/>
      <point x="372" y="221" type="curve"/>
      <point x="363" y="221" type="line"/>
      <point x="349" y="145"/>
      <point x="284" y="71"/>
      <point x="211" y="71" type="curve" smooth="yes"/>
      <point x="158" y="71"/>
      <point x="131" y="114"/>
      <point x="131" y="156" type="curve" smooth="yes"/>
      <point x="131" y="187"/>
      <point x="156" y="223"/>
      <point x="189" y="257" type="curve" smooth="yes"/>
      <point x="229" y="298"/>
      <point x="278" y="349"/>
      <point x="278" y="399" type="curve" smooth="yes"/>
      <point x="278" y="465"/>
      <point x="230" y="519"/>
      <point x="154" y="519" type="curve" smooth="yes"/>
      <point x="79" y="519"/>
      <point x="40" y="465"/>
      <point x="40" y="413" type="curve" smooth="yes"/>
      <point x="40" y="381"/>
      <point x="48" y="352"/>
      <point x="69" y="330" type="curve"/>
      <point x="89" y="345" type="line"/>
      <point x="82" y="360"/>
      <point x="79" y="372"/>
      <point x="79" y="383" type="curve" smooth="yes"/>
      <point x="79" y="421"/>
      <point x="102" y="452"/>
      <point x="154" y="452" type="curve" smooth="yes"/>
      <point x="191" y="452"/>
      <point x="225" y="427"/>
      <point x="225" y="385" type="curve" smooth="yes"/>
      <point x="225" y="344"/>
      <point x="194" y="311"/>
      <point x="162" y="278" type="curve" smooth="yes"/>
      <point x="123" y="238"/>
      <point x="80" y="193"/>
      <point x="80" y="125" type="curve" smooth="yes"/>
      <point x="80" y="38"/>
      <point x="141" y="-14"/>
      <point x="208" y="-14" type="curve" smooth="yes"/>
    </contour>
    <contour>
      <point x="552" y="434" type="line" smooth="yes"/>
      <point x="633" y="434"/>
      <point x="687" y="480"/>
      <point x="687" y="552" type="curve" smooth="yes"/>
      <point x="687" y="607"/>
      <point x="656" y="648"/>
      <point x="613" y="664" type="curve"/>
      <point x="598" y="644" type="line"/>
      <point x="622" y="635"/>
      <point x="644" y="610"/>
      <point x="644" y="576" type="curve" smooth="yes"/>
      <point x="644" y="536"/>
      <point x="613" y="509"/>
      <point x="552" y="509" type="curve" smooth="yes"/>
      <point x="361" y="509" type="line"/>
      <point x="361" y="434" type="line"/>
    </contour>
  </outline>
</glyph>
<glyph name="knBHAA" format="1">
  <advance width="1181"/>
  <outline>
    <contour>
      <point x="276" y="-14"/>
      <point x="344" y="43"/>
      <point x="367" y="126" type="curve"/>
      <point x="369" y="126" type="line"/>
      <point x="392" y="43"/>
      <point x="460" y="-14"/>
      <point x="531" y="-14" type="curve" smooth="yes"/>
      <point x="633" y="-14"/>
      <point x="687" y="84"/>
      <point x="687" y="171" type="curve" smooth="yes"/>
      <point x="687" y="360"/>
      <point x="544" y="470"/>
      <point x="408" y="470" type="curve"/>
      <point x="398" y="434" type="line"/>
      <point x="550" y="424"/>
      <point x="649" y="301"/>
      <point x="649" y="203" type="curve" smooth="yes"/>
      <point x="649" y="121"/>
      <point x="600" y="71"/>
      <point x="524" y="71" type="curve" smooth="yes"/>
      <point x="451" y="71"/>
      <point x="385" y="146"/>
      <point x="372" y="221" type="curve"/>
      <point x="363" y="221" type="line"/>
      <point x="349" y="145"/>
      <point x="284" y="71"/>
      <point x="211" y="71" type="curve" smooth="yes"/>
      <point x="158" y="71"/>
      <point x="131" y="114"/>
      <point x="131" y="156" type="curve" smooth="yes"/>
      <point x="131" y="187"/>
      <point x="156" y="223"/>
      <point x="189" y="257" type="curve" smooth="yes"/>
      <point x="229" y="298"/>
      <point x="278" y="349"/>
      <point x="278" y="399" type="curve" smooth="yes"/>
      <point x="278" y="465"/>
      <point x="230" y="519"/>
      <point x="154" y="519" type="curve" smooth="yes"/>
      <point x="79" y="519"/>
      <point x="40" y="465"/>
      <point x="40" y="413" type="curve" smooth="yes"/>
      <point x="40" y="381"/>
      <point x="48" y="352"/>
      <point x="69" y="330" type="curve"/>
      <point x="89" y="345" type="line"/>
      <point x="82" y="360"/>
      <point x="79" y="372"/>
      <point x="79" y="383" type="curve" smooth="yes"/>
      <point x="79" y="421"/>
      <point x="102" y="452"/>
      <point x="154" y="452" type="curve" smooth="yes"/>
      <point x="191" y="452"/>
      <point x="225" y="427"/>
      <point x="225" y="385" type="curve" smooth="yes"/>
      <point x="225" y="344"/>
      <point x="194" y="311"/>
      <point x="162" y="278" type="curve" smooth="yes"/>
      <point x="123" y="238"/>
      <point x="80" y="193"/>
      <point x="80" y="125" type="curve" smooth="yes"/>
      <point x="80" y="38"/>
      <point x="141" y="-14"/>
      <point x="208" y="-14" type="curve" smooth="yes"/>
    </contour>
    <contour>
      <point x="395" y="-220"/>
      <point x="420" y="-201"/>
      <point x="420" y="-161" type="curve" smooth="yes"/>
      <point x="420" y="-117"/>
      <point x="391" y="-104"/>
      <point x="377" y="16" type="curve"/>
      <point x="361" y="16" type="line"/>
      <point x="348" y="-104"/>
      <point x="317" y="-117"/>
      <point x="317" y="-161" type="curve" smooth="yes"/>
      <point x="317" y="-197"/>
      <point x="342" y="-220"/>
      <point x="369" y="-220" type="curve" smooth="yes"/>
    </contour>
    <contour>
      <point x="552" y="434" type="line"/>
      <point x="552" y="509" type="line"/>
      <point x="361" y="509" type="line"/>
      <point x="361" y="434" type="line"/>
    </contour>
    <contour>
      <point x="1047" y="-13"/>
      <point x="1121" y="93"/>
      <point x="1121" y="239" type="curve" smooth="yes"/>
      <point x="1121" y="390"/>
      <point x="1051" y="509"/>
      <point x="813" y="509" type="curve" smooth="yes"/>
      <point x="536" y="509" type="line"/>
      <point x="536" y="434" type="line"/>
      <point x="822" y="434" type="line" smooth="yes"/>
      <point x="1016" y="434"/>
      <point x="1086" y="346"/>
      <point x="1086" y="236" type="curve" smooth="yes"/>
      <point x="1086" y="130"/>
      <point x="1024" y="69"/>
      <point x="934" y="69" type="curve" smooth="yes"/>
      <point x="861" y="69"/>
      <point x="817" y="112"/>
      <point x="816" y="170" type="curve" smooth="yes"/>
      <point x="815" y="212"/>
      <point x="837" y="238"/>
      <point x="849" y="238" type="curve" smooth="yes"/>
      <point x="854" y="238"/>
      <point x="856" y="234"/>
      <point x="855" y="228" type="curve"/>
      <point x="856" y="192"/>
      <point x="877" y="166"/>
      <point x="910" y="166" type="curve" smooth="yes"/>
      <point x="945" y="166"/>
      <point x="971" y="195"/>
      <point x="970" y="231" type="curve"/>
      <point x="971" y="263"/>
      <point x="946" y="300"/>
      <point x="891" y="300" type="curve" smooth="yes"/>
      <point x="819" y="300"/>
      <point x="779" y="236"/>
      <point x="778" y="158" type="curve" smooth="yes"/>
      <point x="779" y="59"/>
      <point x="839" y="-13"/>
      <point x="935" y="-13" type="curve" smooth="yes"/>
    </contour>
  </outline>
</glyph>
<glyph name="knBHAc2.following" format="1">
  <advance width="487"/>
  <outline>
    <contour>
      <point x="-73" y="-301" type="line"/>
      <point x="-83" y="-355"/>
      <point x="-125" y="-409"/>
      <point x="-183" y="-409" type="curve" smooth="yes"/>
      <point x="-215" y="-409"/>
      <point x="-235" y="-387"/>
      <point x="-235" y="-362" type="curve" smooth="yes"/>
      <point x="-235" y="-301"/>
      <point x="-129" y="-249"/>
      <point x="-129" y="-173" type="curve" smooth="yes"/>
      <point x="-129" y="-125"/>
      <point x="-154" y="-86"/>
      <point x="-219" y="-86" type="curve" smooth="yes"/>
      <point x="-273" y="-86"/>
      <point x="-301" y="-125"/>
      <point x="-301" y="-163" type="curve" smooth="yes"/>
      <point x="-301" y="-186"/>
      <point x="-295" y="-207"/>
      <point x="-280" y="-222" type="curve"/>
      <point x="-265" y="-212" type="line"/>
      <point x="-271" y="-201"/>
      <point x="-273" y="-192"/>
      <point x="-273" y="-184" type="curve" smooth="yes"/>
      <point x="-273" y="-153"/>
      <point x="-256" y="-135"/>
      <point x="-221" y="-135" type="curve" smooth="yes"/>
      <point x="-182" y="-135"/>
      <point x="-168" y="-153"/>
      <point x="-168" y="-183" type="curve" smooth="yes"/>
      <point x="-168" y="-238"/>
      <point x="-272" y="-282"/>
      <point x="-272" y="-370" type="curve" smooth="yes"/>
      <point x="-272" y="-432"/>
      <point x="-238" y="-470"/>
      <point x="-185" y="-470" type="curve" smooth="yes"/>
      <point x="-135" y="-470"/>
      <point x="-84" y="-432"/>
      <point x="-66" y="-369" type="curve"/>
      <point x="-62" y="-369" type="line"/>
      <point x="-45" y="-432"/>
      <point x="6" y="-470"/>
      <point x="56" y="-470" type="curve" smooth="yes"/>
      <point x="134" y="-470"/>
      <point x="162" y="-391"/>
      <point x="162" y="-301" type="curve" smooth="yes"/>
      <point x="162" y="-67"/>
      <point x="63" y="60"/>
      <point x="22" y="60" type="curve" smooth="yes"/>
      <point x="5" y="60"/>
      <point x="-3" y="51"/>
      <point x="-3" y="36" type="curve" smooth="yes"/>
      <point x="-3" y="21"/>
      <point x="4" y="14"/>
      <point x="16" y="3" type="curve" smooth="yes"/>
      <point x="35" y="-13"/>
      <point x="135" y="-116"/>
      <point x="135" y="-276" type="curve" smooth="yes"/>
      <point x="135" y="-344"/>
      <point x="116" y="-409"/>
      <point x="51" y="-409" type="curve" smooth="yes"/>
      <point x="-1" y="-409"/>
      <point x="-45" y="-355"/>
      <point x="-56" y="-301" type="curve"/>
    </contour>
    <contour>
      <point x="-46" y="-596"/>
      <point x="-28" y="-582"/>
      <point x="-28" y="-553" type="curve" smooth="yes"/>
      <point x="-28" y="-522"/>
      <point x="-49" y="-513"/>
      <point x="-59" y="-426" type="curve"/>
      <point x="-70" y="-426" type="line"/>
      <point x="-80" y="-513"/>
      <point x="-102" y="-522"/>
      <point x="-102" y="-553" type="curve" smooth="yes"/>
      <point x="-102" y="-579"/>
      <point x="-84" y="-596"/>
      <point x="-64" y="-596" type="curve" smooth="yes"/>
    </contour>
  </outline>
</glyph>
<glyph name="knBHAc2" format="1">
  <advance width="59"/>
  <outline>
    <contour>
      <point x="-65" y="-280" type="line"/>
      <point x="-73" y="-327"/>
      <point x="-110" y="-374"/>
      <point x="-160" y="-374" type="curve" smooth="yes"/>
      <point x="-188" y="-374"/>
      <point x="-206" y="-354"/>
      <point x="-206" y="-333" type="curve" smooth="yes"/>
      <point x="-206" y="-280"/>
      <point x="-113" y="-234"/>
      <point x="-113" y="-167" type="curve" smooth="yes"/>
      <point x="-113" y="-126"/>
      <point x="-135" y="-92"/>
      <point x="-191" y="-92" type="curve" smooth="yes"/>
      <point x="-240" y="-92"/>
      <point x="-265" y="-126"/>
      <point x="-265" y="-159" type="curve" smooth="yes"/>
      <point x="-265" y="-179"/>
      <point x="-259" y="-197"/>
      <point x="-246" y="-211" type="curve"/>
      <point x="-233" y="-201" type="line"/>
      <point x="-238" y="-193"/>
      <point x="-240" y="-184"/>
      <point x="-240" y="-177" type="curve" smooth="yes"/>
      <point x="-240" y="-150"/>
      <point x="-224" y="-134"/>
      <point x="-195" y="-134" type="curve" smooth="yes"/>
      <point x="-160" y="-134"/>
      <point x="-147" y="-150"/>
      <point x="-147" y="-176" type="curve" smooth="yes"/>
      <point x="-147" y="-225"/>
      <point x="-239" y="-263"/>
      <point x="-239" y="-341" type="curve" smooth="yes"/>
      <point x="-239" y="-394"/>
      <point x="-209" y="-429"/>
      <point x="-163" y="-429" type="curve" smooth="yes"/>
      <point x="-118" y="-429"/>
      <point x="-74" y="-394"/>
      <point x="-59" y="-340" type="curve"/>
      <point x="-55" y="-340" type="line"/>
      <point x="-41" y="-394"/>
      <point x="6" y="-429"/>
      <point x="50" y="-429" type="curve" smooth="yes"/>
      <point x="118" y="-429"/>
      <point x="143" y="-359"/>
      <point x="143" y="-280" type="curve" smooth="yes"/>
      <point x="143" y="-74"/>
      <point x="55" y="37"/>
      <point x="20" y="37" type="curve" smooth="yes"/>
      <point x="4" y="37"/>
      <point x="-3" y="29"/>
      <point x="-3" y="15" type="curve" smooth="yes"/>
      <point x="-3" y="3"/>
      <point x="3" y="-4"/>
      <point x="14" y="-13" type="curve" smooth="yes"/>
      <point x="31" y="-28"/>
      <point x="118" y="-118"/>
      <point x="118" y="-258" type="curve" smooth="yes"/>
      <point x="118" y="-317"/>
      <point x="102" y="-374"/>
      <point x="45" y="-374" type="curve" smooth="yes"/>
      <point x="-1" y="-374"/>
      <point x="-41" y="-327"/>
      <point x="-50" y="-280" type="curve"/>
    </contour>
    <contour>
      <point x="-41" y="-538"/>
      <point x="-24" y="-527"/>
      <point x="-24" y="-501" type="curve" smooth="yes"/>
      <point x="-24" y="-473"/>
      <point x="-43" y="-467"/>
      <point x="-52" y="-390" type="curve"/>
      <point x="-62" y="-390" type="line"/>
      <point x="-70" y="-467"/>
      <point x="-90" y="-473"/>
      <point x="-90" y="-501" type="curve" smooth="yes"/>
      <point x="-90" y="-523"/>
      <point x="-74" y="-538"/>
      <point x="-56" y="-538" type="curve" smooth="yes"/>
    </contour>
  </outline>
</glyph>
<glyph name="knBI" format="1">
  <advance width="741"/>
  <outline>
    <contour>
      <point x="689" y="550"/>
      <point x="579" y="723"/>
      <point x="470" y="723" type="curve" smooth="yes"/>
      <point x="411" y="723"/>
      <point x="375" y="678"/>
      <point x="375" y="609" type="curve" smooth="yes"/>
      <point x="375" y="548"/>
      <point x="415" y="499"/>
      <point x="471" y="500" type="curve" smooth="yes"/>
      <point x="529" y="501"/>
      <point x="559" y="554"/>
      <point x="559" y="612" type="curve" smooth="yes"/>
      <point x="559" y="643"/>
      <point x="552" y="661"/>
      <point x="541" y="676" type="curve"/>
      <point x="513" y="680" type="line"/>
      <point x="527" y="666"/>
      <point x="531" y="650"/>
      <point x="531" y="627" type="curve" smooth="yes"/>
      <point x="531" y="597"/>
      <point x="512" y="560"/>
      <point x="465" y="560" type="curve" smooth="yes"/>
      <point x="429" y="560"/>
      <point x="408" y="579"/>
      <point x="408" y="609" type="curve" smooth="yes"/>
      <point x="408" y="632"/>
      <point x="428" y="657"/>
      <point x="472" y="657" type="curve" smooth="yes"/>
      <point x="538" y="657"/>
      <point x="649" y="538"/>
      <point x="649" y="259" type="curve"/>
      <point x="649" y="143"/>
      <point x="606" y="72"/>
      <point x="524" y="72" type="curve" smooth="yes"/>
      <point x="451" y="72"/>
      <point x="385" y="147"/>
      <point x="372" y="222" type="curve"/>
      <point x="363" y="222" type="line"/>
      <point x="349" y="146"/>
      <point x="284" y="72"/>
      <point x="211" y="72" type="curve" smooth="yes"/>
      <point x="158" y="72"/>
      <point x="131" y="115"/>
      <point x="131" y="157" type="curve" smooth="yes"/>
      <point x="131" y="188"/>
      <point x="156" y="224"/>
      <point x="189" y="258" type="curve" smooth="yes"/>
      <point x="229" y="299"/>
      <point x="278" y="350"/>
      <point x="278" y="400" type="curve" smooth="yes"/>
      <point x="278" y="466"/>
      <point x="230" y="520"/>
      <point x="154" y="520" type="curve" smooth="yes"/>
      <point x="79" y="520"/>
      <point x="40" y="466"/>
      <point x="40" y="414" type="curve" smooth="yes"/>
      <point x="40" y="382"/>
      <point x="48" y="353"/>
      <point x="69" y="331" type="curve"/>
      <point x="89" y="346" type="line"/>
      <point x="82" y="361"/>
      <point x="79" y="373"/>
      <point x="79" y="384" type="curve" smooth="yes"/>
      <point x="79" y="422"/>
      <point x="102" y="453"/>
      <point x="154" y="453" type="curve" smooth="yes"/>
      <point x="191" y="453"/>
      <point x="225" y="428"/>
      <point x="225" y="386" type="curve" smooth="yes"/>
      <point x="225" y="345"/>
      <point x="194" y="312"/>
      <point x="162" y="279" type="curve" smooth="yes"/>
      <point x="123" y="239"/>
      <point x="80" y="194"/>
      <point x="80" y="126" type="curve" smooth="yes"/>
      <point x="80" y="39"/>
      <point x="141" y="-13"/>
      <point x="208" y="-13" type="curve" smooth="yes"/>
      <point x="276" y="-13"/>
      <point x="344" y="44"/>
      <point x="367" y="127" type="curve"/>
      <point x="369" y="127" type="line"/>
      <point x="392" y="44"/>
      <point x="460" y="-13"/>
      <point x="531" y="-13" type="curve" smooth="yes"/>
      <point x="644" y="-13"/>
      <point x="684" y="96"/>
      <point x="689" y="249" type="curve"/>
    </contour>
  </outline>
</glyph>
<glyph name="knCAA" format="1">
  <advance width="1166"/>
  <outline>
    <contour>
      <point x="276" y="-14"/>
      <point x="344" y="43"/>
      <point x="367" y="126" type="curve"/>
      <point x="369" y="126" type="line"/>
      <point x="392" y="43"/>
      <point x="460" y="-14"/>
      <point x="528" y="-14" type="curve" smooth="yes"/>
      <point x="594" y="-14"/>
      <point x="655" y="38"/>
      <point x="655" y="125" type="curve" smooth="yes"/>
      <point x="655" y="195"/>
      <point x="609" y="311"/>
      <point x="525" y="327" type="curve"/>
      <point x="506" y="310" type="line"/>
      <point x="566" y="287"/>
      <point x="607" y="221"/>
      <point x="607" y="154" type="curve" smooth="yes"/>
      <point x="607" y="116"/>
      <point x="582" y="71"/>
      <point x="524" y="71" type="curve" smooth="yes"/>
      <point x="451" y="71"/>
      <point x="385" y="146"/>
      <point x="372" y="221" type="curve"/>
      <point x="363" y="221" type="line"/>
      <point x="349" y="145"/>
      <point x="284" y="71"/>
      <point x="211" y="71" type="curve" smooth="yes"/>
      <point x="158" y="71"/>
      <point x="131" y="114"/>
      <point x="131" y="156" type="curve" smooth="yes"/>
      <point x="131" y="187"/>
      <point x="156" y="223"/>
      <point x="189" y="257" type="curve" smooth="yes"/>
      <point x="229" y="298"/>
      <point x="278" y="349"/>
      <point x="278" y="399" type="curve" smooth="yes"/>
      <point x="278" y="465"/>
      <point x="230" y="519"/>
      <point x="154" y="519" type="curve" smooth="yes"/>
      <point x="79" y="519"/>
      <point x="40" y="465"/>
      <point x="40" y="413" type="curve" smooth="yes"/>
      <point x="40" y="381"/>
      <point x="48" y="352"/>
      <point x="69" y="330" type="curve"/>
      <point x="89" y="345" type="line"/>
      <point x="82" y="360"/>
      <point x="79" y="372"/>
      <point x="79" y="383" type="curve" smooth="yes"/>
      <point x="79" y="421"/>
      <point x="102" y="452"/>
      <point x="154" y="452" type="curve" smooth="yes"/>
      <point x="191" y="452"/>
      <point x="225" y="427"/>
      <point x="225" y="385" type="curve" smooth="yes"/>
      <point x="225" y="344"/>
      <point x="194" y="311"/>
      <point x="162" y="278" type="curve" smooth="yes"/>
      <point x="123" y="238"/>
      <point x="80" y="193"/>
      <point x="80" y="125" type="curve" smooth="yes"/>
      <point x="80" y="38"/>
      <point x="141" y="-14"/>
      <point x="208" y="-14" type="curve" smooth="yes"/>
    </contour>
    <contour>
      <point x="666" y="294" type="line"/>
      <point x="666" y="365" type="line"/>
      <point x="390" y="365" type="line"/>
      <point x="390" y="294" type="line"/>
    </contour>
    <contour>
      <point x="542" y="434" type="line"/>
      <point x="542" y="509" type="line"/>
      <point x="390" y="509" type="line"/>
      <point x="390" y="434" type="line"/>
    </contour>
    <contour>
      <point x="566" y="331"/>
      <point x="584" y="363"/>
      <point x="584" y="396" type="curve" smooth="yes"/>
      <point x="584" y="429"/>
      <point x="557" y="462"/>
      <point x="525" y="479" type="curve"/>
      <point x="510" y="448" type="line"/>
      <point x="537" y="437"/>
      <point x="550" y="416"/>
      <point x="550" y="395" type="curve" smooth="yes"/>
      <point x="550" y="374"/>
      <point x="537" y="354"/>
      <point x="510" y="342" type="curve"/>
      <point x="525" y="313" type="line"/>
    </contour>
    <contour>
      <point x="1032" y="-13"/>
      <point x="1106" y="93"/>
      <point x="1106" y="239" type="curve" smooth="yes"/>
      <point x="1106" y="390"/>
      <point x="1036" y="509"/>
      <point x="798" y="509" type="curve" smooth="yes"/>
      <point x="521" y="509" type="line"/>
      <point x="521" y="434" type="line"/>
      <point x="807" y="434" type="line" smooth="yes"/>
      <point x="1001" y="434"/>
      <point x="1071" y="346"/>
      <point x="1071" y="236" type="curve" smooth="yes"/>
      <point x="1071" y="130"/>
      <point x="1009" y="69"/>
      <point x="919" y="69" type="curve" smooth="yes"/>
      <point x="846" y="69"/>
      <point x="802" y="112"/>
      <point x="801" y="170" type="curve" smooth="yes"/>
      <point x="800" y="212"/>
      <point x="822" y="238"/>
      <point x="834" y="238" type="curve" smooth="yes"/>
      <point x="839" y="238"/>
      <point x="841" y="234"/>
      <point x="840" y="228" type="curve"/>
      <point x="841" y="192"/>
      <point x="862" y="166"/>
      <point x="895" y="166" type="curve" smooth="yes"/>
      <point x="930" y="166"/>
      <point x="956" y="195"/>
      <point x="955" y="231" type="curve"/>
      <point x="956" y="263"/>
      <point x="931" y="300"/>
      <point x="876" y="300" type="curve" smooth="yes"/>
      <point x="804" y="300"/>
      <point x="764" y="236"/>
      <point x="763" y="158" type="curve" smooth="yes"/>
      <point x="764" y="59"/>
      <point x="824" y="-13"/>
      <point x="920" y="-13" type="curve" smooth="yes"/>
    </contour>
  </outline>
</glyph>
<glyph name="knCAc2.following" format="1">
  <advance width="353"/>
  <outline>
    <contour>
      <point x="151" y="-248" type="line"/>
      <point x="151" y="-197" type="line"/>
      <point x="-48" y="-197" type="line"/>
      <point x="-48" y="-248" type="line"/>
    </contour>
    <contour>
      <point x="111" y="-470"/>
      <point x="145" y="-432"/>
      <point x="145" y="-360" type="curve" smooth="yes"/>
      <point x="145" y="-310"/>
      <point x="122" y="-236"/>
      <point x="61" y="-225" type="curve"/>
      <point x="38" y="-237" type="line"/>
      <point x="81" y="-253"/>
      <point x="110" y="-301"/>
      <point x="110" y="-347" type="curve" smooth="yes"/>
      <point x="110" y="-386"/>
      <point x="92" y="-409"/>
      <point x="51" y="-409" type="curve"/>
      <point x="-5" y="-409"/>
      <point x="-47" y="-355"/>
      <point x="-56" y="-301" type="curve"/>
      <point x="-73" y="-301" type="line"/>
      <point x="-83" y="-355"/>
      <point x="-125" y="-409"/>
      <point x="-183" y="-409" type="curve" smooth="yes"/>
      <point x="-215" y="-409"/>
      <point x="-235" y="-387"/>
      <point x="-235" y="-362" type="curve" smooth="yes"/>
      <point x="-235" y="-301"/>
      <point x="-129" y="-249"/>
      <point x="-129" y="-173" type="curve" smooth="yes"/>
      <point x="-129" y="-125"/>
      <point x="-154" y="-86"/>
      <point x="-219" y="-86" type="curve" smooth="yes"/>
      <point x="-273" y="-86"/>
      <point x="-301" y="-125"/>
      <point x="-301" y="-163" type="curve" smooth="yes"/>
      <point x="-301" y="-186"/>
      <point x="-295" y="-207"/>
      <point x="-280" y="-222" type="curve"/>
      <point x="-265" y="-212" type="line"/>
      <point x="-271" y="-201"/>
      <point x="-273" y="-192"/>
      <point x="-273" y="-184" type="curve" smooth="yes"/>
      <point x="-273" y="-153"/>
      <point x="-256" y="-135"/>
      <point x="-221" y="-135" type="curve" smooth="yes"/>
      <point x="-182" y="-135"/>
      <point x="-168" y="-153"/>
      <point x="-168" y="-183" type="curve" smooth="yes"/>
      <point x="-168" y="-238"/>
      <point x="-272" y="-282"/>
      <point x="-272" y="-370" type="curve" smooth="yes"/>
      <point x="-272" y="-432"/>
      <point x="-238" y="-470"/>
      <point x="-180" y="-470" type="curve" smooth="yes"/>
      <point x="-131" y="-470"/>
      <point x="-84" y="-429"/>
      <point x="-67" y="-369" type="curve"/>
      <point x="-63" y="-369" type="line"/>
      <point x="-46" y="-429"/>
      <point x="1" y="-470"/>
      <point x="51" y="-470" type="curve"/>
    </contour>
  </outline>
</glyph>
<glyph name="knCAc2" format="1">
  <advance width="0"/>
  <outline>
    <contour>
      <point x="132" y="-218" type="line"/>
      <point x="132" y="-172" type="line"/>
      <point x="-42" y="-172" type="line"/>
      <point x="-42" y="-218" type="line"/>
    </contour>
    <contour>
      <point x="97" y="-412"/>
      <point x="128" y="-379"/>
      <point x="128" y="-316" type="curve" smooth="yes"/>
      <point x="128" y="-272"/>
      <point x="108" y="-207"/>
      <point x="54" y="-197" type="curve"/>
      <point x="34" y="-207" type="line"/>
      <point x="72" y="-222"/>
      <point x="97" y="-263"/>
      <point x="97" y="-304" type="curve" smooth="yes"/>
      <point x="97" y="-338"/>
      <point x="80" y="-359"/>
      <point x="45" y="-359" type="curve"/>
      <point x="-4" y="-359"/>
      <point x="-41" y="-312"/>
      <point x="-50" y="-263" type="curve"/>
      <point x="-65" y="-263" type="line"/>
      <point x="-73" y="-312"/>
      <point x="-110" y="-359"/>
      <point x="-160" y="-359" type="curve" smooth="yes"/>
      <point x="-188" y="-359"/>
      <point x="-206" y="-340"/>
      <point x="-206" y="-317" type="curve" smooth="yes"/>
      <point x="-206" y="-263"/>
      <point x="-113" y="-218"/>
      <point x="-113" y="-151" type="curve" smooth="yes"/>
      <point x="-113" y="-109"/>
      <point x="-135" y="-75"/>
      <point x="-191" y="-75" type="curve" smooth="yes"/>
      <point x="-240" y="-75"/>
      <point x="-265" y="-109"/>
      <point x="-265" y="-144" type="curve" smooth="yes"/>
      <point x="-265" y="-163"/>
      <point x="-259" y="-182"/>
      <point x="-246" y="-195" type="curve"/>
      <point x="-233" y="-186" type="line"/>
      <point x="-238" y="-177"/>
      <point x="-240" y="-169"/>
      <point x="-240" y="-162" type="curve" smooth="yes"/>
      <point x="-240" y="-135"/>
      <point x="-224" y="-118"/>
      <point x="-195" y="-118" type="curve" smooth="yes"/>
      <point x="-160" y="-118"/>
      <point x="-147" y="-135"/>
      <point x="-147" y="-160" type="curve" smooth="yes"/>
      <point x="-147" y="-210"/>
      <point x="-239" y="-247"/>
      <point x="-239" y="-324" type="curve" smooth="yes"/>
      <point x="-239" y="-379"/>
      <point x="-209" y="-412"/>
      <point x="-158" y="-412" type="curve" smooth="yes"/>
      <point x="-116" y="-412"/>
      <point x="-74" y="-376"/>
      <point x="-59" y="-323" type="curve"/>
      <point x="-55" y="-323" type="line"/>
      <point x="-41" y="-376"/>
      <point x="1" y="-412"/>
      <point x="45" y="-412" type="curve"/>
    </contour>
  </outline>
</glyph>
<glyph name="knCHAA" format="1">
  <advance width="1226"/>
  <outline>
    <contour>
      <point x="318" y="-14"/>
      <point x="386" y="43"/>
      <point x="409" y="126" type="curve"/>
      <point x="411" y="126" type="line"/>
      <point x="434" y="43"/>
      <point x="502" y="-14"/>
      <point x="572" y="-14" type="curve" smooth="yes"/>
      <point x="683" y="-14"/>
      <point x="745" y="78"/>
      <point x="745" y="224" type="curve" smooth="yes"/>
      <point x="745" y="416"/>
      <point x="591" y="509"/>
      <point x="458" y="509" type="curve"/>
      <point x="498" y="434" type="line"/>
      <point x="627" y="434"/>
      <point x="706" y="372"/>
      <point x="706" y="237" type="curve" smooth="yes"/>
      <point x="706" y="158"/>
      <point x="664" y="71"/>
      <point x="566" y="71" type="curve" smooth="yes"/>
      <point x="493" y="71"/>
      <point x="427" y="146"/>
      <point x="414" y="221" type="curve"/>
      <point x="405" y="221" type="line"/>
      <point x="391" y="145"/>
      <point x="323" y="71"/>
      <point x="248" y="71" type="curve" smooth="yes"/>
      <point x="157" y="71"/>
      <point x="100" y="149"/>
      <point x="100" y="272" type="curve" smooth="yes"/>
      <point x="100" y="365"/>
      <point x="142" y="454"/>
      <point x="235" y="454" type="curve" smooth="yes"/>
      <point x="273" y="454"/>
      <point x="307" y="440"/>
      <point x="307" y="401" type="curve" smooth="yes"/>
      <point x="307" y="365"/>
      <point x="279" y="344"/>
      <point x="232" y="344" type="curve" smooth="yes"/>
      <point x="190" y="344"/>
      <point x="159" y="365"/>
      <point x="159" y="408" type="curve" smooth="yes"/>
      <point x="159" y="419"/>
      <point x="163" y="440"/>
      <point x="166" y="450" type="curve"/>
      <point x="177" y="475"/>
      <point x="172" y="501"/>
      <point x="157" y="497" type="curve"/>
      <point x="135" y="429" type="line"/>
      <point x="132" y="407"/>
      <point x="131" y="394"/>
      <point x="131" y="381" type="curve" smooth="yes"/>
      <point x="131" y="308"/>
      <point x="174" y="273"/>
      <point x="232" y="273" type="curve" smooth="yes"/>
      <point x="295" y="273"/>
      <point x="337" y="325"/>
      <point x="337" y="391" type="curve" smooth="yes"/>
      <point x="337" y="457"/>
      <point x="301" y="519"/>
      <point x="230" y="519" type="curve" smooth="yes"/>
      <point x="128" y="519"/>
      <point x="60" y="392"/>
      <point x="60" y="261" type="curve" smooth="yes"/>
      <point x="60" y="82"/>
      <point x="137" y="-14"/>
      <point x="248" y="-14" type="curve" smooth="yes"/>
    </contour>
    <contour>
      <point x="437" y="-220"/>
      <point x="462" y="-201"/>
      <point x="462" y="-161" type="curve" smooth="yes"/>
      <point x="462" y="-117"/>
      <point x="433" y="-104"/>
      <point x="419" y="16" type="curve"/>
      <point x="403" y="16" type="line"/>
      <point x="390" y="-104"/>
      <point x="359" y="-117"/>
      <point x="359" y="-161" type="curve" smooth="yes"/>
      <point x="359" y="-197"/>
      <point x="384" y="-220"/>
      <point x="411" y="-220" type="curve" smooth="yes"/>
    </contour>
    <contour>
      <point x="611" y="434" type="line"/>
      <point x="611" y="509" type="line"/>
      <point x="450" y="509" type="line"/>
      <point x="450" y="434" type="line"/>
    </contour>
    <contour>
      <point x="1092" y="-13"/>
      <point x="1166" y="93"/>
      <point x="1166" y="239" type="curve" smooth="yes"/>
      <point x="1166" y="390"/>
      <point x="1096" y="509"/>
      <point x="858" y="509" type="curve" smooth="yes"/>
      <point x="581" y="509" type="line"/>
      <point x="581" y="434" type="line"/>
      <point x="867" y="434" type="line" smooth="yes"/>
      <point x="1061" y="434"/>
      <point x="1131" y="346"/>
      <point x="1131" y="236" type="curve" smooth="yes"/>
      <point x="1131" y="130"/>
      <point x="1069" y="69"/>
      <point x="979" y="69" type="curve" smooth="yes"/>
      <point x="906" y="69"/>
      <point x="862" y="112"/>
      <point x="861" y="170" type="curve" smooth="yes"/>
      <point x="860" y="212"/>
      <point x="882" y="238"/>
      <point x="894" y="238" type="curve" smooth="yes"/>
      <point x="899" y="238"/>
      <point x="901" y="234"/>
      <point x="900" y="228" type="curve"/>
      <point x="901" y="192"/>
      <point x="922" y="166"/>
      <point x="955" y="166" type="curve" smooth="yes"/>
      <point x="990" y="166"/>
      <point x="1016" y="195"/>
      <point x="1015" y="231" type="curve"/>
      <point x="1016" y="263"/>
      <point x="991" y="300"/>
      <point x="936" y="300" type="curve" smooth="yes"/>
      <point x="864" y="300"/>
      <point x="824" y="236"/>
      <point x="823" y="158" type="curve" smooth="yes"/>
      <point x="824" y="59"/>
      <point x="884" y="-13"/>
      <point x="980" y="-13" type="curve" smooth="yes"/>
    </contour>
  </outline>
</glyph>
<glyph name="knCHAc2.following" format="1">
  <advance width="526"/>
  <outline>
    <contour>
      <point x="-52" y="-622"/>
      <point x="-34" y="-608"/>
      <point x="-34" y="-580" type="curve" smooth="yes"/>
      <point x="-34" y="-548"/>
      <point x="-54" y="-539"/>
      <point x="-64" y="-452" type="curve"/>
      <point x="-76" y="-452" type="line"/>
      <point x="-85" y="-539"/>
      <point x="-108" y="-548"/>
      <point x="-108" y="-580" type="curve" smooth="yes"/>
      <point x="-108" y="-605"/>
      <point x="-90" y="-622"/>
      <point x="-70" y="-622" type="curve" smooth="yes"/>
    </contour>
    <contour>
      <point x="139" y="-470"/>
      <point x="164" y="-391"/>
      <point x="164" y="-281" type="curve" smooth="yes"/>
      <point x="164" y="-77"/>
      <point x="58" y="60"/>
      <point x="17" y="60" type="curve" smooth="yes"/>
      <point x="2" y="60"/>
      <point x="-8" y="49"/>
      <point x="-8" y="36" type="curve" smooth="yes"/>
      <point x="-8" y="21"/>
      <point x="-1" y="14"/>
      <point x="11" y="3" type="curve" smooth="yes"/>
      <point x="30" y="-13"/>
      <point x="130" y="-116"/>
      <point x="130" y="-276" type="curve" smooth="yes"/>
      <point x="130" y="-354"/>
      <point x="105" y="-409"/>
      <point x="44" y="-409" type="curve"/>
      <point x="-11" y="-409"/>
      <point x="-54" y="-355"/>
      <point x="-63" y="-301" type="curve"/>
      <point x="-80" y="-301" type="line"/>
      <point x="-90" y="-355"/>
      <point x="-134" y="-409"/>
      <point x="-198" y="-409" type="curve" smooth="yes"/>
      <point x="-258" y="-409"/>
      <point x="-292" y="-353"/>
      <point x="-292" y="-284" type="curve" smooth="yes"/>
      <point x="-292" y="-197"/>
      <point x="-264" y="-133"/>
      <point x="-197" y="-133" type="curve" smooth="yes"/>
      <point x="-165" y="-133"/>
      <point x="-148" y="-143"/>
      <point x="-148" y="-171" type="curve" smooth="yes"/>
      <point x="-148" y="-197"/>
      <point x="-160" y="-212"/>
      <point x="-199" y="-212" type="curve" smooth="yes"/>
      <point x="-234" y="-212"/>
      <point x="-252" y="-197"/>
      <point x="-252" y="-166" type="curve" smooth="yes"/>
      <point x="-252" y="-158"/>
      <point x="-249" y="-143"/>
      <point x="-247" y="-136" type="curve"/>
      <point x="-239" y="-118"/>
      <point x="-242" y="-99"/>
      <point x="-253" y="-102" type="curve"/>
      <point x="-269" y="-151" type="line"/>
      <point x="-271" y="-167"/>
      <point x="-272" y="-176"/>
      <point x="-272" y="-186" type="curve" smooth="yes"/>
      <point x="-272" y="-238"/>
      <point x="-241" y="-263"/>
      <point x="-193" y="-263" type="curve" smooth="yes"/>
      <point x="-145" y="-263"/>
      <point x="-116" y="-232"/>
      <point x="-116" y="-174" type="curve" smooth="yes"/>
      <point x="-116" y="-121"/>
      <point x="-135" y="-86"/>
      <point x="-200" y="-86" type="curve" smooth="yes"/>
      <point x="-274" y="-86"/>
      <point x="-327" y="-178"/>
      <point x="-327" y="-292" type="curve" smooth="yes"/>
      <point x="-327" y="-401"/>
      <point x="-277" y="-470"/>
      <point x="-198" y="-470" type="curve" smooth="yes"/>
      <point x="-137" y="-470"/>
      <point x="-90" y="-429"/>
      <point x="-74" y="-369" type="curve"/>
      <point x="-68" y="-369" type="line"/>
      <point x="-52" y="-429"/>
      <point x="-5" y="-470"/>
      <point x="55" y="-470" type="curve"/>
    </contour>
  </outline>
</glyph>
<glyph name="knCHI" format="1">
  <advance width="806"/>
  <outline>
    <contour>
      <point x="437" y="-220"/>
      <point x="462" y="-201"/>
      <point x="462" y="-161" type="curve" smooth="yes"/>
      <point x="462" y="-117"/>
      <point x="433" y="-104"/>
      <point x="419" y="16" type="curve"/>
      <point x="403" y="16" type="line"/>
      <point x="390" y="-104"/>
      <point x="359" y="-117"/>
      <point x="359" y="-161" type="curve" smooth="yes"/>
      <point x="359" y="-197"/>
      <point x="384" y="-220"/>
      <point x="411" y="-220" type="curve" smooth="yes"/>
    </contour>
    <contour>
      <point x="706" y="167"/>
      <point x="664" y="71"/>
      <point x="566" y="71" type="curve" smooth="yes"/>
      <point x="493" y="71"/>
      <point x="427" y="146"/>
      <point x="414" y="221" type="curve"/>
      <point x="405" y="221" type="line"/>
      <point x="391" y="145"/>
      <point x="323" y="71"/>
      <point x="248" y="71" type="curve" smooth="yes"/>
      <point x="157" y="71"/>
      <point x="100" y="149"/>
      <point x="100" y="272" type="curve" smooth="yes"/>
      <point x="100" y="365"/>
      <point x="142" y="454"/>
      <point x="235" y="454" type="curve" smooth="yes"/>
      <point x="273" y="454"/>
      <point x="307" y="440"/>
      <point x="307" y="401" type="curve" smooth="yes"/>
      <point x="307" y="365"/>
      <point x="279" y="344"/>
      <point x="232" y="344" type="curve" smooth="yes"/>
      <point x="190" y="344"/>
      <point x="159" y="365"/>
      <point x="159" y="408" type="curve" smooth="yes"/>
      <point x="159" y="419"/>
      <point x="163" y="440"/>
      <point x="166" y="450" type="curve"/>
      <point x="177" y="475"/>
      <point x="172" y="501"/>
      <point x="157" y="497" type="curve"/>
      <point x="135" y="429" type="line"/>
      <point x="132" y="407"/>
      <point x="131" y="394"/>
      <point x="131" y="381" type="curve" smooth="yes"/>
      <point x="131" y="308"/>
      <point x="174" y="273"/>
      <point x="232" y="273" type="curve" smooth="yes"/>
      <point x="295" y="273"/>
      <point x="337" y="325"/>
      <point x="337" y="391" type="curve" smooth="yes"/>
      <point x="337" y="457"/>
      <point x="301" y="519"/>
      <point x="230" y="519" type="curve" smooth="yes"/>
      <point x="128" y="519"/>
      <point x="60" y="392"/>
      <point x="60" y="261" type="curve" smooth="yes"/>
      <point x="60" y="82"/>
      <point x="137" y="-14"/>
      <point x="248" y="-14" type="curve" smooth="yes"/>
      <point x="318" y="-14"/>
      <point x="386" y="43"/>
      <point x="409" y="126" type="curve"/>
      <point x="411" y="126" type="line"/>
      <point x="434" y="43"/>
      <point x="502" y="-14"/>
      <point x="572" y="-14" type="curve" smooth="yes"/>
      <point x="683" y="-14"/>
      <point x="746" y="104"/>
      <point x="746" y="300" type="curve" smooth="yes"/>
      <point x="746" y="551"/>
      <point x="636" y="724"/>
      <point x="527" y="724" type="curve" smooth="yes"/>
      <point x="468" y="724"/>
      <point x="432" y="679"/>
      <point x="432" y="610" type="curve" smooth="yes"/>
      <point x="432" y="549"/>
      <point x="472" y="500"/>
      <point x="528" y="501" type="curve" smooth="yes"/>
      <point x="586" y="502"/>
      <point x="616" y="555"/>
      <point x="616" y="613" type="curve" smooth="yes"/>
      <point x="616" y="644"/>
      <point x="609" y="662"/>
      <point x="598" y="677" type="curve"/>
      <point x="570" y="681" type="line"/>
      <point x="584" y="667"/>
      <point x="588" y="651"/>
      <point x="588" y="628" type="curve" smooth="yes"/>
      <point x="588" y="598"/>
      <point x="569" y="561"/>
      <point x="522" y="561" type="curve" smooth="yes"/>
      <point x="486" y="561"/>
      <point x="465" y="580"/>
      <point x="465" y="610" type="curve" smooth="yes"/>
      <point x="465" y="633"/>
      <point x="485" y="658"/>
      <point x="529" y="658" type="curve" smooth="yes"/>
      <point x="595" y="658"/>
      <point x="706" y="539"/>
      <point x="706" y="310" type="curve" smooth="yes"/>
    </contour>
  </outline>
</glyph>
<glyph name="knDAc2" format="1">
  <advance width="0"/>
  <outline>
    <contour>
      <point x="-103" y="-412"/>
      <point x="-59" y="-376"/>
      <point x="-46" y="-323" type="curve"/>
      <point x="-41" y="-323" type="line"/>
      <point x="-26" y="-376"/>
      <point x="18" y="-412"/>
      <point x="69" y="-412" type="curve" smooth="yes"/>
      <point x="122" y="-412"/>
      <point x="162" y="-372"/>
      <point x="162" y="-291" type="curve" smooth="yes"/>
      <point x="162" y="-166"/>
      <point x="64" y="-75"/>
      <point x="-43" y="-75" type="curve"/>
      <point x="-149" y="-75"/>
      <point x="-246" y="-166"/>
      <point x="-246" y="-291" type="curve" smooth="yes"/>
      <point x="-246" y="-372"/>
      <point x="-207" y="-412"/>
      <point x="-153" y="-412" type="curve" smooth="yes"/>
    </contour>
    <contour>
      <point x="-199" y="-359"/>
      <point x="-210" y="-317"/>
      <point x="-210" y="-281" type="curve" smooth="yes"/>
      <point x="-210" y="-193"/>
      <point x="-135" y="-106"/>
      <point x="-43" y="-106" type="curve"/>
      <point x="51" y="-106"/>
      <point x="125" y="-193"/>
      <point x="125" y="-281" type="curve" smooth="yes"/>
      <point x="125" y="-317"/>
      <point x="116" y="-359"/>
      <point x="66" y="-359" type="curve" smooth="yes"/>
      <point x="13" y="-359"/>
      <point x="-28" y="-312"/>
      <point x="-35" y="-263" type="curve"/>
      <point x="-51" y="-263" type="line"/>
      <point x="-59" y="-312"/>
      <point x="-97" y="-359"/>
      <point x="-150" y="-359" type="curve" smooth="yes"/>
    </contour>
  </outline>
</glyph>
<glyph name="knDDE" format="1">
  <advance width="700"/>
  <outline>
    <contour>
      <point x="253" y="-14"/>
      <point x="321" y="43"/>
      <point x="344" y="126" type="curve"/>
      <point x="346" y="126" type="line"/>
      <point x="369" y="43"/>
      <point x="437" y="-14"/>
      <point x="505" y="-14" type="curve" smooth="yes"/>
      <point x="572" y="-14"/>
      <point x="635" y="33"/>
      <point x="635" y="145" type="curve" smooth="yes"/>
      <point x="635" y="218"/>
      <point x="575" y="355"/>
      <point x="468" y="355" type="curve" smooth="yes"/>
      <point x="407" y="355"/>
      <point x="378" y="315"/>
      <point x="378" y="277" type="curve" smooth="yes"/>
      <point x="378" y="229"/>
      <point x="420" y="185"/>
      <point x="476" y="185" type="curve" smooth="yes"/>
      <point x="527" y="185"/>
      <point x="576" y="216"/>
      <point x="576" y="284" type="curve" smooth="yes"/>
      <point x="576" y="397"/>
      <point x="450" y="467"/>
      <point x="345" y="467" type="curve" smooth="yes"/>
      <point x="208" y="467"/>
      <point x="55" y="339"/>
      <point x="55" y="160" type="curve" smooth="yes"/>
      <point x="55" y="33"/>
      <point x="117" y="-14"/>
      <point x="185" y="-14" type="curve" smooth="yes"/>
    </contour>
    <contour>
      <point x="138" y="71"/>
      <point x="104" y="114"/>
      <point x="104" y="192" type="curve" smooth="yes"/>
      <point x="104" y="300"/>
      <point x="213" y="441"/>
      <point x="345" y="441" type="curve" smooth="yes"/>
      <point x="456" y="441"/>
      <point x="544" y="355"/>
      <point x="544" y="299" type="curve" smooth="yes"/>
      <point x="544" y="274"/>
      <point x="526" y="243"/>
      <point x="475" y="243" type="curve" smooth="yes"/>
      <point x="438" y="243"/>
      <point x="417" y="262"/>
      <point x="417" y="285" type="curve" smooth="yes"/>
      <point x="417" y="307"/>
      <point x="439" y="326"/>
      <point x="475" y="326" type="curve" smooth="yes"/>
      <point x="536" y="326"/>
      <point x="589" y="254"/>
      <point x="589" y="174" type="curve" smooth="yes"/>
      <point x="589" y="113"/>
      <point x="554" y="71"/>
      <point x="495" y="71" type="curve" smooth="yes"/>
      <point x="429" y="71"/>
      <point x="364" y="145"/>
      <point x="350" y="221" type="curve"/>
      <point x="341" y="221" type="line"/>
      <point x="327" y="145"/>
      <point x="261" y="71"/>
      <point x="196" y="71" type="curve" smooth="yes"/>
    </contour>
    <contour>
      <point x="241" y="434" type="line"/>
      <point x="345" y="444" type="line"/>
      <point x="448" y="434" type="line"/>
      <point x="499" y="434" type="line" smooth="yes"/>
      <point x="580" y="434"/>
      <point x="634" y="480"/>
      <point x="634" y="552" type="curve" smooth="yes"/>
      <point x="634" y="607"/>
      <point x="603" y="648"/>
      <point x="560" y="664" type="curve"/>
      <point x="545" y="644" type="line"/>
      <point x="569" y="635"/>
      <point x="591" y="610"/>
      <point x="591" y="576" type="curve" smooth="yes"/>
      <point x="591" y="536"/>
      <point x="560" y="509"/>
      <point x="499" y="509" type="curve" smooth="yes"/>
      <point x="55" y="509" type="line"/>
      <point x="55" y="434" type="line"/>
    </contour>
    <contour>
      <point x="580" y="434"/>
      <point x="634" y="480"/>
      <point x="634" y="553" type="curve" smooth="yes"/>
      <point x="634" y="651"/>
      <point x="556" y="685"/>
      <point x="499" y="685" type="curve" smooth="yes"/>
      <point x="444" y="685"/>
      <point x="416" y="657"/>
      <point x="416" y="625" type="curve" smooth="yes"/>
      <point x="416" y="592"/>
      <point x="439" y="571"/>
      <point x="473" y="571" type="curve" smooth="yes"/>
      <point x="507" y="571"/>
      <point x="528" y="597"/>
      <point x="528" y="633" type="curve" smooth="yes"/>
      <point x="528" y="639"/>
      <point x="530" y="643"/>
      <point x="534" y="643" type="curve" smooth="yes"/>
      <point x="547" y="643"/>
      <point x="591" y="629"/>
      <point x="591" y="577" type="curve"/>
      <point x="591" y="530"/>
      <point x="551" y="509"/>
      <point x="500" y="509" type="curve"/>
      <point x="499" y="434" type="line"/>
    </contour>
  </outline>
</glyph>
<glyph name="knDDHA.base" format="1">
  <advance width="690"/>
  <outline>
    <contour>
      <point x="253" y="-14"/>
      <point x="321" y="43"/>
      <point x="344" y="126" type="curve"/>
      <point x="346" y="126" type="line"/>
      <point x="369" y="43"/>
      <point x="437" y="-14"/>
      <point x="505" y="-14" type="curve" smooth="yes"/>
      <point x="572" y="-14"/>
      <point x="635" y="33"/>
      <point x="635" y="145" type="curve" smooth="yes"/>
      <point x="635" y="218"/>
      <point x="575" y="355"/>
      <point x="468" y="355" type="curve" smooth="yes"/>
      <point x="407" y="355"/>
      <point x="378" y="315"/>
      <point x="378" y="277" type="curve" smooth="yes"/>
      <point x="378" y="229"/>
      <point x="420" y="185"/>
      <point x="476" y="185" type="curve" smooth="yes"/>
      <point x="527" y="185"/>
      <point x="576" y="216"/>
      <point x="576" y="284" type="curve" smooth="yes"/>
      <point x="576" y="397"/>
      <point x="450" y="467"/>
      <point x="345" y="467" type="curve" smooth="yes"/>
      <point x="208" y="467"/>
      <point x="55" y="339"/>
      <point x="55" y="160" type="curve" smooth="yes"/>
      <point x="55" y="33"/>
      <point x="117" y="-14"/>
      <point x="185" y="-14" type="curve" smooth="yes"/>
    </contour>
    <contour>
      <point x="370" y="-220"/>
      <point x="395" y="-201"/>
      <point x="395" y="-161" type="curve" smooth="yes"/>
      <point x="395" y="-117"/>
      <point x="366" y="-104"/>
      <point x="352" y="16" type="curve"/>
      <point x="336" y="16" type="line"/>
      <point x="323" y="-104"/>
      <point x="292" y="-117"/>
      <point x="292" y="-161" type="curve" smooth="yes"/>
      <point x="292" y="-197"/>
      <point x="317" y="-220"/>
      <point x="344" y="-220" type="curve" smooth="yes"/>
    </contour>
    <contour>
      <point x="138" y="71"/>
      <point x="104" y="114"/>
      <point x="104" y="192" type="curve" smooth="yes"/>
      <point x="104" y="300"/>
      <point x="213" y="441"/>
      <point x="345" y="441" type="curve" smooth="yes"/>
      <point x="456" y="441"/>
      <point x="544" y="355"/>
      <point x="544" y="299" type="curve" smooth="yes"/>
      <point x="544" y="274"/>
      <point x="526" y="243"/>
      <point x="475" y="243" type="curve" smooth="yes"/>
      <point x="438" y="243"/>
      <point x="417" y="262"/>
      <point x="417" y="285" type="curve" smooth="yes"/>
      <point x="417" y="307"/>
      <point x="439" y="326"/>
      <point x="475" y="326" type="curve" smooth="yes"/>
      <point x="536" y="326"/>
      <point x="589" y="254"/>
      <point x="589" y="174" type="curve" smooth="yes"/>
      <point x="589" y="113"/>
      <point x="554" y="71"/>
      <point x="495" y="71" type="curve" smooth="yes"/>
      <point x="429" y="71"/>
      <point x="364" y="145"/>
      <point x="350" y="221" type="curve"/>
      <point x="341" y="221" type="line"/>
      <point x="327" y="145"/>
      <point x="261" y="71"/>
      <point x="196" y="71" type="curve" smooth="yes"/>
    </contour>
    <contour>
      <point x="241" y="434" type="line"/>
      <point x="345" y="444" type="line"/>
      <point x="448" y="434" type="line"/>
      <point x="499" y="434" type="line"/>
      <point x="499" y="509" type="line"/>
      <point x="55" y="509" type="line"/>
      <point x="55" y="434" type="line"/>
    </contour>
  </outline>
</glyph>
